<svg xmlns="http://www.w3.org/2000/svg" viewBox="0 0 306.28 148.45"><defs><style>.cls-1{fill:#231815;}.cls-2,.cls-4,.cls-7,.cls-8,.cls-9{fill:none;stroke-miterlimit:10;}.cls-2{stroke:#717071;}.cls-3{fill:#dbdcdc;}.cls-4,.cls-7{stroke:#fff;}.cls-5{fill:#b1def6;opacity:0.61;}.cls-6{fill:#fff;}.cls-7{stroke-width:1.65px;}.cls-8{stroke:#dbdcdc;}.cls-9{stroke:#231815;}</style></defs><title>win10-6</title><g id="レイヤー_1" data-name="レイヤー 1"><path class="cls-1" d="M64.66,20.94l-2.15-3.67h.58l1.82,3.15,1.83-3.15h.59l-2.15,3.67v2.58h-.52Z"/><path class="cls-1" d="M70.21,18.72a2.29,2.29,0,0,1,2.29,2.47,2.29,2.29,0,1,1-4.57,0A2.29,2.29,0,0,1,70.21,18.72Zm0,4.48a1.79,1.79,0,0,0,1.77-2,1.79,1.79,0,1,0-3.56,0A1.79,1.79,0,0,0,70.22,23.2Z"/><path class="cls-1" d="M77.17,18.85v4.67h-.5v-.68a1.71,1.71,0,0,1-1.5.81,1.55,1.55,0,0,1-1.4-.72,2.87,2.87,0,0,1-.22-1.41V18.85h.5v2.77c0,.9.16,1.58,1.17,1.58a1.44,1.44,0,0,0,1.24-.66,2.12,2.12,0,0,0,.21-1.07V18.85Z"/><path class="cls-1" d="M78.5,23.52V18.85H79v.68a1.6,1.6,0,0,1,1.55-.81v.46a1.35,1.35,0,0,0-.94.24A1.56,1.56,0,0,0,79,20.91v2.61Z"/><path class="cls-1" d="M86.06,17.27A1.73,1.73,0,0,1,88,19.08c0,1.2-.8,1.8-2,1.8H84.8v2.64h-.52V17.27Zm-.32,3.14c.6,0,1.72,0,1.72-1.32s-1.08-1.35-1.72-1.35H84.8v2.67Z"/><path class="cls-1" d="M94,23.23a4.06,4.06,0,0,1-1.83.42,3.26,3.26,0,1,1,0-6.51,3.38,3.38,0,0,1,1.85.52l-.19.47a2.79,2.79,0,1,0-1.58,5.05,3,3,0,0,0,1.8-.53Z"/><path class="cls-1" d="M101.22,23.37a3.13,3.13,0,0,1-1.34.28,2.28,2.28,0,0,1-2.38-2.46,2.32,2.32,0,0,1,2.36-2.47,2.41,2.41,0,0,1,1.33.36l-.14.46a1.76,1.76,0,0,0-1.18-.37,1.83,1.83,0,0,0-1.88,2,1.83,1.83,0,0,0,1.92,2,2.63,2.63,0,0,0,1.31-.33Z"/><path class="cls-1" d="M102.47,19.09a2.84,2.84,0,0,1,1.43-.37,2,2,0,0,1,1.57.62,1.74,1.74,0,0,1,.28,1.13v2.21a1.93,1.93,0,0,0,.16.84h-.52a1.77,1.77,0,0,1-.13-.81,2.1,2.1,0,0,1-1.77.94A1.33,1.33,0,0,1,102,22.29c0-.34,0-1.21,1.47-1.46.21,0,1.14-.16,1.33-.21a.47.47,0,0,0,.43-.52c0-.66-.66-.93-1.34-.93a2.54,2.54,0,0,0-1.4.41Zm2.78,1.8c-.2.13-.31.14-1.23.28s-1.51.23-1.51,1.11c0,.36.17.92,1,.92a1.89,1.89,0,0,0,1.72-1.2Z"/><path class="cls-1" d="M107.11,23.52V18.85h.49v.68a1.73,1.73,0,0,1,1.5-.81,1.53,1.53,0,0,1,1.4.72,2.74,2.74,0,0,1,.22,1.41v2.67h-.5V20.91c0-.79,0-1.74-1.16-1.74a1.39,1.39,0,0,0-1.24.67,1.85,1.85,0,0,0-.22,1.07v2.61Z"/><path class="cls-1" d="M115.24,23.52h-.5V17h.5v2.68a1.9,1.9,0,0,1,1.66-.92,2.18,2.18,0,0,1,2.1,2.47,2.17,2.17,0,0,1-2.1,2.46,1.88,1.88,0,0,1-1.66-.92Zm1.6-.32c.86,0,1.66-.6,1.66-2s-.83-2-1.66-2-1.61.57-1.61,2S116,23.2,116.84,23.2Z"/><path class="cls-1" d="M120.3,21.36a1.71,1.71,0,0,0,1.87,1.84,2.7,2.7,0,0,0,1.38-.33v.51a3.56,3.56,0,0,1-1.4.27,2.23,2.23,0,0,1-2.35-2.43,2.24,2.24,0,0,1,2.1-2.5,1.89,1.89,0,0,1,1.79,1.18,3.54,3.54,0,0,1,.25,1.46Zm3.14-.45c-.1-1.18-.77-1.74-1.54-1.74a1.68,1.68,0,0,0-1.6,1.74Z"/><path class="cls-1" d="M125,23.52V17h.49v2.57a1.76,1.76,0,0,1,1.5-.81,1.53,1.53,0,0,1,1.4.72,2.65,2.65,0,0,1,.22,1.41v2.67h-.5V20.91c0-.79,0-1.74-1.16-1.74a1.42,1.42,0,0,0-1.24.67,2,2,0,0,0-.22,1.07v2.61Z"/><path class="cls-1" d="M130.16,19.09a2.88,2.88,0,0,1,1.43-.37,2,2,0,0,1,1.58.62,1.74,1.74,0,0,1,.28,1.13v2.21a1.79,1.79,0,0,0,.16.84h-.52a1.73,1.73,0,0,1-.14-.81,2.1,2.1,0,0,1-1.77.94,1.33,1.33,0,0,1-1.47-1.36c0-.34,0-1.21,1.47-1.46.21,0,1.15-.16,1.34-.21a.46.46,0,0,0,.42-.52c0-.66-.65-.93-1.33-.93a2.48,2.48,0,0,0-1.4.41Zm2.78,1.8c-.2.13-.3.14-1.22.28s-1.51.23-1.51,1.11a.88.88,0,0,0,1,.92,1.89,1.89,0,0,0,1.72-1.2Z"/><path class="cls-1" d="M137.57,18.85h.53l-1.57,4.67h-.65l-1.57-4.67h.53l1.37,4.2Z"/><path class="cls-1" d="M139.18,21.36a1.73,1.73,0,0,0,1.88,1.84,2.7,2.7,0,0,0,1.38-.33v.51a3.61,3.61,0,0,1-1.4.27,2.23,2.23,0,0,1-2.35-2.43,2.24,2.24,0,0,1,2.1-2.5,1.87,1.87,0,0,1,1.78,1.18,3.59,3.59,0,0,1,.26,1.46Zm3.15-.45c-.1-1.18-.77-1.74-1.55-1.74a1.68,1.68,0,0,0-1.6,1.74Z"/><path class="cls-1" d="M144.69,22.63v.82c0,.58-.2.77-.85.81v-.33c.45,0,.45-.22.45-.42h-.45v-.88Z"/><path class="cls-1" d="M148.8,19.09a2.88,2.88,0,0,1,1.43-.37,2,2,0,0,1,1.58.62,1.74,1.74,0,0,1,.28,1.13v2.21a1.79,1.79,0,0,0,.16.84h-.52a1.73,1.73,0,0,1-.14-.81,2.1,2.1,0,0,1-1.77.94,1.33,1.33,0,0,1-1.47-1.36c0-.34,0-1.21,1.47-1.46.21,0,1.15-.16,1.34-.21a.46.46,0,0,0,.42-.52c0-.66-.65-.93-1.33-.93a2.48,2.48,0,0,0-1.4.41Zm2.78,1.8c-.2.13-.3.14-1.22.28s-1.51.23-1.51,1.11a.88.88,0,0,0,1,.92,1.89,1.89,0,0,0,1.72-1.2Z"/><path class="cls-1" d="M155.89,19.41a2.15,2.15,0,0,0-1-.24c-.63,0-1.12.27-1.12.83s.27.68,1.24,1c.7.21,1.31.5,1.31,1.33s-.81,1.36-1.81,1.36a3.11,3.11,0,0,1-1.44-.33l.17-.44a2.6,2.6,0,0,0,1.28.32c.7,0,1.3-.25,1.3-.91s-.46-.75-1.27-1-1.27-.43-1.27-1.25.72-1.31,1.62-1.31A2.56,2.56,0,0,1,156,19Z"/><path class="cls-1" d="M160.79,18h-.65v-.69h.65Zm-.06,5.56h-.51V18.85h.51Z"/><path class="cls-1" d="M163.74,18.85v.45h-.89v4.22h-.5V19.3h-.64v-.45h.64V18.2c0-.4,0-1.24,1.1-1.24a1.19,1.19,0,0,1,.29,0l-.05.43-.21,0c-.63,0-.63.39-.63.8v.64Z"/><path class="cls-1" d="M168,18h-.65v-.69H168Zm-.07,5.56h-.51V18.85h.51Z"/><path class="cls-1" d="M169.52,17.52h.5v1.33h1.48v.45H170v3c0,.57,0,.94.84.94a5,5,0,0,0,.56,0v.44c-.14,0-.32,0-.6,0-1.18,0-1.3-.59-1.3-1.41V19.3h-.61v-.45h.61Z"/><path class="cls-1" d="M175.75,18h-.65v-.69h.65Zm-.06,5.56h-.51V18.85h.51Z"/><path class="cls-1" d="M179.58,19.41a2.09,2.09,0,0,0-1-.24c-.63,0-1.12.27-1.12.83s.27.68,1.24,1c.69.21,1.31.5,1.31,1.33s-.82,1.36-1.82,1.36a3.14,3.14,0,0,1-1.44-.33l.17-.44a2.63,2.63,0,0,0,1.28.32c.71,0,1.31-.25,1.31-.91s-.46-.75-1.28-1c-.66-.2-1.27-.43-1.27-1.25s.72-1.31,1.63-1.31a2.55,2.55,0,0,1,1.09.25Z"/><path class="cls-1" d="M187.25,23.37a3.1,3.1,0,0,1-1.34.28,2.28,2.28,0,0,1-2.38-2.46,2.32,2.32,0,0,1,2.36-2.47,2.41,2.41,0,0,1,1.33.36l-.14.46a1.76,1.76,0,0,0-1.18-.37,1.83,1.83,0,0,0-1.88,2,1.83,1.83,0,0,0,1.92,2,2.63,2.63,0,0,0,1.31-.33Z"/><path class="cls-1" d="M190.31,18.72a2.29,2.29,0,0,1,2.29,2.47,2.29,2.29,0,1,1-4.57,0A2.29,2.29,0,0,1,190.31,18.72Zm0,4.48a1.79,1.79,0,0,0,1.77-2,1.79,1.79,0,1,0-3.55,0A1.79,1.79,0,0,0,190.32,23.2Z"/><path class="cls-1" d="M193.66,23.52V18.85h.49v.68a1.75,1.75,0,0,1,1.51-.81,1.53,1.53,0,0,1,1.39.72,2.74,2.74,0,0,1,.22,1.41v2.67h-.49V20.91c0-.79,0-1.74-1.17-1.74a1.41,1.41,0,0,0-1.24.67,1.85,1.85,0,0,0-.22,1.07v2.61Z"/><path class="cls-1" d="M198.62,23.52V18.85h.49v.68a1.75,1.75,0,0,1,1.51-.81,1.53,1.53,0,0,1,1.39.72,2.74,2.74,0,0,1,.22,1.41v2.67h-.49V20.91c0-.79,0-1.74-1.17-1.74a1.41,1.41,0,0,0-1.24.67,1.85,1.85,0,0,0-.22,1.07v2.61Z"/><path class="cls-1" d="M203.81,21.36a1.71,1.71,0,0,0,1.87,1.84,2.7,2.7,0,0,0,1.38-.33v.51a3.56,3.56,0,0,1-1.4.27,2.23,2.23,0,0,1-2.35-2.43,2.24,2.24,0,0,1,2.11-2.5,1.89,1.89,0,0,1,1.78,1.18,3.54,3.54,0,0,1,.25,1.46Zm3.14-.45c-.1-1.18-.77-1.74-1.54-1.74a1.68,1.68,0,0,0-1.6,1.74Z"/><path class="cls-1" d="M212,23.37a3.06,3.06,0,0,1-1.33.28,2.29,2.29,0,0,1-2.39-2.46,2.32,2.32,0,0,1,2.36-2.47,2.45,2.45,0,0,1,1.34.36l-.15.46a1.71,1.71,0,0,0-1.17-.37,1.83,1.83,0,0,0-1.88,2,1.83,1.83,0,0,0,1.92,2,2.57,2.57,0,0,0,1.3-.33Z"/><path class="cls-1" d="M213.22,17.52h.49v1.33h1.49v.45h-1.49v3c0,.57,0,.94.84.94a4.77,4.77,0,0,0,.56,0v.44a5.84,5.84,0,0,1-.6,0c-1.17,0-1.29-.59-1.29-1.41V19.3h-.61v-.45h.61Z"/><path class="cls-1" d="M216.33,21.36a1.71,1.71,0,0,0,1.87,1.84,2.7,2.7,0,0,0,1.38-.33v.51a3.56,3.56,0,0,1-1.4.27,2.23,2.23,0,0,1-2.35-2.43,2.24,2.24,0,0,1,2.11-2.5,1.88,1.88,0,0,1,1.78,1.18,3.54,3.54,0,0,1,.25,1.46Zm3.14-.45c-.1-1.18-.77-1.74-1.54-1.74a1.68,1.68,0,0,0-1.6,1.74Z"/><path class="cls-1" d="M224.53,22.73a1.86,1.86,0,0,1-1.66.92,2.17,2.17,0,0,1-2.09-2.46c0-1.62,1-2.47,2.09-2.47a1.89,1.89,0,0,1,1.66.92V17H225v6.56h-.51Zm-1.6-3.56c-.83,0-1.65.56-1.65,2s.78,2,1.66,2,1.61-.58,1.61-2S223.76,19.17,222.93,19.17Z"/><path class="cls-1" d="M232.53,22.73a1.86,1.86,0,0,1-1.66.92,2.17,2.17,0,0,1-2.09-2.46c0-1.62,1-2.47,2.09-2.47a1.89,1.89,0,0,1,1.66.92V17H233v6.56h-.51Zm-1.6-3.56c-.83,0-1.65.56-1.65,2s.78,2,1.66,2,1.61-.58,1.61-2S231.76,19.17,230.93,19.17Z"/><path class="cls-1" d="M235.08,18h-.65v-.69h.65ZM235,23.52h-.52V18.85H235Z"/><path class="cls-1" d="M236.45,23.52V18.85h.5v.68a1.61,1.61,0,0,1,1.55-.81v.46a1.35,1.35,0,0,0-.94.24,1.56,1.56,0,0,0-.61,1.49v2.61Z"/><path class="cls-1" d="M239.81,21.36a1.71,1.71,0,0,0,1.87,1.84,2.7,2.7,0,0,0,1.38-.33v.51a3.56,3.56,0,0,1-1.4.27,2.23,2.23,0,0,1-2.35-2.43,2.24,2.24,0,0,1,2.11-2.5,1.89,1.89,0,0,1,1.78,1.18,3.54,3.54,0,0,1,.25,1.46Zm3.14-.45c-.1-1.18-.77-1.74-1.54-1.74a1.68,1.68,0,0,0-1.6,1.74Z"/><path class="cls-1" d="M248,23.37a3.06,3.06,0,0,1-1.33.28,2.29,2.29,0,0,1-2.39-2.46,2.32,2.32,0,0,1,2.36-2.47,2.45,2.45,0,0,1,1.34.36l-.15.46a1.71,1.71,0,0,0-1.17-.37,1.83,1.83,0,0,0-1.88,2,1.83,1.83,0,0,0,1.92,2,2.57,2.57,0,0,0,1.3-.33Z"/><path class="cls-1" d="M249.22,17.52h.49v1.33h1.49v.45h-1.49v3c0,.57,0,.94.84.94a4.77,4.77,0,0,0,.56,0v.44c-.14,0-.32,0-.6,0-1.17,0-1.29-.59-1.29-1.41V19.3h-.61v-.45h.61Z"/><path class="cls-1" d="M253.46,23.52h-.33c-.89,0-.92-.49-.92-1V17h.5v5.56c0,.31,0,.55.43.55h.32Z"/><path class="cls-1" d="M255.53,23.21l-1.74-4.36h.53l1.46,3.71,1.47-3.71h.52l-2.72,6.8h-.49Z"/><path class="cls-1" d="M63.12,29.52h.5v1.33H65.1v.45H63.62v3c0,.57,0,.94.84.94a5,5,0,0,0,.56,0v.44c-.14,0-.32,0-.6,0-1.18,0-1.3-.59-1.3-1.41V31.3h-.61v-.45h.61Z"/><path class="cls-1" d="M68,30.72a2.29,2.29,0,0,1,2.29,2.47,2.29,2.29,0,1,1-4.57,0A2.29,2.29,0,0,1,68,30.72Zm0,4.48a1.8,1.8,0,0,0,1.78-2,1.79,1.79,0,1,0-3.56,0A1.79,1.79,0,0,0,68,35.2Z"/><path class="cls-1" d="M77.45,35.37a3.1,3.1,0,0,1-1.34.28,2.28,2.28,0,0,1-2.38-2.46,2.32,2.32,0,0,1,2.36-2.47,2.41,2.41,0,0,1,1.33.36l-.14.46a1.76,1.76,0,0,0-1.18-.37,1.82,1.82,0,0,0-1.87,2,1.82,1.82,0,0,0,1.91,2,2.63,2.63,0,0,0,1.31-.33Z"/><path class="cls-1" d="M78.7,31.09a2.84,2.84,0,0,1,1.43-.37,2,2,0,0,1,1.57.62A1.68,1.68,0,0,1,82,32.47v2.21a1.93,1.93,0,0,0,.16.84h-.52a1.77,1.77,0,0,1-.13-.81,2.1,2.1,0,0,1-1.77.94,1.33,1.33,0,0,1-1.47-1.36c0-.34,0-1.21,1.47-1.46.21,0,1.14-.16,1.34-.21a.46.46,0,0,0,.42-.52c0-.66-.66-.93-1.33-.93a2.48,2.48,0,0,0-1.4.41Zm2.78,1.8c-.2.13-.3.14-1.22.28s-1.51.23-1.51,1.11c0,.36.16.92,1,.92A1.89,1.89,0,0,0,81.48,34Z"/><path class="cls-1" d="M86.18,35.52V32.84c0-.68,0-1.67-1-1.67-.61,0-1.33.38-1.33,1.62v2.73h-.49V30.85h.49v.68a1.54,1.54,0,0,1,1.38-.81,1.37,1.37,0,0,1,1.35.87A1.67,1.67,0,0,1,88,30.72a1.35,1.35,0,0,1,1.38.89,2.78,2.78,0,0,1,.12,1v2.94h-.49V32.84c0-.67,0-1.67-1-1.67A1.26,1.26,0,0,0,86.8,32a1.93,1.93,0,0,0-.12.67v2.87Z"/><path class="cls-1" d="M90.9,30.85h.5v.79a1.92,1.92,0,0,1,1.66-.92,2.18,2.18,0,0,1,2.1,2.47,2.17,2.17,0,0,1-2.1,2.46,1.9,1.9,0,0,1-1.66-.92v2.92h-.5ZM93,35.2c.82,0,1.66-.54,1.66-2s-.79-2-1.66-2-1.61.58-1.61,2S92.18,35.2,93,35.2Z"/><path class="cls-1" d="M99.84,30.85v4.67h-.5v-.68a1.71,1.71,0,0,1-1.5.81,1.55,1.55,0,0,1-1.4-.72,2.88,2.88,0,0,1-.21-1.41V30.85h.49v2.77c0,.9.16,1.58,1.17,1.58a1.44,1.44,0,0,0,1.24-.66,2.12,2.12,0,0,0,.21-1.07V30.85Z"/><path class="cls-1" d="M103.63,31.41a2.09,2.09,0,0,0-1-.24c-.63,0-1.12.27-1.12.83s.27.68,1.24,1c.69.21,1.31.5,1.31,1.33s-.82,1.36-1.82,1.36a3.14,3.14,0,0,1-1.44-.33l.17-.44a2.63,2.63,0,0,0,1.28.32c.7,0,1.3-.25,1.3-.91s-.45-.75-1.27-1c-.66-.2-1.27-.43-1.27-1.25s.72-1.31,1.62-1.31a2.56,2.56,0,0,1,1.1.25Z"/><path class="cls-1" d="M107.85,35.52V30.85h.5v.68a1.73,1.73,0,0,1,1.5-.81,1.54,1.54,0,0,1,1.4.72,2.75,2.75,0,0,1,.21,1.41v2.67H111V32.91c0-.79,0-1.74-1.17-1.74a1.41,1.41,0,0,0-1.24.67,1.85,1.85,0,0,0-.21,1.07v2.61Z"/><path class="cls-1" d="M113,33.36a1.72,1.72,0,0,0,1.87,1.84,2.77,2.77,0,0,0,1.39-.33v.51a3.66,3.66,0,0,1-1.4.27,2.22,2.22,0,0,1-2.35-2.43,2.23,2.23,0,0,1,2.1-2.5,1.88,1.88,0,0,1,1.78,1.18,3.59,3.59,0,0,1,.26,1.46Zm3.14-.45c-.09-1.18-.76-1.74-1.54-1.74a1.68,1.68,0,0,0-1.6,1.74Z"/><path class="cls-1" d="M117.93,29.52h.49v1.33h1.49v.45h-1.49v3c0,.57,0,.94.84.94a4.77,4.77,0,0,0,.56,0v.44a5.84,5.84,0,0,1-.6,0c-1.17,0-1.29-.59-1.29-1.41V31.3h-.61v-.45h.61Z"/><path class="cls-1" d="M122.8,30.72a2.29,2.29,0,0,1,2.29,2.47,2.29,2.29,0,1,1-4.57,0A2.29,2.29,0,0,1,122.8,30.72Zm0,4.48a1.79,1.79,0,0,0,1.77-2,1.79,1.79,0,1,0-3.55,0A1.79,1.79,0,0,0,122.81,35.2Z"/><path class="cls-1" d="M130.63,35,132,30.85h.51l-1.56,4.67h-.59l-1.28-4.32-1.26,4.32h-.61l-1.56-4.67h.52L127.5,35l1.21-4.14h.71Z"/><path class="cls-1" d="M133.82,32.71l2.12-1.86h.7l-2.23,1.94L137,35.52h-.67l-2.48-2.7v2.7h-.51V29h.51Z"/><path class="cls-1" d="M138.77,34.63v.89h-.85v-.89Z"/><path class="cls-1" d="M63.79,45.55l-.77,2h-.56l2.48-6.25h.7l2.48,6.25h-.57l-.77-2Zm2.82-.46-1.32-3.37L64,45.09Z"/><path class="cls-1" d="M69,47.52V42.85h.5v.68a1.73,1.73,0,0,1,1.5-.81,1.53,1.53,0,0,1,1.4.72,2.74,2.74,0,0,1,.22,1.41v2.67h-.5V44.91c0-.79,0-1.74-1.17-1.74a1.41,1.41,0,0,0-1.24.67,1.93,1.93,0,0,0-.21,1.07v2.61Z"/><path class="cls-1" d="M77.4,46.73a1.88,1.88,0,0,1-1.66.92,2.17,2.17,0,0,1-2.1-2.46,2.18,2.18,0,0,1,2.1-2.47,1.9,1.9,0,0,1,1.66.92V41h.5v6.56h-.5Zm-1.61-3.56c-.82,0-1.64.56-1.64,2s.78,2,1.65,2,1.62-.58,1.62-2S76.62,43.17,75.79,43.17Z"/><path class="cls-1" d="M83.18,47.21l-1.74-4.36H82l1.46,3.71,1.47-3.71h.52l-2.71,6.8h-.5Z"/><path class="cls-1" d="M88.28,42.72A2.47,2.47,0,1,1,86,45.19,2.29,2.29,0,0,1,88.28,42.72Zm0,4.48a2,2,0,1,0-1.78-2A1.79,1.79,0,0,0,88.29,47.2Z"/><path class="cls-1" d="M95.24,42.85v4.67h-.5v-.68a1.71,1.71,0,0,1-1.5.81,1.55,1.55,0,0,1-1.4-.72,2.88,2.88,0,0,1-.21-1.41V42.85h.49v2.77c0,.9.16,1.58,1.17,1.58a1.44,1.44,0,0,0,1.24-.66,2.12,2.12,0,0,0,.21-1.07V42.85Z"/><path class="cls-1" d="M96.57,47.52V42.85h.5v.68a1.62,1.62,0,0,1,1.55-.81v.46a1.35,1.35,0,0,0-.94.24,1.59,1.59,0,0,0-.61,1.49v2.61Z"/><path class="cls-1" d="M105.81,47.37a3.1,3.1,0,0,1-1.34.28,2.28,2.28,0,0,1-2.38-2.46,2.32,2.32,0,0,1,2.36-2.47,2.41,2.41,0,0,1,1.33.36l-.14.46a1.76,1.76,0,0,0-1.18-.37,2,2,0,0,0,0,4,2.63,2.63,0,0,0,1.31-.33Z"/><path class="cls-1" d="M108.87,42.72a2.47,2.47,0,1,1-2.28,2.47A2.29,2.29,0,0,1,108.87,42.72Zm0,4.48a2,2,0,1,0-1.78-2A1.8,1.8,0,0,0,108.88,47.2Z"/><path class="cls-1" d="M115.06,47.52V44.84c0-.68,0-1.67-1-1.67-.61,0-1.33.38-1.33,1.62v2.73h-.49V42.85h.49v.68a1.52,1.52,0,0,1,1.38-.81,1.37,1.37,0,0,1,1.35.87,1.67,1.67,0,0,1,1.48-.87,1.35,1.35,0,0,1,1.38.89,2.78,2.78,0,0,1,.12,1v2.94h-.49V44.84c0-.67,0-1.67-1-1.67a1.26,1.26,0,0,0-1.22.81,1.93,1.93,0,0,0-.12.67v2.87Z"/><path class="cls-1" d="M122.61,47.52V44.84c0-.68,0-1.67-1-1.67-.61,0-1.32.38-1.32,1.62v2.73h-.5V42.85h.5v.68a1.52,1.52,0,0,1,1.37-.81,1.37,1.37,0,0,1,1.35.87,1.67,1.67,0,0,1,1.48-.87,1.35,1.35,0,0,1,1.38.89,2.78,2.78,0,0,1,.12,1v2.94h-.49V44.84c0-.67,0-1.67-1-1.67a1.26,1.26,0,0,0-1.22.81,2.2,2.2,0,0,0-.12.67v2.87Z"/><path class="cls-1" d="M130.94,42.85v4.67h-.5v-.68a1.73,1.73,0,0,1-1.5.81,1.52,1.52,0,0,1-1.4-.72,2.87,2.87,0,0,1-.22-1.41V42.85h.5v2.77c0,.9.16,1.58,1.16,1.58a1.43,1.43,0,0,0,1.24-.66,2,2,0,0,0,.22-1.07V42.85Z"/><path class="cls-1" d="M132.28,47.52V42.85h.5v.68a1.73,1.73,0,0,1,1.5-.81,1.53,1.53,0,0,1,1.4.72,2.74,2.74,0,0,1,.22,1.41v2.67h-.5V44.91c0-.79,0-1.74-1.17-1.74a1.41,1.41,0,0,0-1.24.67,1.85,1.85,0,0,0-.21,1.07v2.61Z"/><path class="cls-1" d="M137.93,42h-.65v-.69h.65Zm-.07,5.56h-.51V42.85h.51Z"/><path class="cls-1" d="M142.76,47.37a3.07,3.07,0,0,1-1.34.28A2.28,2.28,0,0,1,139,45.19a2.32,2.32,0,0,1,2.36-2.47,2.48,2.48,0,0,1,1.34.36l-.15.46a1.73,1.73,0,0,0-1.17-.37,2,2,0,0,0,0,4,2.57,2.57,0,0,0,1.3-.33Z"/><path class="cls-1" d="M144,43.09a2.84,2.84,0,0,1,1.43-.37,2,2,0,0,1,1.58.62,1.74,1.74,0,0,1,.28,1.13v2.21a2,2,0,0,0,.15.84h-.51a1.73,1.73,0,0,1-.14-.81,2.1,2.1,0,0,1-1.77.94,1.33,1.33,0,0,1-1.47-1.36c0-.34,0-1.21,1.47-1.46.21,0,1.15-.16,1.34-.21a.46.46,0,0,0,.42-.52c0-.66-.65-.93-1.33-.93a2.48,2.48,0,0,0-1.4.41Zm2.78,1.8c-.2.13-.3.14-1.22.28s-1.51.23-1.51,1.11c0,.36.16.92,1,.92a1.89,1.89,0,0,0,1.72-1.2Z"/><path class="cls-1" d="M148.81,41.52h.49v1.33h1.49v.45H149.3v3c0,.57,0,.94.84.94a4.77,4.77,0,0,0,.56,0v.44a5.84,5.84,0,0,1-.6,0c-1.17,0-1.29-.59-1.29-1.41V43.3h-.61v-.45h.61Z"/><path class="cls-1" d="M152.38,42h-.65v-.69h.65Zm-.07,5.56h-.51V42.85h.51Z"/><path class="cls-1" d="M155.75,42.72a2.47,2.47,0,1,1-2.28,2.47A2.29,2.29,0,0,1,155.75,42.72Zm0,4.48a2,2,0,1,0-1.78-2A1.79,1.79,0,0,0,155.76,47.2Z"/><path class="cls-1" d="M159.1,47.52V42.85h.49v.68a1.75,1.75,0,0,1,1.51-.81,1.53,1.53,0,0,1,1.39.72,2.74,2.74,0,0,1,.22,1.41v2.67h-.49V44.91c0-.79,0-1.74-1.17-1.74a1.41,1.41,0,0,0-1.24.67,1.85,1.85,0,0,0-.22,1.07v2.61Z"/><path class="cls-1" d="M167.41,42h-.65v-.69h.65Zm-.07,5.56h-.51V42.85h.51Z"/><path class="cls-1" d="M171.24,43.41a2.15,2.15,0,0,0-1-.24c-.63,0-1.12.27-1.12.83s.28.68,1.24,1c.7.21,1.31.5,1.31,1.33s-.81,1.36-1.81,1.36a3.14,3.14,0,0,1-1.44-.33l.17-.44a2.63,2.63,0,0,0,1.28.32c.7,0,1.3-.25,1.3-.91s-.45-.75-1.27-1c-.66-.2-1.27-.43-1.27-1.25s.72-1.31,1.62-1.31a2.56,2.56,0,0,1,1.1.25Z"/><path class="cls-1" d="M175.69,45.36a1.71,1.71,0,0,0,1.87,1.84,2.7,2.7,0,0,0,1.38-.33v.51a3.56,3.56,0,0,1-1.4.27,2.23,2.23,0,0,1-2.35-2.43,2.24,2.24,0,0,1,2.11-2.5,1.89,1.89,0,0,1,1.78,1.18,3.54,3.54,0,0,1,.25,1.46Zm3.14-.45c-.1-1.18-.77-1.74-1.54-1.74a1.68,1.68,0,0,0-1.6,1.74Z"/><path class="cls-1" d="M180.42,47.52V42.85h.49v.68a1.75,1.75,0,0,1,1.51-.81,1.53,1.53,0,0,1,1.39.72,2.74,2.74,0,0,1,.22,1.41v2.67h-.5V44.91c0-.79,0-1.74-1.16-1.74a1.41,1.41,0,0,0-1.24.67,1.85,1.85,0,0,0-.22,1.07v2.61Z"/><path class="cls-1" d="M188.82,47.37a3.06,3.06,0,0,1-1.33.28,2.29,2.29,0,0,1-2.39-2.46,2.32,2.32,0,0,1,2.36-2.47,2.45,2.45,0,0,1,1.34.36l-.15.46a1.71,1.71,0,0,0-1.17-.37,2,2,0,0,0,0,4,2.57,2.57,0,0,0,1.3-.33Z"/><path class="cls-1" d="M189.88,47.52V42.85h.5v.68a1.62,1.62,0,0,1,1.56-.81v.46a1.36,1.36,0,0,0-.95.24,1.59,1.59,0,0,0-.61,1.49v2.61Z"/><path class="cls-1" d="M194.26,47.21l-1.73-4.36h.53l1.46,3.71L196,42.85h.52l-2.72,6.8h-.49Z"/><path class="cls-1" d="M197.38,42.85h.51v.79a1.89,1.89,0,0,1,1.66-.92,2.18,2.18,0,0,1,2.1,2.47,2.17,2.17,0,0,1-2.1,2.46,1.88,1.88,0,0,1-1.66-.92v2.92h-.51Zm2.11,4.35c.81,0,1.65-.54,1.65-2s-.78-2-1.65-2-1.62.58-1.62,2S198.66,47.2,199.49,47.2Z"/><path class="cls-1" d="M202.87,41.52h.5v1.33h1.48v.45h-1.48v3c0,.57,0,.94.84.94a5,5,0,0,0,.56,0v.44c-.14,0-.32,0-.6,0-1.18,0-1.3-.59-1.3-1.41V43.3h-.61v-.45h.61Z"/><path class="cls-1" d="M206,45.36a1.72,1.72,0,0,0,1.87,1.84,2.77,2.77,0,0,0,1.39-.33v.51a3.66,3.66,0,0,1-1.4.27,2.22,2.22,0,0,1-2.35-2.43,2.23,2.23,0,0,1,2.1-2.5,1.87,1.87,0,0,1,1.78,1.18,3.59,3.59,0,0,1,.26,1.46Zm3.15-.45c-.1-1.18-.77-1.74-1.55-1.74a1.68,1.68,0,0,0-1.6,1.74Z"/><path class="cls-1" d="M214.19,46.73a1.88,1.88,0,0,1-1.66.92,2.17,2.17,0,0,1-2.1-2.46,2.18,2.18,0,0,1,2.1-2.47,1.9,1.9,0,0,1,1.66.92V41h.5v6.56h-.5Zm-1.61-3.56c-.82,0-1.64.56-1.64,2s.78,2,1.65,2,1.62-.58,1.62-2S213.41,43.17,212.58,43.17Z"/><path class="cls-1" d="M216.82,46.63v.89H216v-.89Z"/><path class="cls-2" d="M261.46,57.39H95.79L83,77.59V57.39H58.79a5.69,5.69,0,0,1-5.66-5.67V15.24a5.68,5.68,0,0,1,5.66-5.67H261.46a5.68,5.68,0,0,1,5.66,5.67V51.72A5.69,5.69,0,0,1,261.46,57.39Z"/><path class="cls-3" d="M78.64,100.51c-1.46,0-2.65-3.34-2.65-7.46s1.19-7.45,2.65-7.45H206.51c1.46,0,2.64,3.34,2.64,7.45s-1.18,7.46-2.64,7.46Z"/><ellipse class="cls-4" cx="78.64" cy="93.05" rx="2.64" ry="7.46"/><path class="cls-1" d="M8.07,118.82l-1.61-2.75H6.9l1.37,2.36,1.37-2.36h.44l-1.62,2.75v1.94H8.07Z"/><path class="cls-1" d="M12.24,117.16A1.85,1.85,0,1,1,10.53,119,1.71,1.71,0,0,1,12.24,117.16Zm0,3.36A1.52,1.52,0,1,0,10.91,119,1.34,1.34,0,0,0,12.24,120.52Z"/><path class="cls-1" d="M17.46,117.26v3.5h-.37v-.51a1.31,1.31,0,0,1-1.13.6,1.13,1.13,0,0,1-1.05-.54,2,2,0,0,1-.16-1v-2h.37v2.07c0,.68.12,1.19.87,1.19a1.07,1.07,0,0,0,.93-.5,1.46,1.46,0,0,0,.17-.8v-2Z"/><path class="cls-1" d="M18.45,120.76v-3.5h.38v.51a1.21,1.21,0,0,1,1.17-.61v.34a1,1,0,0,0-.71.18,1.18,1.18,0,0,0-.46,1.12v2Z"/><path class="cls-1" d="M24.12,116.07a1.3,1.3,0,0,1,1.45,1.35c0,.91-.6,1.36-1.52,1.36h-.87v2h-.39v-4.69Zm-.23,2.35c.44,0,1.28,0,1.28-1s-.81-1-1.28-1h-.71v2Z"/><path class="cls-1" d="M30.1,120.54a3,3,0,0,1-1.37.31,2.44,2.44,0,1,1,0-4.88,2.51,2.51,0,0,1,1.39.39l-.14.36a2,2,0,0,0-1.25-.39,2.09,2.09,0,1,0,.07,4.17,2.18,2.18,0,0,0,1.34-.4Z"/><path class="cls-1" d="M35.49,120.64a2.3,2.3,0,0,1-1,.21A1.71,1.71,0,0,1,32.7,119a1.73,1.73,0,0,1,1.77-1.85,1.79,1.79,0,0,1,1,.27l-.1.34a1.49,1.49,0,1,0-.85,2.75,2,2,0,0,0,1-.25Z"/><path class="cls-1" d="M37.79,117.16A1.85,1.85,0,1,1,36.08,119,1.72,1.72,0,0,1,37.79,117.16Zm0,3.36A1.52,1.52,0,1,0,36.46,119,1.34,1.34,0,0,0,37.8,120.52Z"/><path class="cls-1" d="M40.3,120.76v-3.5h.37v.51a1.3,1.3,0,0,1,1.13-.61,1.15,1.15,0,0,1,1.05.54,2,2,0,0,1,.16,1v2h-.37v-2c0-.59,0-1.3-.88-1.3a1.08,1.08,0,0,0-.93.49,1.5,1.5,0,0,0-.16.81v2Z"/><path class="cls-1" d="M44,120.76v-3.5h.37v.51a1.3,1.3,0,0,1,1.13-.61,1.16,1.16,0,0,1,1,.54,2,2,0,0,1,.16,1v2h-.37v-2c0-.59,0-1.3-.88-1.3a1.08,1.08,0,0,0-.93.49,1.5,1.5,0,0,0-.16.81v2Z"/><path class="cls-1" d="M47.91,119.13a1.3,1.3,0,0,0,1.41,1.39,2,2,0,0,0,1-.25v.38a2.72,2.72,0,0,1-1.05.2,1.86,1.86,0,0,1-.18-3.69,1.42,1.42,0,0,1,1.34.88,2.79,2.79,0,0,1,.19,1.09Zm2.36-.33c-.07-.89-.58-1.3-1.16-1.3a1.26,1.26,0,0,0-1.2,1.3Z"/><path class="cls-1" d="M54,120.64a2.27,2.27,0,0,1-1,.21A1.7,1.7,0,0,1,51.26,119,1.73,1.73,0,0,1,53,117.16a1.86,1.86,0,0,1,1,.27l-.11.34a1.34,1.34,0,0,0-.88-.27,1.51,1.51,0,0,0,0,3,1.92,1.92,0,0,0,1-.25Z"/><path class="cls-1" d="M55,116.25h.37v1h1.12v.33H55.34v2.22c0,.43,0,.71.63.71a2.71,2.71,0,0,0,.42,0v.33a2.41,2.41,0,0,1-.45,0c-.88,0-1-.44-1-1v-2.21h-.46v-.33H55Z"/><path class="cls-1" d="M57.3,119.13a1.3,1.3,0,0,0,1.41,1.39,2,2,0,0,0,1-.25v.38a2.72,2.72,0,0,1-1.05.2,1.86,1.86,0,0,1-.18-3.69,1.42,1.42,0,0,1,1.34.88,2.79,2.79,0,0,1,.19,1.09Zm2.36-.33c-.07-.89-.58-1.3-1.16-1.3a1.26,1.26,0,0,0-1.2,1.3Z"/><path class="cls-1" d="M63.46,120.16a1.4,1.4,0,0,1-1.25.69,1.87,1.87,0,0,1,0-3.69,1.41,1.41,0,0,1,1.25.69v-2h.38v4.92h-.38Zm-1.21-2.66c-.62,0-1.23.41-1.23,1.51s.58,1.51,1.24,1.51,1.21-.44,1.21-1.51S62.88,117.5,62.25,117.5Z"/><path class="cls-1" d="M67,116.25h.37v1h1.12v.33H67.34v2.22c0,.43,0,.71.63.71a2.71,2.71,0,0,0,.42,0v.33a2.41,2.41,0,0,1-.45,0c-.88,0-1-.44-1-1v-2.21h-.46v-.33H67Z"/><path class="cls-1" d="M70.62,117.16A1.85,1.85,0,1,1,68.91,119,1.72,1.72,0,0,1,70.62,117.16Zm0,3.36A1.52,1.52,0,1,0,69.29,119,1.34,1.34,0,0,0,70.63,120.52Z"/><path class="cls-1" d="M75.18,116.07l1.72,4.35,1.73-4.35H79l-1.88,4.69h-.52l-1.88-4.69Z"/><path class="cls-1" d="M81,116.07a1.3,1.3,0,0,1,1.44,1.35c0,.91-.6,1.36-1.52,1.36h-.86v2h-.39v-4.69Zm-.24,2.35c.45,0,1.29,0,1.29-1s-.81-1-1.29-1h-.7v2Z"/><path class="cls-1" d="M83.89,116.07l3,4.37v-4.37h.39v4.69h-.62l-3-4.37v4.37h-.39v-4.69Z"/><path class="cls-1" d="M12.06,129.26v.33h-.67v3.17H11v-3.17h-.48v-.33H11v-.49c0-.31,0-.93.83-.93l.21,0,0,.33h-.16c-.47,0-.47.29-.47.6v.48Z"/><path class="cls-1" d="M12.71,132.76v-3.5h.37v.51a1.21,1.21,0,0,1,1.17-.61v.34a1,1,0,0,0-.71.18,1.18,1.18,0,0,0-.46,1.12v2Z"/><path class="cls-1" d="M16.55,129.16A1.85,1.85,0,1,1,14.84,131,1.71,1.71,0,0,1,16.55,129.16Zm0,3.36A1.52,1.52,0,1,0,15.21,131,1.34,1.34,0,0,0,16.55,132.52Z"/><path class="cls-1" d="M21.18,132.76v-2c0-.5,0-1.24-.76-1.24-.45,0-1,.28-1,1.21v2h-.38v-3.5h.38v.51a1.13,1.13,0,0,1,1-.61,1,1,0,0,1,1,.65,1.27,1.27,0,0,1,1.11-.65,1,1,0,0,1,1,.66,2.12,2.12,0,0,1,.09.73v2.21h-.37v-2c0-.51,0-1.25-.78-1.25a1,1,0,0,0-.91.6,1.61,1.61,0,0,0-.09.51v2.15Z"/><path class="cls-1" d="M28.21,129.16A1.85,1.85,0,1,1,26.5,131,1.71,1.71,0,0,1,28.21,129.16Zm0,3.36A1.52,1.52,0,1,0,26.88,131,1.35,1.35,0,0,0,28.22,132.52Z"/><path class="cls-1" d="M33.43,129.26v3.5h-.37v-.51a1.28,1.28,0,0,1-1.13.6,1.13,1.13,0,0,1-1.05-.54,2.16,2.16,0,0,1-.16-1.05v-2h.37v2.07c0,.68.12,1.19.88,1.19a1.08,1.08,0,0,0,.93-.5,1.55,1.55,0,0,0,.16-.8v-2Z"/><path class="cls-1" d="M34.56,128.25h.37v1h1.12v.33H34.93v2.22c0,.43,0,.71.63.71a2.71,2.71,0,0,0,.42,0v.33a2.41,2.41,0,0,1-.45,0c-.88,0-1-.44-1-1v-2.21H34.1v-.33h.46Z"/><path class="cls-1" d="M40.55,129.68a1.5,1.5,0,0,0-.73-.18c-.47,0-.84.2-.84.62s.2.5.93.72c.52.15,1,.37,1,1s-.61,1-1.36,1a2.37,2.37,0,0,1-1.08-.24l.13-.33a2,2,0,0,0,1,.24c.53,0,1-.19,1-.69s-.35-.56-1-.75-1-.33-1-.94.54-1,1.22-1a1.75,1.75,0,0,1,.82.19Z"/><path class="cls-1" d="M42.23,128.59h-.48v-.52h.48Zm0,4.17H41.8v-3.5h.38Z"/><path class="cls-1" d="M45.88,132.16a1.4,1.4,0,0,1-1.25.69,1.87,1.87,0,0,1,0-3.69,1.41,1.41,0,0,1,1.25.69v-2h.38v4.92h-.38Zm-1.21-2.66c-.61,0-1.23.41-1.23,1.51s.59,1.51,1.24,1.51,1.21-.44,1.21-1.51S45.3,129.5,44.67,129.5Z"/><path class="cls-1" d="M47.45,131.13a1.29,1.29,0,0,0,1.4,1.39,2.08,2.08,0,0,0,1-.25v.38a2.77,2.77,0,0,1-1,.2,1.86,1.86,0,0,1-.19-3.69A1.42,1.42,0,0,1,50,130a2.79,2.79,0,0,1,.19,1.09Zm2.35-.33c-.07-.89-.57-1.3-1.15-1.3a1.25,1.25,0,0,0-1.2,1.3Z"/><path class="cls-1" d="M54.48,129.16a1.85,1.85,0,1,1-1.7,1.85A1.72,1.72,0,0,1,54.48,129.16Zm0,3.36A1.52,1.52,0,1,0,53.15,131,1.34,1.34,0,0,0,54.49,132.52Z"/><path class="cls-1" d="M58.17,129.26v.33H57.5v3.17h-.38v-3.17h-.48v-.33h.48v-.49c0-.31,0-.93.83-.93l.21,0,0,.33H58c-.47,0-.47.29-.47.6v.48Z"/><path class="cls-1" d="M63.41,132.64a2.3,2.3,0,0,1-1,.21A1.71,1.71,0,0,1,60.62,131a1.73,1.73,0,0,1,1.77-1.85,1.79,1.79,0,0,1,1,.27l-.1.34a1.49,1.49,0,1,0-.86,2.75,2,2,0,0,0,1-.25Z"/><path class="cls-1" d="M64.35,129.44a2.12,2.12,0,0,1,1.07-.28,1.49,1.49,0,0,1,1.18.46,1.26,1.26,0,0,1,.21.85v1.66a1.57,1.57,0,0,0,.12.63h-.39a1.34,1.34,0,0,1-.1-.61,1.56,1.56,0,0,1-1.32.7,1,1,0,0,1-1.11-1c0-.25,0-.91,1.11-1.09.15,0,.85-.12,1-.16a.35.35,0,0,0,.32-.39c0-.49-.5-.69-1-.69a1.86,1.86,0,0,0-1.05.3Zm2.09,1.34c-.15.1-.23.11-.92.21s-1.14.18-1.14.83a.67.67,0,0,0,.77.7,1.42,1.42,0,0,0,1.29-.9Z"/><path class="cls-1" d="M70,132.76v-2c0-.5,0-1.24-.76-1.24-.46,0-1,.28-1,1.21v2h-.37v-3.5h.37v.51a1.13,1.13,0,0,1,1-.61,1,1,0,0,1,1,.65,1.24,1.24,0,0,1,1.1-.65,1,1,0,0,1,1,.66,2.12,2.12,0,0,1,.09.73v2.21h-.37v-2c0-.51,0-1.25-.77-1.25a1,1,0,0,0-.92.6,1.55,1.55,0,0,0-.08.51v2.15Z"/><path class="cls-1" d="M73.5,129.26h.38v.59a1.39,1.39,0,0,1,1.24-.69,1.87,1.87,0,0,1,0,3.69,1.4,1.4,0,0,1-1.24-.69v2.19H73.5Zm1.58,3.26c.61,0,1.24-.41,1.24-1.51s-.59-1.51-1.24-1.51-1.22.43-1.22,1.51S74.46,132.52,75.08,132.52Z"/><path class="cls-1" d="M80.21,129.26v3.5h-.38v-.51a1.28,1.28,0,0,1-1.12.6,1.13,1.13,0,0,1-1-.54,2,2,0,0,1-.17-1.05v-2h.38v2.07c0,.68.12,1.19.87,1.19a1.07,1.07,0,0,0,.93-.5,1.55,1.55,0,0,0,.16-.8v-2Z"/><path class="cls-1" d="M83.05,129.68a1.5,1.5,0,0,0-.73-.18c-.48,0-.84.2-.84.62s.2.5.93.72c.52.15,1,.37,1,1s-.61,1-1.36,1a2.37,2.37,0,0,1-1.08-.24l.13-.33a2,2,0,0,0,1,.24c.52,0,1-.19,1-.69s-.34-.56-1-.75-1-.33-1-.94.54-1,1.21-1a1.76,1.76,0,0,1,.83.19Z"/><path class="cls-1" d="M128.25,138.08h-.4v-4.34h-1.64v-.35h3.67v.35h-1.63Z"/><path class="cls-1" d="M130.5,138.08v-4.92h.37v1.93a1.28,1.28,0,0,1,1.13-.61,1.16,1.16,0,0,1,1.05.54,2.12,2.12,0,0,1,.16,1.06v2h-.37v-2c0-.59,0-1.3-.88-1.3a1.09,1.09,0,0,0-.93.49,1.56,1.56,0,0,0-.16.81v2Z"/><path class="cls-1" d="M134.39,136.45a1.28,1.28,0,0,0,1.4,1.39,2.08,2.08,0,0,0,1-.25V138a2.53,2.53,0,0,1-1.05.21,1.86,1.86,0,0,1-.18-3.7,1.4,1.4,0,0,1,1.33.88,2.68,2.68,0,0,1,.2,1.09Zm2.36-.33c-.07-.88-.58-1.3-1.16-1.3a1.25,1.25,0,0,0-1.2,1.3Z"/><path class="cls-1" d="M140.47,133.39v4.69h-.41v-4.69Z"/><path class="cls-1" d="M141.6,138.08v-3.5H142v.51a1.3,1.3,0,0,1,1.13-.61,1.15,1.15,0,0,1,1.05.54,2,2,0,0,1,.16,1.06v2h-.37v-2c0-.59,0-1.3-.87-1.3a1.05,1.05,0,0,0-.93.49,1.42,1.42,0,0,0-.17.81v2Z"/><path class="cls-1" d="M145.44,133.58h.37v1h1.12v.33h-1.12v2.22c0,.43,0,.71.63.71a3.94,3.94,0,0,0,.42,0v.33a3.79,3.79,0,0,1-.45,0c-.88,0-1-.45-1-1.06v-2.21H145v-.33h.45Z"/><path class="cls-1" d="M147.78,136.45a1.28,1.28,0,0,0,1.4,1.39,2.08,2.08,0,0,0,1-.25V138a2.57,2.57,0,0,1-1.05.21,1.86,1.86,0,0,1-.19-3.7,1.42,1.42,0,0,1,1.34.88,2.81,2.81,0,0,1,.19,1.09Zm2.35-.33c-.07-.88-.57-1.3-1.15-1.3a1.25,1.25,0,0,0-1.2,1.3Z"/><path class="cls-1" d="M151.31,138.08v-3.5h.38v.51a1.2,1.2,0,0,1,1.16-.61v.34a1,1,0,0,0-.71.18,1.17,1.17,0,0,0-.45,1.12v2Z"/><path class="cls-1" d="M153.66,138.08v-3.5H154v.51a1.3,1.3,0,0,1,1.13-.61,1.13,1.13,0,0,1,1,.54,2,2,0,0,1,.17,1.06v2H156v-2c0-.59,0-1.3-.87-1.3a1.07,1.07,0,0,0-.93.49,1.41,1.41,0,0,0-.16.81v2Z"/><path class="cls-1" d="M157.55,136.45a1.28,1.28,0,0,0,1.4,1.39,2.08,2.08,0,0,0,1-.25V138a2.53,2.53,0,0,1-1.05.21,1.86,1.86,0,0,1-.18-3.7,1.41,1.41,0,0,1,1.33.88,2.64,2.64,0,0,1,.19,1.09Zm2.36-.33c-.08-.88-.58-1.3-1.16-1.3a1.25,1.25,0,0,0-1.2,1.3Z"/><path class="cls-1" d="M161.22,133.58h.37v1h1.11v.33h-1.11v2.22c0,.43,0,.71.63.71a4.15,4.15,0,0,0,.42,0v.33a4,4,0,0,1-.45,0c-.88,0-1-.45-1-1.06v-2.21h-.46v-.33h.46Z"/><path class="cls-1" d="M233.29,125.53a3,3,0,0,1-1.38.32,2.44,2.44,0,1,1,0-4.88,2.5,2.5,0,0,1,1.38.39l-.14.35a2.09,2.09,0,0,0-1.24-.39,2.09,2.09,0,1,0,.06,4.18,2.25,2.25,0,0,0,1.35-.4Z"/><path class="cls-1" d="M234.22,122.43a2.24,2.24,0,0,1,1.08-.27,1.5,1.5,0,0,1,1.18.46,1.3,1.3,0,0,1,.21.84v1.66a1.43,1.43,0,0,0,.12.64h-.39a1.37,1.37,0,0,1-.1-.61,1.59,1.59,0,0,1-1.33.7,1,1,0,0,1-1.1-1c0-.25,0-.91,1.1-1.1l1-.15a.35.35,0,0,0,.32-.39c0-.49-.49-.7-1-.7a1.82,1.82,0,0,0-1.05.31Zm2.09,1.35c-.15.1-.23.11-.92.21s-1.13.18-1.13.83a.67.67,0,0,0,.76.7,1.43,1.43,0,0,0,1.29-.91Z"/><path class="cls-1" d="M239.83,125.76v-2c0-.5,0-1.25-.76-1.25-.46,0-1,.29-1,1.21v2.06h-.38v-3.51h.38v.51a1.12,1.12,0,0,1,1-.6,1,1,0,0,1,1,.64,1.26,1.26,0,0,1,1.11-.64,1,1,0,0,1,1,.66,2.06,2.06,0,0,1,.09.73v2.21H242v-2c0-.51,0-1.26-.78-1.26a.94.94,0,0,0-.91.61,1.55,1.55,0,0,0-.09.5v2.16Z"/><path class="cls-1" d="M243.37,122.25h.38v.6a1.41,1.41,0,0,1,1.25-.69,1.87,1.87,0,0,1,0,3.69,1.42,1.42,0,0,1-1.25-.69v2.19h-.38Zm1.58,3.27c.61,0,1.24-.41,1.24-1.52s-.59-1.51-1.24-1.51-1.21.44-1.21,1.51S244.33,125.52,245,125.52Z"/><path class="cls-1" d="M250.08,122.25v3.51h-.37v-.51a1.28,1.28,0,0,1-1.13.6,1.13,1.13,0,0,1-1.05-.54,2.16,2.16,0,0,1-.16-1v-2h.37v2.08c0,.68.12,1.19.88,1.19a1.08,1.08,0,0,0,.93-.5,1.59,1.59,0,0,0,.16-.81v-2Z"/><path class="cls-1" d="M252.92,122.67a1.59,1.59,0,0,0-.73-.18c-.47,0-.84.21-.84.63s.21.5.93.72c.52.15,1,.37,1,1s-.62,1-1.37,1a2.46,2.46,0,0,1-1.07-.24l.12-.33a2.12,2.12,0,0,0,1,.24c.53,0,1-.2,1-.69s-.34-.56-1-.75-1-.33-1-1,.54-1,1.22-1a1.91,1.91,0,0,1,.82.18Z"/><path class="cls-1" d="M256.69,121.07l3,4.37v-4.37h.39v4.69h-.61l-3-4.38v4.38h-.39v-4.69Z"/><path class="cls-1" d="M261.26,124.13a1.29,1.29,0,0,0,1.4,1.39,2.08,2.08,0,0,0,1-.25v.38a2.77,2.77,0,0,1-1.05.2,1.86,1.86,0,0,1-.19-3.69,1.4,1.4,0,0,1,1.34.88,2.61,2.61,0,0,1,.19,1.09Zm2.36-.34c-.08-.88-.58-1.3-1.16-1.3a1.25,1.25,0,0,0-1.2,1.3Z"/><path class="cls-1" d="M264.92,121.25h.38v1h1.11v.34H265.3v2.22c0,.43,0,.71.63.71a2.78,2.78,0,0,0,.42,0v.33a4,4,0,0,1-.45,0c-.89,0-1-.44-1-1v-2.21h-.45v-.34h.45Z"/><path class="cls-1" d="M270.45,125.35l1-3.1h.39l-1.17,3.51h-.45l-1-3.24-.94,3.24h-.46l-1.17-3.51h.39l1,3.1.91-3.1h.53Z"/><path class="cls-1" d="M274,122.16a1.85,1.85,0,1,1-1.71,1.84A1.71,1.71,0,0,1,274,122.16Zm0,3.36a1.53,1.53,0,1,0-1.34-1.52A1.35,1.35,0,0,0,274,125.52Z"/><path class="cls-1" d="M276.46,125.76v-3.51h.38v.51a1.17,1.17,0,0,1,1.16-.6v.34a1,1,0,0,0-.7.18,1.15,1.15,0,0,0-.46,1.11v2Z"/><path class="cls-1" d="M279.17,123.65l1.6-1.4h.52l-1.67,1.45,1.92,2.06H281l-1.87-2v2h-.37v-4.92h.37Z"/><circle class="cls-5" cx="144.91" cy="94.05" r="33.1"/><circle class="cls-6" cx="125.04" cy="77.59" r="5"/><circle class="cls-6" cx="121.46" cy="100.92" r="5"/><circle class="cls-6" cx="149.48" cy="120.76" r="5"/><circle class="cls-6" cx="157.63" cy="70.22" r="5"/><circle class="cls-6" cx="147.13" cy="94.05" r="5"/><circle class="cls-6" cx="170.8" cy="100.02" r="5"/><polygon class="cls-7" points="121.46 100.92 125.03 77.59 157.63 70.22 170.8 100.02 149.48 121.34 121.46 100.92"/><polyline class="cls-7" points="122.02 65.22 125.03 77.59 147.13 94.05 121.46 100.92 117.62 116.78"/><polyline class="cls-7" points="167 64.08 157.63 71 147.13 94.05 149.48 121.34 144.48 130.83"/><polyline class="cls-7" points="179.72 100.92 170.8 100.02 147.13 94.05"/><path class="cls-1" d="M62.36,97.59a.53.53,0,0,1-.52.49H38.42a.45.45,0,0,1-.45-.49l1.09-16.92a.52.52,0,0,1,.52-.48H63a.45.45,0,0,1,.46.48Z"/><path class="cls-1" d="M56.46,105.54a1.16,1.16,0,0,1-.79.38H32.25c-.27,0-.36-.17-.19-.38l5.57-7.08a1.14,1.14,0,0,1,.79-.38H61.84c.27,0,.35.17.19.38Z"/><path class="cls-3" d="M60.67,95.94a.54.54,0,0,1-.53.49H40.32a.45.45,0,0,1-.45-.49L41,82.07a.53.53,0,0,1,.52-.49H61.3a.45.45,0,0,1,.45.49Z"/><ellipse class="cls-8" cx="257.52" cy="100.92" rx="35.28" ry="12.38"/><path class="cls-1" d="M235.41,107.13V71.93a.49.49,0,0,1,.49-.49h15.24a.49.49,0,0,1,.49.49V83.31a.49.49,0,0,0,.49.49H275a.49.49,0,0,1,.49.49v22.84"/><circle class="cls-6" cx="243.34" cy="78.8" r="5"/><path class="cls-9" d="M243.34,74.13v4.18a.49.49,0,0,0,.49.49h2.7"/><line class="cls-9" x1="69.25" y1="93.05" x2="80.46" y2="93.05"/><polygon class="cls-1" points="72.56 97.14 73.25 96.41 69.63 93.05 73.25 89.7 72.56 88.96 68.17 93.05 72.56 97.14"/><line class="cls-9" x1="219.75" y1="93.05" x2="209.85" y2="93.05"/><polygon class="cls-1" points="216.43 88.96 215.75 89.69 219.36 93.05 215.75 96.41 216.43 97.14 220.83 93.05 216.43 88.96"/></g></svg>