<svg xmlns="http://www.w3.org/2000/svg" viewBox="0 0 311.81 212"><defs><style>.cls-1{fill:#dac6e0;}.cls-2{fill:#231815;}.cls-3{fill:#b1dff7;}.cls-4{fill:none;stroke:#b1dff7;stroke-miterlimit:10;}</style></defs><title>win10-4</title><g id="レイヤー_1" data-name="レイヤー 1"><rect class="cls-1" x="90.95" y="69.09" width="101.48" height="22.5" rx="5.67"/><path class="cls-2" d="M103.3,79.51v-3h.6v7h-.6V80H99.39v3.48h-.6v-7h.6v3Z"/><path class="cls-2" d="M106.2,76.48v7h-.62v-7Z"/><path class="cls-2" d="M109.93,76.48a1.92,1.92,0,1,1,.09,3.83l2.47,3.21h-.69l-2.44-3.21h-.89v3.21h-.59v-7Zm-1.46.53v2.78h1.19c.45,0,1.8,0,1.8-1.39S110.2,77,109.66,77Z"/><path class="cls-2" d="M116.72,76.34A3.67,3.67,0,1,1,113.07,80,3.57,3.57,0,0,1,116.72,76.34Zm0,6.79A3.13,3.13,0,1,0,113.65,80,3,3,0,0,0,116.72,83.13Z"/><path class="cls-2" d="M121.54,76.48h2.57a4.81,4.81,0,0,1,1.8.27A3.2,3.2,0,0,1,127.83,80a3.44,3.44,0,0,1-1.32,2.94,4,4,0,0,1-2.43.58h-2.54Zm.59,6.51h1.94a3.5,3.5,0,0,0,2.09-.49A3,3,0,0,0,127.23,80a2.74,2.74,0,0,0-3.15-3h-2Z"/><path class="cls-2" d="M129.9,81.31,129,83.52h-.63l2.79-7H132l2.8,7h-.64l-.87-2.21Zm3.17-.52L131.59,77l-1.49,3.8Z"/><path class="cls-2" d="M136.53,76.48v7h-.62v-7Z"/><path class="cls-2" d="M141.23,78.26h.56v.9a2.13,2.13,0,0,1,1.88-1c1.27,0,2.36.95,2.36,2.77s-1.11,2.78-2.36,2.78a2.15,2.15,0,0,1-1.88-1v3.29h-.56Zm2.36,4.9c.92,0,1.87-.61,1.87-2.27s-.88-2.27-1.87-2.27-1.81.65-1.81,2.27S142.67,83.16,143.59,83.16Z"/><path class="cls-2" d="M147.42,78.53a3.27,3.27,0,0,1,1.61-.41,2.24,2.24,0,0,1,1.77.69,1.89,1.89,0,0,1,.32,1.27v2.5a2.11,2.11,0,0,0,.18.94h-.59a2.13,2.13,0,0,1-.15-.91,2.35,2.35,0,0,1-2,1.06,1.5,1.5,0,0,1-1.65-1.54c0-.37,0-1.36,1.65-1.64.24,0,1.29-.18,1.5-.24a.52.52,0,0,0,.48-.58c0-.74-.74-1-1.5-1a2.8,2.8,0,0,0-1.58.46Zm3.13,2c-.22.14-.34.16-1.38.32s-1.7.26-1.7,1.24c0,.41.19,1,1.15,1a2.14,2.14,0,0,0,1.93-1.35Z"/><path class="cls-2" d="M155.39,78.89a2.35,2.35,0,0,0-1.09-.27c-.72,0-1.26.31-1.26.94s.3.76,1.39,1.08c.78.24,1.48.56,1.48,1.49s-.92,1.54-2,1.54a3.66,3.66,0,0,1-1.62-.37l.19-.5a3,3,0,0,0,1.44.36c.79,0,1.47-.29,1.47-1s-.51-.84-1.43-1.13c-.75-.23-1.43-.49-1.43-1.41s.81-1.47,1.82-1.47a2.78,2.78,0,0,1,1.24.28Z"/><path class="cls-2" d="M159.89,78.89a2.35,2.35,0,0,0-1.09-.27c-.72,0-1.26.31-1.26.94s.3.76,1.39,1.08c.78.24,1.48.56,1.48,1.49s-.92,1.54-2,1.54a3.66,3.66,0,0,1-1.62-.37l.19-.5a3,3,0,0,0,1.44.36c.79,0,1.47-.29,1.47-1s-.51-.84-1.43-1.13c-.75-.23-1.43-.49-1.43-1.41s.81-1.47,1.82-1.47a2.78,2.78,0,0,1,1.24.28Z"/><path class="cls-2" d="M166.69,82.92l1.52-4.66h.58L167,83.52h-.67l-1.44-4.86-1.42,4.86h-.68l-1.76-5.26h.58l1.52,4.66,1.37-4.66h.79Z"/><path class="cls-2" d="M172,78.12a2.78,2.78,0,1,1-2.56,2.77A2.58,2.58,0,0,1,172,78.12Zm0,5a2.29,2.29,0,1,0-2-2.27A2,2,0,0,0,172,83.16Z"/><path class="cls-2" d="M175.71,83.52V78.26h.56V79a1.79,1.79,0,0,1,1.75-.91v.51a1.56,1.56,0,0,0-1.06.27,1.77,1.77,0,0,0-.69,1.68v2.94Z"/><path class="cls-2" d="M183.14,82.63a2.11,2.11,0,0,1-1.87,1c-1.25,0-2.36-.94-2.36-2.78s1.09-2.77,2.36-2.77a2.12,2.12,0,0,1,1.87,1v-3h.57v7.38h-.57Zm-1.81-4c-.93,0-1.85.63-1.85,2.27s.88,2.27,1.86,2.27,1.82-.66,1.82-2.27S182.27,78.62,181.33,78.62Z"/><rect class="cls-3" x="85.68" y="4.13" width="113.5" height="35.24"/><rect class="cls-3" x="14.1" y="87.13" width="101.48" height="35.24"/><rect class="cls-3" x="157.19" y="87.13" width="122.7" height="35.24"/><path class="cls-2" d="M101.14,10.61a3.19,3.19,0,0,0-1.68-.48,1.68,1.68,0,0,0-1.81,1.66c0,1,.76,1.33,1.86,1.73s2.35.83,2.35,2.47-1.33,2.45-2.94,2.45a4.42,4.42,0,0,1-2.3-.63l.22-.64a3.77,3.77,0,0,0,2.06.62c1,0,2.23-.44,2.23-1.77s-.91-1.54-1.88-1.89-2.32-.82-2.32-2.32a2.34,2.34,0,0,1,2.54-2.33,4.13,4.13,0,0,1,1.86.46Z"/><path class="cls-2" d="M103.63,10h.68v1.83h2v.62h-2v4.07c0,.79,0,1.3,1.15,1.3a6.72,6.72,0,0,0,.77,0v.6a6.17,6.17,0,0,1-.82.06c-1.62,0-1.78-.82-1.78-1.94V12.45h-.84v-.62h.84Z"/><path class="cls-2" d="M112.56,11.83v6.43h-.68v-.94a2.38,2.38,0,0,1-2.07,1.12,2.14,2.14,0,0,1-1.93-1,4,4,0,0,1-.29-1.94V11.83h.68v3.81c0,1.24.22,2.18,1.61,2.18a2,2,0,0,0,1.7-.91,2.89,2.89,0,0,0,.3-1.48v-3.6Z"/><path class="cls-2" d="M119.19,17.17a2.57,2.57,0,0,1-2.29,1.27c-1.52,0-2.88-1.15-2.88-3.39s1.33-3.39,2.88-3.39a2.6,2.6,0,0,1,2.29,1.26V9.24h.7v9h-.7ZM117,12.27c-1.13,0-2.26.77-2.26,2.78s1.07,2.77,2.27,2.77,2.22-.8,2.22-2.77S118.13,12.27,117,12.27Z"/><path class="cls-2" d="M122.06,15.28a2.37,2.37,0,0,0,2.58,2.54,3.82,3.82,0,0,0,1.9-.45v.69a4.8,4.8,0,0,1-1.92.38,3.07,3.07,0,0,1-3.24-3.35c0-1.87,1.07-3.43,2.89-3.43a2.58,2.58,0,0,1,2.46,1.62,5,5,0,0,1,.35,2Zm4.33-.62c-.14-1.62-1.06-2.39-2.13-2.39a2.31,2.31,0,0,0-2.2,2.39Z"/><path class="cls-2" d="M128.56,18.26V11.83h.69v.94a2.36,2.36,0,0,1,2.06-1.11,2.11,2.11,0,0,1,1.93,1,3.8,3.8,0,0,1,.3,1.94v3.67h-.69v-3.6c0-1.08,0-2.39-1.6-2.39a2,2,0,0,0-1.71.92,2.63,2.63,0,0,0-.29,1.47v3.6Z"/><path class="cls-2" d="M135.6,10h.69v1.83h2v.62h-2v4.07c0,.79,0,1.3,1.15,1.3a6.81,6.81,0,0,0,.77,0v.6a6.47,6.47,0,0,1-.82.06c-1.62,0-1.79-.82-1.79-1.94V12.45h-.83v-.62h.83Z"/><path class="cls-2" d="M144.33,9.66l5.53,8v-8h.72v8.6h-1.14l-5.53-8v8h-.72V9.66Z"/><path class="cls-2" d="M157.36,11.83v6.43h-.68v-.94a2.38,2.38,0,0,1-2.07,1.12,2.11,2.11,0,0,1-1.92-1,3.87,3.87,0,0,1-.3-1.94V11.83h.68v3.81c0,1.24.22,2.18,1.61,2.18a2,2,0,0,0,1.7-.91,2.79,2.79,0,0,0,.3-1.48v-3.6Z"/><path class="cls-2" d="M163.11,18.26v-3.7c0-.92,0-2.29-1.39-2.29-.84,0-1.83.52-1.83,2.23v3.76h-.68V11.83h.68v.94a2.1,2.1,0,0,1,1.89-1.11,1.86,1.86,0,0,1,1.86,1.19,2.3,2.3,0,0,1,2-1.19,1.86,1.86,0,0,1,1.9,1.22,3.66,3.66,0,0,1,.17,1.33v4.05h-.69V14.57c0-.92,0-2.3-1.41-2.3A1.72,1.72,0,0,0,164,13.39a2.81,2.81,0,0,0-.16.92v4Z"/><path class="cls-2" d="M170.3,18.26h-.7v-9h.7v3.68a2.6,2.6,0,0,1,2.29-1.26c1.55,0,2.88,1.17,2.88,3.39s-1.36,3.39-2.88,3.39a2.57,2.57,0,0,1-2.29-1.27Zm2.2-.44c1.19,0,2.28-.83,2.28-2.77s-1.14-2.78-2.28-2.78-2.22.79-2.22,2.78S171.33,17.82,172.5,17.82Z"/><path class="cls-2" d="M177.25,15.28a2.36,2.36,0,0,0,2.57,2.54,3.86,3.86,0,0,0,1.91-.45v.69a4.92,4.92,0,0,1-1.93.38,3.06,3.06,0,0,1-3.23-3.35c0-1.87,1.06-3.43,2.89-3.43a2.56,2.56,0,0,1,2.45,1.62,5,5,0,0,1,.36,2Zm4.32-.62c-.13-1.62-1-2.39-2.12-2.39a2.31,2.31,0,0,0-2.2,2.39Z"/><path class="cls-2" d="M183.73,18.26V11.83h.69v.94a2.19,2.19,0,0,1,2.14-1.11v.63a1.79,1.79,0,0,0-1.3.33,2.13,2.13,0,0,0-.84,2v3.6Z"/><path class="cls-2" d="M121.4,24.86c.75,0,2.66,0,2.66,1.94a1.9,1.9,0,0,1-1.23,1.85,2,2,0,0,1,1.51,2c0,2.19-2.15,2.19-2.87,2.19H119v-8Zm-1.73.6v2.93h1.78c.57,0,1.94,0,1.94-1.51s-1.19-1.42-2.07-1.42Zm0,3.51v3.26h1.72c.77,0,2.28,0,2.28-1.57S122.09,29,121.5,29Z"/><path class="cls-2" d="M128.17,24.86h.67v8h-.68V25.61l-1.62,1.1-.09-.67Z"/><path class="cls-2" d="M133.06,32.24a2.9,2.9,0,0,0,3.32-1.12,5.22,5.22,0,0,0,.7-2.48,2.61,2.61,0,0,1-2.34,1.29,2.47,2.47,0,0,1-2.57-2.56,2.57,2.57,0,0,1,2.67-2.67c1.2,0,2.87.68,2.87,3.57,0,3.2-1.65,4.73-3.72,4.73a2.52,2.52,0,0,1-.93-.17Zm1.74-2.9a2,2,0,1,0,.06-4,1.94,1.94,0,0,0-2,2A1.87,1.87,0,0,0,134.8,29.34Z"/><path class="cls-2" d="M141.62,24.86h.67v8h-.68V25.61L140,26.71,139.9,26Z"/><path class="cls-2" d="M151.06,32.23v.6h-5.44c.73-.72,2-2,3.06-3.25A4.12,4.12,0,0,0,150,26.94a1.57,1.57,0,0,0-1.62-1.64,2.37,2.37,0,0,0-2.07,1.28l-.28-.69a2.83,2.83,0,0,1,2.32-1.19,2.18,2.18,0,0,1,2.32,2.22,3.8,3.8,0,0,1-1.1,2.54c-.4.5-1.2,1.42-2.51,2.77Z"/><path class="cls-2" d="M152.6,31.81a4,4,0,0,0,2.17.58c1.76,0,2.37-1,2.37-1.83,0-.51-.26-1.68-2.41-1.68h-.54V28.3h.55a1.69,1.69,0,0,0,1.88-1.56,1.5,1.5,0,0,0-1.68-1.44,2.76,2.76,0,0,0-2,.84l-.24-.6A3.38,3.38,0,0,1,155,24.7a2.11,2.11,0,0,1,2.33,2,1.88,1.88,0,0,1-1.36,1.82,2.11,2.11,0,0,1,1.88,2.09c0,1.06-.78,2.38-3,2.38a5,5,0,0,1-2.37-.59Z"/><path class="cls-2" d="M162.9,32.83V31H159V30.4l3.81-5.54h.71V30.4h1.13V31h-1.13v1.85Zm-3.16-2.43h3.16V25.8Z"/><path class="cls-2" d="M38.27,97.85v-3.7H39v8.6h-.73V98.49H33.49v4.26h-.73v-8.6h.73v3.7Z"/><path class="cls-2" d="M41.82,94.15v8.6h-.76v-8.6Z"/><path class="cls-2" d="M46.37,94.15a2.34,2.34,0,1,1,.11,4.67l3,3.93h-.84l-3-3.93H44.59v3.93h-.72v-8.6Zm-1.78.65v3.39H46c.56,0,2.2,0,2.2-1.7S46.71,94.8,46,94.8Z"/><path class="cls-2" d="M54.67,94a4.48,4.48,0,1,1-4.46,4.48A4.36,4.36,0,0,1,54.67,94Zm0,8.31a3.83,3.83,0,1,0-3.75-3.83A3.74,3.74,0,0,0,54.67,102.28Z"/><path class="cls-2" d="M60.56,94.15h3.15a6,6,0,0,1,2.2.33c1.53.57,2.34,2,2.34,4A4.23,4.23,0,0,1,66.64,102a5,5,0,0,1-3,.71H60.56Zm.73,7.95h2.36a4.26,4.26,0,0,0,2.56-.6,3.61,3.61,0,0,0,1.31-3c0-3.66-2.91-3.66-3.85-3.66H61.29Z"/><path class="cls-2" d="M70.78,100.05l-1.06,2.7H69l3.41-8.6h1l3.41,8.6H76l-1.06-2.7Zm3.88-.64-1.81-4.63L71,99.41Z"/><path class="cls-2" d="M78.88,94.15v8.6h-.75v-8.6Z"/><path class="cls-2" d="M85.61,94.15v8.6h-.76v-8.6Z"/><path class="cls-2" d="M87.65,94.15H90.8a6,6,0,0,1,2.2.33c1.53.57,2.34,2,2.34,4a4.22,4.22,0,0,1-1.6,3.59,5,5,0,0,1-3,.71H87.65Zm.73,7.95h2.36a4.31,4.31,0,0,0,2.57-.6,3.64,3.64,0,0,0,1.31-3c0-3.66-2.92-3.66-3.85-3.66H88.38Z"/><path class="cls-2" d="M43.55,109.35c.75,0,2.65,0,2.65,1.94A1.92,1.92,0,0,1,45,113.15a1.94,1.94,0,0,1,1.51,2c0,2.19-2.15,2.19-2.87,2.19H41.16v-8Zm-1.73.61v2.92H43.6c.57,0,1.94,0,1.94-1.51S44.35,110,43.47,110Zm0,3.5v3.26h1.72c.77,0,2.28,0,2.28-1.57s-1.58-1.69-2.17-1.69Z"/><path class="cls-2" d="M50.32,109.35H51v8h-.68V110.1l-1.62,1.1-.09-.66Z"/><path class="cls-2" d="M55.21,116.73a2.47,2.47,0,0,0,.93.16,2.71,2.71,0,0,0,2.39-1.28,5.31,5.31,0,0,0,.7-2.48,2.61,2.61,0,0,1-2.34,1.29,2.47,2.47,0,0,1-2.57-2.56A2.56,2.56,0,0,1,57,109.19c1.21,0,2.88.68,2.88,3.57,0,3.2-1.65,4.73-3.72,4.73a2.33,2.33,0,0,1-.93-.17Zm1.74-2.9a2,2,0,1,0,0-4,1.94,1.94,0,0,0-2,2A1.87,1.87,0,0,0,57,113.83Z"/><path class="cls-2" d="M63.77,109.35h.67v8h-.68V110.1l-1.62,1.1-.09-.66Z"/><path class="cls-2" d="M73.21,116.72v.6H67.77c.73-.72,2-2,3.06-3.25a4.12,4.12,0,0,0,1.34-2.64,1.57,1.57,0,0,0-1.62-1.64,2.36,2.36,0,0,0-2.07,1.29l-.28-.7a2.83,2.83,0,0,1,2.32-1.19,2.18,2.18,0,0,1,2.32,2.22,3.8,3.8,0,0,1-1.1,2.54c-.4.5-1.2,1.42-2.51,2.77Z"/><path class="cls-2" d="M74.75,116.3a4,4,0,0,0,2.17.59c1.76,0,2.37-1,2.37-1.84,0-.51-.26-1.68-2.41-1.68h-.54v-.58h.55a1.69,1.69,0,0,0,1.88-1.56,1.5,1.5,0,0,0-1.68-1.44,2.76,2.76,0,0,0-2,.84l-.24-.59a3.39,3.39,0,0,1,2.21-.85,2.11,2.11,0,0,1,2.33,2A1.88,1.88,0,0,1,78.07,113,2.11,2.11,0,0,1,80,115.11c0,1.06-.78,2.38-3,2.38a5.11,5.11,0,0,1-2.37-.58Z"/><path class="cls-2" d="M85.05,117.32v-1.85H81.19v-.58L85,109.35h.71v5.54h1.13v.58H85.71v1.85Zm-3.16-2.43h3.16v-4.6Z"/><path class="cls-2" d="M184,94.15v8.6h-.75v-8.6Z"/><path class="cls-2" d="M187.81,94.15l2.68,8.13,2.69-8.13h1.19l1.25,8.6h-.72l-1.17-8.14-2.7,8.14H190l-2.71-8.14-1.16,8.14h-.72l1.25-8.6Z"/><path class="cls-2" d="M203.59,102.34a5.37,5.37,0,0,1-2.52.59,4.48,4.48,0,1,1-.06-9,4.65,4.65,0,0,1,2.54.72l-.27.65a3.84,3.84,0,1,0-2.16,6.94,4.08,4.08,0,0,0,2.47-.73Z"/><path class="cls-2" d="M210,96.66a3.94,3.94,0,0,1,2-.51,2.74,2.74,0,0,1,2.17.85,2.35,2.35,0,0,1,.38,1.55v3a2.67,2.67,0,0,0,.22,1.15H214a2.38,2.38,0,0,1-.19-1.11,2.88,2.88,0,0,1-2.43,1.29,1.83,1.83,0,0,1-2-1.87c0-.46,0-1.67,2-2,.29-.05,1.57-.22,1.84-.28a.65.65,0,0,0,.58-.72c0-.9-.9-1.27-1.84-1.27a3.36,3.36,0,0,0-1.92.56Zm3.83,2.47c-.27.18-.42.2-1.68.39s-2.08.32-2.08,1.52a1.22,1.22,0,0,0,1.4,1.27,2.61,2.61,0,0,0,2.36-1.65Z"/><path class="cls-2" d="M221.11,102.54a4.13,4.13,0,0,1-1.83.39A3.14,3.14,0,0,1,216,99.54a3.18,3.18,0,0,1,3.24-3.39,3.26,3.26,0,0,1,1.84.5l-.2.62a2.42,2.42,0,0,0-1.61-.5,2.77,2.77,0,0,0,0,5.54,3.51,3.51,0,0,0,1.79-.46Z"/><path class="cls-2" d="M227.33,102.54a4.2,4.2,0,0,1-1.84.39,3.14,3.14,0,0,1-3.28-3.39,3.18,3.18,0,0,1,3.25-3.39,3.26,3.26,0,0,1,1.84.5l-.2.62a2.45,2.45,0,0,0-1.62-.5,2.78,2.78,0,0,0,.06,5.54,3.51,3.51,0,0,0,1.79-.46Z"/><path class="cls-2" d="M231.54,96.15a3.4,3.4,0,1,1-3.13,3.39A3.15,3.15,0,0,1,231.54,96.15Zm0,6.16a2.79,2.79,0,1,0-2.45-2.77A2.46,2.46,0,0,0,231.55,102.31Z"/><path class="cls-2" d="M241.11,96.33v6.42h-.68v-.93a2.37,2.37,0,0,1-2.07,1.11,2.09,2.09,0,0,1-1.92-1,3.84,3.84,0,0,1-.3-1.94V96.33h.68v3.8c0,1.25.22,2.18,1.61,2.18a1.94,1.94,0,0,0,1.7-.91,2.79,2.79,0,0,0,.3-1.48V96.33Z"/><path class="cls-2" d="M243,102.75V96.33h.68v.93a2.41,2.41,0,0,1,2.07-1.11,2.09,2.09,0,0,1,1.92,1,3.7,3.7,0,0,1,.3,1.94v3.67h-.68v-3.6c0-1.07,0-2.38-1.61-2.38a1.94,1.94,0,0,0-1.7.91,2.57,2.57,0,0,0-.3,1.47v3.6Z"/><path class="cls-2" d="M250,94.49h.68v1.84h2v.61h-2V101c0,.8,0,1.3,1.16,1.3a6.91,6.91,0,0,0,.77,0v.6a6.51,6.51,0,0,1-.83.06c-1.61,0-1.78-.82-1.78-1.94v-4h-.84v-.61H250Z"/><path class="cls-2" d="M195.47,117.32h-.64V109h.64v3.41a2.41,2.41,0,0,1,2.12-1.17c1.44,0,2.67,1.08,2.67,3.14s-1.25,3.14-2.67,3.14a2.4,2.4,0,0,1-2.12-1.17Zm2-.4c1.1,0,2.11-.77,2.11-2.57s-1.05-2.57-2.11-2.57-2.06.72-2.06,2.57S196.43,116.92,197.51,116.92Z"/><path class="cls-2" d="M204.07,109.35h.68v8h-.69V110.1l-1.62,1.1-.09-.66Z"/><path class="cls-2" d="M209,116.73a2.47,2.47,0,0,0,.93.16,2.75,2.75,0,0,0,2.4-1.28,5.28,5.28,0,0,0,.69-2.48,2.6,2.6,0,0,1-2.34,1.29,2.46,2.46,0,0,1-2.56-2.56,2.56,2.56,0,0,1,2.66-2.67c1.2,0,2.87.68,2.87,3.57,0,3.2-1.65,4.73-3.72,4.73a2.33,2.33,0,0,1-.93-.17Zm1.75-2.9a2,2,0,1,0,0-4,1.94,1.94,0,0,0-2,2A1.87,1.87,0,0,0,210.71,113.83Z"/><path class="cls-2" d="M217.52,109.35h.68v8h-.69V110.1l-1.62,1.1-.09-.66Z"/><path class="cls-2" d="M227,116.72v.6h-5.44c.73-.72,2-2,3.07-3.25a4.15,4.15,0,0,0,1.33-2.64,1.57,1.57,0,0,0-1.62-1.64,2.36,2.36,0,0,0-2.07,1.29l-.27-.7a2.8,2.8,0,0,1,2.31-1.19,2.18,2.18,0,0,1,2.32,2.22,3.8,3.8,0,0,1-1.1,2.54c-.4.5-1.2,1.42-2.51,2.77Z"/><path class="cls-2" d="M228.5,116.3a4,4,0,0,0,2.17.59c1.76,0,2.37-1,2.37-1.84,0-.51-.26-1.68-2.41-1.68h-.54v-.58h.55a1.69,1.69,0,0,0,1.88-1.56,1.5,1.5,0,0,0-1.68-1.44,2.76,2.76,0,0,0-2,.84l-.24-.59a3.41,3.41,0,0,1,2.21-.85,2.11,2.11,0,0,1,2.34,2,1.89,1.89,0,0,1-1.37,1.82,2.12,2.12,0,0,1,1.89,2.09c0,1.06-.79,2.38-3,2.38a5.11,5.11,0,0,1-2.37-.58Z"/><path class="cls-2" d="M238.8,117.32v-1.85h-3.86v-.58l3.81-5.54h.71v5.54h1.13v.58h-1.13v1.85Zm-3.16-2.43h3.16v-4.6Z"/><polyline class="cls-4" points="63.14 82.9 63.14 59.75 218.54 59.75 218.54 82.9"/><polygon class="cls-3" points="63.14 87.13 65.58 81.16 63.14 82.58 60.7 81.16 63.14 87.13"/><polygon class="cls-3" points="218.54 87.13 216.1 81.16 218.54 82.58 220.98 81.16 218.54 87.13"/><line class="cls-4" x1="141.69" y1="39.37" x2="141.69" y2="59.75"/><path class="cls-2" d="M12.73,132.83v.61H9.06v3.78H8.4v-8h4.68v.6h-4v3Z"/><path class="cls-2" d="M17.17,131.1a3.15,3.15,0,1,1-2.9,3.14A2.91,2.91,0,0,1,17.17,131.1Zm0,5.71a2.59,2.59,0,1,0-2.27-2.57A2.28,2.28,0,0,0,17.18,136.81Z"/><path class="cls-2" d="M21.41,137.22v-6h.64v.87a2,2,0,0,1,2-1v.58a1.68,1.68,0,0,0-1.2.31,2,2,0,0,0-.78,1.89v3.34Z"/><path class="cls-2" d="M30.44,129.25l2.49,7.53,2.49-7.53h1.1l1.16,8H37l-1.08-7.55-2.5,7.55h-1l-2.51-7.55-1.08,7.55h-.66l1.15-8Z"/><path class="cls-2" d="M42.56,129.08a4.15,4.15,0,1,1-4.14,4.15A4,4,0,0,1,42.56,129.08Zm0,7.7a3.55,3.55,0,1,0-3.48-3.55A3.46,3.46,0,0,0,42.56,136.78Z"/><path class="cls-2" d="M49.68,129.25l2.49,7.53,2.49-7.53h1.1l1.15,8h-.66l-1.08-7.55-2.51,7.55h-1l-2.51-7.55-1.08,7.55h-.66l1.15-8Z"/><path class="cls-2" d="M58.94,129.25v8h-.7v-8Z"/><path class="cls-2" d="M64.05,129.25v5.06c0,1.3,0,3.07-2,3.07a2.81,2.81,0,0,1-1.78-.64l.28-.54a2.44,2.44,0,0,0,1.49.58,1.22,1.22,0,0,0,1.31-1,8.25,8.25,0,0,0,.08-1.39v-5.14Z"/><path class="cls-2" d="M66.89,129.25v8h-.7v-8Z"/><path class="cls-2" d="M69.79,136.08v1c0,.74-.25,1-1.08,1v-.41c.57,0,.57-.28.57-.53h-.57v-1.13Z"/><path class="cls-2" d="M77.19,129.25c.75,0,2.65,0,2.65,1.93A1.91,1.91,0,0,1,78.62,133a2,2,0,0,1,1.51,2c0,2.19-2.15,2.19-2.88,2.19H74.8v-8Zm-1.73.6v2.92h1.77c.57,0,2,0,2-1.51s-1.19-1.41-2.07-1.41Zm0,3.5v3.27h1.72c.77,0,2.27,0,2.27-1.57s-1.58-1.7-2.17-1.7Z"/><path class="cls-2" d="M82.15,137.22h-.64v-8.36h.64v3.41a2.43,2.43,0,0,1,2.12-1.17c1.44,0,2.67,1.08,2.67,3.14s-1.25,3.14-2.67,3.14a2.4,2.4,0,0,1-2.12-1.17Zm2-.41c1.1,0,2.11-.77,2.11-2.57s-1-2.57-2.11-2.57-2.06.73-2.06,2.57S83.11,136.81,84.19,136.81Z"/><path class="cls-2" d="M88.92,136.63a2.66,2.66,0,0,0,.93.15,2.73,2.73,0,0,0,2.39-1.28,5.4,5.4,0,0,0,.7-2.47,2.62,2.62,0,0,1-2.34,1.28A2.47,2.47,0,0,1,88,131.75a2.56,2.56,0,0,1,2.66-2.67c1.21,0,2.88.69,2.88,3.57,0,3.2-1.65,4.73-3.72,4.73a2.52,2.52,0,0,1-.93-.16Zm1.74-2.91a2,2,0,1,0,0-4,1.94,1.94,0,0,0-2,2A1.87,1.87,0,0,0,90.66,133.72Z"/><path class="cls-2" d="M96,136.08v1c0,.74-.25,1-1.08,1v-.41c.57,0,.57-.28.57-.53h-.57v-1.13Z"/><path class="cls-2" d="M101.32,134.45a2.19,2.19,0,0,0,2.39,2.36,3.61,3.61,0,0,0,1.76-.42V137a4.6,4.6,0,0,1-1.79.35,2.84,2.84,0,0,1-3-3.1c0-1.73,1-3.18,2.68-3.18a2.4,2.4,0,0,1,2.27,1.5,4.52,4.52,0,0,1,.33,1.85Zm4-.57c-.13-1.49-1-2.21-2-2.21a2.14,2.14,0,0,0-2,2.21Z"/><path class="cls-2" d="M107.55,129.56h.63v1.7h1.89v.57h-1.89v3.78c0,.73,0,1.2,1.07,1.2a5.79,5.79,0,0,0,.71,0v.56a5.9,5.9,0,0,1-.76,0c-1.5,0-1.65-.75-1.65-1.79v-3.76h-.78v-.57h.78Z"/><path class="cls-2" d="M115.61,137a3.87,3.87,0,0,1-1.71.36,2.9,2.9,0,0,1-3-3.14,3,3,0,0,1,3-3.14,3.1,3.1,0,0,1,1.71.46l-.19.58a2.24,2.24,0,0,0-1.49-.47,2.57,2.57,0,0,0,0,5.14,3.24,3.24,0,0,0,1.66-.43Z"/><path class="cls-2" d="M118,136.08v1.14h-1.08v-1.14Z"/><path class="cls-2" d="M157.41,132.83v.61h-3.66v3.78h-.67v-8h4.68v.6h-4v3Z"/><path class="cls-2" d="M161.86,131.1a3.15,3.15,0,1,1-2.91,3.14A2.91,2.91,0,0,1,161.86,131.1Zm0,5.71a2.59,2.59,0,1,0-2.28-2.57A2.28,2.28,0,0,0,161.87,136.81Z"/><path class="cls-2" d="M166.09,137.22v-6h.65v.87a2,2,0,0,1,2-1v.58a1.71,1.71,0,0,0-1.2.31,2,2,0,0,0-.77,1.89v3.34Z"/><path class="cls-2" d="M174.39,129.25v8h-.7v-8Z"/><path class="cls-2" d="M182.58,136.84a5.06,5.06,0,0,1-2.33.54,4.15,4.15,0,1,1-.06-8.3,4.2,4.2,0,0,1,2.35.67l-.24.6a3.56,3.56,0,1,0-2,6.43,3.81,3.81,0,0,0,2.29-.67Z"/><path class="cls-2" d="M188.27,132.78v.6H184.6v3.24h4.17v.6h-4.83v-8h4.68v.6h-4v2.93Z"/><path class="cls-2" d="M191.16,136.08v1c0,.74-.25,1-1.08,1v-.41c.57,0,.57-.28.57-.53h-.57v-1.13Z"/><path class="cls-2" d="M201.26,132.67v-3.42h.67v8h-.67v-3.95h-4.43v3.95h-.67v-8h.67v3.42Z"/><path class="cls-2" d="M204.54,129.25v8h-.7v-8Z"/><path class="cls-2" d="M207.48,129.25l5.12,7.43v-7.43h.67v8h-1.05l-5.13-7.43v7.43h-.66v-8Z"/><path class="cls-2" d="M219.27,132.78v.6H215.6v3.24h4.17v.6h-4.83v-8h4.67v.6h-4v2.93Z"/><path class="cls-2" d="M224,137.22h-.67v-7.37H220.5v-.6h6.24v.6H224Z"/><path class="cls-2" d="M234,137.22h-.9l-2.5-8h.68l2.27,7.42,2.27-7.42h.88l2.27,7.42,2.27-7.42h.68l-2.51,8h-.89l-2.27-7.38Z"/><path class="cls-2" d="M243.84,130.13H243v-.88h.83Zm-.09,7.09h-.65v-6h.65Z"/><path class="cls-2" d="M247.62,133.88v.71h-2.54v-.71Z"/><path class="cls-2" d="M253.13,132.83v.61h-3.67v3.78h-.66v-8h4.68v.6h-4v3Z"/><path class="cls-2" d="M255.91,130.13h-.83v-.88h.83Zm-.08,7.09h-.65v-6h.65Z"/><path class="cls-2" d="M258.66,136.08v1c0,.74-.25,1-1.08,1v-.41c.57,0,.57-.28.57-.53h-.57v-1.13Z"/><path class="cls-2" d="M264,134.45a2.19,2.19,0,0,0,2.38,2.36,3.63,3.63,0,0,0,1.77-.42V137a4.6,4.6,0,0,1-1.79.35,2.84,2.84,0,0,1-3-3.1c0-1.73,1-3.18,2.68-3.18a2.4,2.4,0,0,1,2.27,1.5,4.52,4.52,0,0,1,.33,1.85Zm4-.57c-.12-1.49-1-2.21-2-2.21a2.14,2.14,0,0,0-2,2.21Z"/><path class="cls-2" d="M270.2,129.56h.63v1.7h1.89v.57h-1.89v3.78c0,.73,0,1.2,1.07,1.2a5.88,5.88,0,0,0,.71,0v.56a5.9,5.9,0,0,1-.76,0c-1.5,0-1.65-.75-1.65-1.79v-3.76h-.78v-.57h.78Z"/><path class="cls-2" d="M278.26,137a3.87,3.87,0,0,1-1.71.36,2.9,2.9,0,0,1-3-3.14,3,3,0,0,1,3-3.14,3.1,3.1,0,0,1,1.71.46l-.19.58a2.25,2.25,0,0,0-1.5-.47,2.58,2.58,0,0,0,0,5.14,3.25,3.25,0,0,0,1.67-.43Z"/><path class="cls-2" d="M280.61,136.08v1.14h-1.08v-1.14Z"/><path class="cls-2" d="M157.41,148.12v.6h-3.66v3.78h-.67v-8h4.68v.6h-4v3Z"/><path class="cls-2" d="M161.86,146.39a3.15,3.15,0,1,1-2.91,3.14A2.91,2.91,0,0,1,161.86,146.39Zm0,5.7a2.58,2.58,0,1,0-2.28-2.56A2.28,2.28,0,0,0,161.87,152.09Z"/><path class="cls-2" d="M166.09,152.5v-5.95h.65v.87a2,2,0,0,1,2-1V147a1.75,1.75,0,0,0-1.2.3,2,2,0,0,0-.77,1.9v3.33Z"/><path class="cls-2" d="M177.24,144.37a4.15,4.15,0,1,1-4.13,4.15A4,4,0,0,1,177.24,144.37Zm0,7.69a3.55,3.55,0,1,0-3.47-3.54A3.46,3.46,0,0,0,177.24,152.06Z"/><path class="cls-2" d="M185.49,145.72c0-.52,0-1.58,1.39-1.58a1.73,1.73,0,0,1,.37,0l-.06.56-.27,0c-.8,0-.8.5-.8,1v.82h1.14v.57h-1.14v5.38h-.63v-5.38h-1.92v5.38h-.63v-5.38h-.82v-.57h.82v-.83c0-.52,0-1.58,1.4-1.58a1.79,1.79,0,0,1,.36,0l-.06.56-.26,0c-.81,0-.81.5-.81,1v.82h1.92Zm3.28-.69h-.83v-.89h.83Zm-.08,7.47H188v-5.95h.65Z"/><path class="cls-2" d="M194.92,152.31a4,4,0,0,1-1.7.36,3.14,3.14,0,0,1,0-6.28,3.05,3.05,0,0,1,1.7.45l-.18.59a2.22,2.22,0,0,0-1.5-.47,2.57,2.57,0,0,0,0,5.13,3.33,3.33,0,0,0,1.66-.42Z"/><path class="cls-2" d="M196.58,149.74a2.19,2.19,0,0,0,2.39,2.35,3.63,3.63,0,0,0,1.76-.41v.64a4.49,4.49,0,0,1-1.78.35,2.84,2.84,0,0,1-3-3.1c0-1.74,1-3.18,2.68-3.18a2.39,2.39,0,0,1,2.27,1.49,4.57,4.57,0,0,1,.33,1.86Zm4-.57c-.12-1.5-1-2.21-2-2.21a2.13,2.13,0,0,0-2,2.21Z"/><path class="cls-2" d="M202.58,151.48a4.07,4.07,0,0,0,2.17.58c1.77,0,2.38-1,2.38-1.83,0-.51-.26-1.68-2.42-1.68h-.54V148h.55a1.7,1.7,0,0,0,1.89-1.56,1.5,1.5,0,0,0-1.68-1.44,2.74,2.74,0,0,0-2,.84l-.24-.6a3.38,3.38,0,0,1,2.21-.84,2.11,2.11,0,0,1,2.33,2,1.88,1.88,0,0,1-1.36,1.82,2.11,2.11,0,0,1,1.88,2.09c0,1.06-.78,2.38-3,2.38a4.92,4.92,0,0,1-2.36-.59Z"/><path class="cls-2" d="M213.21,145c-1.58-.16-3.28,1-3.5,3.73a2.57,2.57,0,0,1,2.31-1.28,2.47,2.47,0,0,1,2.59,2.54,2.6,2.6,0,0,1-2.68,2.69c-1.38,0-2.87-.93-2.87-3.52s1.56-4.78,3.83-4.78l.32,0ZM212,148a2,2,0,0,0-2.14,1.92,2,2,0,0,0,2.08,2.1,1.92,1.92,0,0,0,2-2A1.86,1.86,0,0,0,212,148Z"/><path class="cls-2" d="M220.53,145.13H217V148a2.93,2.93,0,0,1,1.48-.37,2.51,2.51,0,0,1,2.73,2.49c0,1.42-1.1,2.57-3,2.57a4.92,4.92,0,0,1-2.34-.61l.2-.59a3.91,3.91,0,0,0,2.1.59c1.63,0,2.38-.92,2.38-2a1.9,1.9,0,0,0-2.1-1.89,2.29,2.29,0,0,0-1.45.47h-.61v-4.14h4.15Z"/><path class="cls-2" d="M156.1,163.7l1-3.1h.38l-1.17,3.5h-.45l-.95-3.24-1,3.24h-.45l-1.17-3.5h.38l1,3.1.92-3.1h.52Z"/><path class="cls-2" d="M158.64,159.93h-.48v-.52h.48Zm0,4.17h-.39v-3.5h.39Z"/><path class="cls-2" d="M159.8,159.6h.37v1h1.12v.33h-1.12v2.22c0,.43,0,.71.63.71a3.94,3.94,0,0,0,.42,0v.33a3.79,3.79,0,0,1-.45,0c-.88,0-1-.45-1-1.06v-2.21h-.45v-.33h.45Z"/><path class="cls-2" d="M162,164.1v-4.92h.37v1.93a1.33,1.33,0,0,1,1.13-.61,1.15,1.15,0,0,1,1,.54,2.12,2.12,0,0,1,.16,1.06v2h-.37v-2c0-.59,0-1.3-.88-1.3a1.07,1.07,0,0,0-.92.49,1.48,1.48,0,0,0-.17.81v2Z"/><path class="cls-2" d="M171.23,159.41a4.24,4.24,0,0,0,0,5.49h-.35a4.21,4.21,0,0,1-1.07-2.74,4.27,4.27,0,0,1,1.07-2.75Z"/><path class="cls-2" d="M172.44,159.41v4.69H172v-4.69Z"/><path class="cls-2" d="M174.54,159.41l1.46,4.43,1.47-4.43h.65l.67,4.69h-.39l-.63-4.44-1.48,4.44h-.58l-1.47-4.44-.64,4.44h-.39l.68-4.69Z"/><path class="cls-2" d="M183.14,163.88a3,3,0,0,1-1.37.32,2.45,2.45,0,1,1,0-4.89,2.5,2.5,0,0,1,1.38.39l-.14.36a2.09,2.09,0,1,0-1.18,3.78,2.27,2.27,0,0,0,1.34-.39Z"/><path class="cls-2" d="M186.08,160.78a2.12,2.12,0,0,1,1.07-.28,1.52,1.52,0,0,1,1.19.46,1.33,1.33,0,0,1,.21.85v1.66a1.38,1.38,0,0,0,.12.63h-.39a1.31,1.31,0,0,1-.11-.61,1.55,1.55,0,0,1-1.32.71,1,1,0,0,1-1.1-1c0-.26,0-.92,1.1-1.1.15,0,.86-.12,1-.16a.35.35,0,0,0,.32-.39c0-.49-.49-.69-1-.69a1.89,1.89,0,0,0-1,.3Zm2.09,1.35c-.15.09-.23.1-.92.21s-1.13.17-1.13.82a.66.66,0,0,0,.76.7,1.42,1.42,0,0,0,1.29-.9Z"/><path class="cls-2" d="M192.15,164a2.35,2.35,0,0,1-1,.21,1.71,1.71,0,0,1-1.78-1.85,1.73,1.73,0,0,1,1.77-1.85,1.82,1.82,0,0,1,1,.27l-.11.34a1.34,1.34,0,0,0-.88-.27,1.51,1.51,0,0,0,0,3,2,2,0,0,0,1-.25Z"/><path class="cls-2" d="M195.54,164a2.35,2.35,0,0,1-1,.21,1.71,1.71,0,0,1-1.78-1.85,1.73,1.73,0,0,1,1.77-1.85,1.82,1.82,0,0,1,1,.27l-.11.34a1.34,1.34,0,0,0-.88-.27,1.51,1.51,0,0,0,0,3,2,2,0,0,0,1-.25Z"/><path class="cls-2" d="M197.83,160.5a1.86,1.86,0,1,1-1.7,1.85A1.72,1.72,0,0,1,197.83,160.5Zm0,3.36a1.52,1.52,0,1,0-1.34-1.51A1.34,1.34,0,0,0,197.84,163.86Z"/><path class="cls-2" d="M203.05,160.6v3.5h-.37v-.51a1.29,1.29,0,0,1-1.13.61,1.18,1.18,0,0,1-1.05-.54,2.2,2.2,0,0,1-.16-1.06v-2h.37v2.07c0,.68.12,1.19.88,1.19a1.07,1.07,0,0,0,.93-.5,1.55,1.55,0,0,0,.16-.8v-2Z"/><path class="cls-2" d="M204.06,164.1v-3.5h.37v.51a1.3,1.3,0,0,1,1.13-.61,1.15,1.15,0,0,1,1.05.54,2.07,2.07,0,0,1,.16,1.06v2h-.37v-2c0-.59,0-1.3-.87-1.3a1.05,1.05,0,0,0-.93.49,1.42,1.42,0,0,0-.17.81v2Z"/><path class="cls-2" d="M207.9,159.6h.37v1h1.12v.33h-1.12v2.22c0,.43,0,.71.63.71a3.94,3.94,0,0,0,.42,0v.33a3.79,3.79,0,0,1-.45,0c-.88,0-1-.45-1-1.06v-2.21h-.45v-.33h.45Z"/><path class="cls-2" d="M210.07,159.41a4.23,4.23,0,0,1,1.08,2.75,4.17,4.17,0,0,1-1.08,2.74h-.35a4.28,4.28,0,0,0,1-2.74,4.33,4.33,0,0,0-1-2.75Z"/><path class="cls-2" d="M215.35,160.57h.4l-.33,1.53a1.57,1.57,0,0,0,0,.27.34.34,0,0,0,.35.36c.42,0,.72-.65.72-1.3a1.84,1.84,0,0,0-2-1.79,2,2,0,0,0-2,2.16,2.14,2.14,0,0,0,3.1,1.84l.14.35a2.81,2.81,0,0,1-1.12.21,2.32,2.32,0,0,1-2.5-2.43,2.36,2.36,0,0,1,2.44-2.46,2.14,2.14,0,0,1,2.34,2.11c0,1.13-.58,1.64-1.15,1.64a.56.56,0,0,1-.59-.47,1.1,1.1,0,0,1-.89.44,1,1,0,0,1-1-1.07,1.4,1.4,0,0,1,1.27-1.49.85.85,0,0,1,.78.41ZM213.61,162c0,.5.28.74.64.74.89,0,.91-1.26.91-1.29a.57.57,0,0,0-.59-.61C213.88,160.8,213.61,161.51,213.61,162Z"/><path class="cls-2" d="M217.62,164.1v-4.92H218v1.93a1.31,1.31,0,0,1,1.13-.61,1.16,1.16,0,0,1,1,.54,2.12,2.12,0,0,1,.16,1.06v2H220v-2c0-.59,0-1.3-.88-1.3a1.09,1.09,0,0,0-.93.49,1.56,1.56,0,0,0-.16.81v2Z"/><path class="cls-2" d="M221.85,159.93h-.48v-.52h.48Zm0,4.17h-.38v-3.5h.38Z"/><path class="cls-2" d="M222.88,164.1v-3.5h.37v.51a1.21,1.21,0,0,1,1.17-.61v.34a1,1,0,0,0-.71.18,1.19,1.19,0,0,0-.46,1.12v2Z"/><path class="cls-2" d="M226.72,160.5a1.86,1.86,0,1,1-1.71,1.85A1.71,1.71,0,0,1,226.72,160.5Zm0,3.36a1.52,1.52,0,1,0-1.33-1.51A1.34,1.34,0,0,0,226.72,163.86Z"/><path class="cls-2" d="M231.06,161a1.5,1.5,0,0,0-.73-.18c-.47,0-.84.2-.84.62s.2.5.93.72c.52.16,1,.37,1,1s-.61,1-1.36,1A2.38,2.38,0,0,1,229,164l.13-.33a2,2,0,0,0,1,.24c.52,0,1-.19,1-.68s-.34-.57-1-.76-.95-.32-.95-.94.54-1,1.22-1a1.88,1.88,0,0,1,.82.19Z"/><path class="cls-2" d="M232.23,164.1v-4.92h.37v1.93a1.3,1.3,0,0,1,1.12-.61,1.13,1.13,0,0,1,1.05.54,2,2,0,0,1,.17,1.06v2h-.38v-2c0-.59,0-1.3-.87-1.3a1.09,1.09,0,0,0-.93.49,1.56,1.56,0,0,0-.16.81v2Z"/><path class="cls-2" d="M236.46,159.93H236v-.52h.48Zm-.05,4.17H236v-3.5h.38Z"/><path class="cls-2" d="M239.63,164.1v-2c0-.5,0-1.24-.76-1.24-.46,0-1,.28-1,1.21v2h-.37v-3.5h.37v.51a1.13,1.13,0,0,1,1-.61,1,1,0,0,1,1,.65,1.24,1.24,0,0,1,1.11-.65,1,1,0,0,1,1,.67,2,2,0,0,1,.09.72v2.21h-.37v-2c0-.5,0-1.25-.77-1.25a.94.94,0,0,0-.91.6,1.4,1.4,0,0,0-.09.51v2.15Z"/><path class="cls-2" d="M243.3,160.78a2.12,2.12,0,0,1,1.07-.28,1.49,1.49,0,0,1,1.18.46,1.33,1.33,0,0,1,.21.85v1.66a1.38,1.38,0,0,0,.12.63h-.39a1.34,1.34,0,0,1-.1-.61,1.58,1.58,0,0,1-1.33.71,1,1,0,0,1-1.1-1c0-.26,0-.92,1.1-1.1.16,0,.86-.12,1-.16a.35.35,0,0,0,.32-.39c0-.49-.49-.69-1-.69a1.92,1.92,0,0,0-1,.3Zm2.08,1.35c-.15.09-.23.1-.92.21s-1.13.17-1.13.82a.67.67,0,0,0,.76.7,1.42,1.42,0,0,0,1.29-.9Z"/><path class="cls-2" d="M248,162.14v.41h-1.49v-.41Z"/><path class="cls-2" d="M251.38,160.6v3.5H251v-.51a1.29,1.29,0,0,1-1.12.61,1.15,1.15,0,0,1-1-.54,2.09,2.09,0,0,1-.16-1.06v-2H249v2.07c0,.68.12,1.19.87,1.19a1.07,1.07,0,0,0,.93-.5,1.55,1.55,0,0,0,.16-.8v-2Z"/><path class="cls-2" d="M253,163.43v.67h-.64v-.67Z"/><path class="cls-2" d="M254.05,160.78a2.13,2.13,0,0,1,1.08-.28,1.5,1.5,0,0,1,1.18.46,1.33,1.33,0,0,1,.21.85v1.66a1.38,1.38,0,0,0,.12.63h-.39a1.34,1.34,0,0,1-.1-.61,1.58,1.58,0,0,1-1.33.71,1,1,0,0,1-1.1-1c0-.26,0-.92,1.1-1.1.16,0,.86-.12,1-.16a.35.35,0,0,0,.32-.39c0-.49-.49-.69-1-.69a1.92,1.92,0,0,0-1,.3Zm2.09,1.35c-.15.09-.23.1-.92.21s-1.13.17-1.13.82a.66.66,0,0,0,.76.7,1.42,1.42,0,0,0,1.29-.9Z"/><path class="cls-2" d="M260.12,164a2.33,2.33,0,0,1-1,.21,1.71,1.71,0,0,1-1.79-1.85,1.73,1.73,0,0,1,1.77-1.85,1.79,1.79,0,0,1,1,.27l-.11.34a1.32,1.32,0,0,0-.88-.27,1.51,1.51,0,0,0,0,3,2,2,0,0,0,1-.25Z"/><path class="cls-2" d="M261.5,163.43v.67h-.63v-.67Z"/><path class="cls-2" d="M263.48,164.66c0,.3,0,1-.84,1a1.31,1.31,0,0,1-.55-.12l0-.34a1.28,1.28,0,0,0,.53.13c.43,0,.44-.37.44-.63V160.6h.38Zm0-4.73h-.48v-.52h.48Z"/><path class="cls-2" d="M264.61,160.6H265v.59a1.43,1.43,0,0,1,1.25-.69,1.87,1.87,0,0,1,0,3.7,1.42,1.42,0,0,1-1.25-.69v2.18h-.38Zm1.58,3.26c.61,0,1.24-.41,1.24-1.51s-.59-1.51-1.24-1.51-1.21.43-1.21,1.51S265.57,163.86,266.19,163.86Z"/><path class="cls-2" d="M157.41,178.69v.6h-3.66v3.78h-.67v-8h4.68v.6h-4v3Z"/><path class="cls-2" d="M161.86,177A3.15,3.15,0,1,1,159,180.1,2.91,2.91,0,0,1,161.86,177Zm0,5.7a2.58,2.58,0,1,0-2.28-2.56A2.28,2.28,0,0,0,161.87,182.66Z"/><path class="cls-2" d="M166.09,183.07v-5.95h.65V178a2,2,0,0,1,2-1v.58a1.75,1.75,0,0,0-1.2.3,2,2,0,0,0-.77,1.9v3.33Z"/><path class="cls-2" d="M177.91,182.06a2.39,2.39,0,0,1-2.12,1.18c-1.42,0-2.67-1.06-2.67-3.14s1.23-3.14,2.67-3.14a2.41,2.41,0,0,1,2.12,1.17v-3.42h.64v8.36h-.64Zm-2-4.53c-1.05,0-2.1.71-2.1,2.57s1,2.56,2.11,2.56,2.06-.74,2.06-2.56S176.92,177.53,175.86,177.53Z"/><path class="cls-2" d="M180.56,180.31a2.2,2.2,0,0,0,2.39,2.35,3.57,3.57,0,0,0,1.76-.41v.64a4.49,4.49,0,0,1-1.78.35,2.84,2.84,0,0,1-3-3.1c0-1.74,1-3.18,2.68-3.18a2.39,2.39,0,0,1,2.28,1.5,4.63,4.63,0,0,1,.32,1.85Zm4-.57c-.12-1.5-1-2.21-2-2.21a2.14,2.14,0,0,0-2,2.21Z"/><path class="cls-2" d="M188.58,177.12v.57h-1.14v5.38h-.63v-5.38H186v-.57h.81v-.83c0-.52,0-1.58,1.4-1.58a1.79,1.79,0,0,1,.36,0l-.06.56a1.28,1.28,0,0,0-.26,0c-.81,0-.81.49-.81,1v.82Z"/><path class="cls-2" d="M189.93,177.43a3.65,3.65,0,0,1,1.82-.47,2.55,2.55,0,0,1,2,.78,2.17,2.17,0,0,1,.36,1.44V182a2.41,2.41,0,0,0,.2,1.07h-.66a2.27,2.27,0,0,1-.17-1,2.71,2.71,0,0,1-2.26,1.2,1.7,1.7,0,0,1-1.87-1.74c0-.43,0-1.55,1.87-1.86.27,0,1.46-.21,1.71-.27a.6.6,0,0,0,.54-.66c0-.84-.84-1.18-1.71-1.18a3.11,3.11,0,0,0-1.78.52Zm3.55,2.29c-.26.16-.39.18-1.56.36s-1.93.29-1.93,1.4c0,.47.21,1.18,1.3,1.18a2.42,2.42,0,0,0,2.19-1.52Z"/><path class="cls-2" d="M200.45,177.12v5.95h-.64v-.86a2.19,2.19,0,0,1-1.91,1,1.94,1.94,0,0,1-1.78-.92,3.57,3.57,0,0,1-.28-1.8v-3.4h.63v3.53c0,1.15.21,2,1.49,2a1.82,1.82,0,0,0,1.58-.84,2.69,2.69,0,0,0,.27-1.37v-3.33Z"/><path class="cls-2" d="M203.9,183.07h-.43c-1.13,0-1.17-.63-1.17-1.24v-7.12h.64v7.09c0,.39,0,.7.55.7h.41Z"/><path class="cls-2" d="M205.13,175.42h.63v1.7h1.9v.57h-1.9v3.77c0,.74,0,1.2,1.08,1.2a5.88,5.88,0,0,0,.71,0v.56a4.31,4.31,0,0,1-.77.06c-1.49,0-1.65-.76-1.65-1.8v-3.75h-.77v-.57h.77Z"/><path class="cls-2" d="M217.28,178.53V175.1H218v8h-.67v-3.94h-4.43v3.94h-.68v-8h.68v3.43Z"/><path class="cls-2" d="M220.56,175.1v8h-.7v-8Z"/><path class="cls-2" d="M224.78,175.1a2.17,2.17,0,1,1,.1,4.33l2.8,3.64h-.78l-2.76-3.64h-1v3.64h-.66v-8Zm-1.65.6v3.14h1.34c.52,0,2,0,2-1.57s-1.41-1.57-2-1.57Z"/><path class="cls-2" d="M232.47,174.94a4.15,4.15,0,1,1-4.13,4.15A4,4,0,0,1,232.47,174.94Zm0,7.69a3.55,3.55,0,1,0-3.47-3.54A3.46,3.46,0,0,0,232.47,182.63Z"/><path class="cls-2" d="M237.92,175.1h2.92a5.41,5.41,0,0,1,2,.31,3.62,3.62,0,0,1,2.17,3.68,3.92,3.92,0,0,1-1.49,3.32,4.59,4.59,0,0,1-2.75.66h-2.89Zm.68,7.37h2.19a3.94,3.94,0,0,0,2.37-.56,3.34,3.34,0,0,0,1.22-2.81c0-3.4-2.71-3.4-3.57-3.4H238.6Z"/><path class="cls-2" d="M247.39,180.56l-1,2.51h-.71l3.16-8h.89l3.17,8h-.73l-1-2.51ZM251,180l-1.68-4.29L247.63,180Z"/><path class="cls-2" d="M254.9,175.1v8h-.7v-8Z"/><path class="cls-2" d="M261.86,175.1l2.49,7.53,2.5-7.53H268l1.15,8h-.66l-1.09-7.54-2.5,7.54h-1l-2.51-7.54-1.08,7.54h-.66l1.15-8Z"/><path class="cls-2" d="M270.43,177.43a3.67,3.67,0,0,1,1.82-.47,2.55,2.55,0,0,1,2,.78,2.17,2.17,0,0,1,.36,1.44V182a2.41,2.41,0,0,0,.2,1.07h-.66a2.27,2.27,0,0,1-.17-1,2.71,2.71,0,0,1-2.26,1.2,1.7,1.7,0,0,1-1.87-1.74c0-.43,0-1.55,1.87-1.86.27,0,1.46-.21,1.71-.27a.6.6,0,0,0,.54-.66c0-.84-.84-1.18-1.7-1.18a3.12,3.12,0,0,0-1.79.52Zm3.55,2.29c-.26.16-.39.18-1.56.36s-1.93.29-1.93,1.4a1.13,1.13,0,0,0,1.3,1.18,2.42,2.42,0,0,0,2.19-1.52Z"/><path class="cls-2" d="M277.22,176h-.83v-.89h.83Zm-.08,7.08h-.66v-5.95h.66Z"/><path class="cls-2" d="M280.72,183.07h-.43c-1.13,0-1.17-.63-1.17-1.24v-7.12h.64v7.09c0,.39,0,.7.55.7h.41Z"/><path class="cls-2" d="M156.1,194.27l1-3.1h.38l-1.17,3.5h-.45l-.95-3.24-1,3.24h-.45l-1.17-3.5h.38l1,3.1.92-3.1h.52Z"/><path class="cls-2" d="M158.64,190.5h-.48V190h.48Zm0,4.17h-.39v-3.5h.39Z"/><path class="cls-2" d="M159.8,190.17h.37v1h1.12v.33h-1.12v2.22c0,.43,0,.71.63.71a3.94,3.94,0,0,0,.42,0v.33a3.79,3.79,0,0,1-.45,0c-.88,0-1-.45-1-1.06V191.5h-.45v-.33h.45Z"/><path class="cls-2" d="M162,194.67v-4.92h.37v1.93a1.33,1.33,0,0,1,1.13-.61,1.15,1.15,0,0,1,1,.54,2.12,2.12,0,0,1,.16,1.06v2h-.37v-2c0-.59,0-1.3-.88-1.3a1,1,0,0,0-.92.5,1.43,1.43,0,0,0-.17.8v2Z"/><path class="cls-2" d="M171.23,190a4.24,4.24,0,0,0,0,5.49h-.35a4.21,4.21,0,0,1-1.07-2.74,4.27,4.27,0,0,1,1.07-2.75Z"/><path class="cls-2" d="M172.44,190v4.69H172V190Z"/><path class="cls-2" d="M174.54,190l1.46,4.43,1.47-4.43h.65l.67,4.69h-.39l-.63-4.44-1.48,4.44h-.58l-1.47-4.44-.64,4.44h-.39l.68-4.69Z"/><path class="cls-2" d="M183.14,194.45a3,3,0,0,1-1.37.32,2.45,2.45,0,1,1,0-4.89,2.5,2.5,0,0,1,1.38.39l-.14.36a2.09,2.09,0,1,0-1.18,3.78,2.27,2.27,0,0,0,1.34-.39Z"/><path class="cls-2" d="M186.08,191.35a2.12,2.12,0,0,1,1.07-.28,1.52,1.52,0,0,1,1.19.46,1.33,1.33,0,0,1,.21.85V194a1.38,1.38,0,0,0,.12.63h-.39a1.31,1.31,0,0,1-.11-.61,1.55,1.55,0,0,1-1.32.71,1,1,0,0,1-1.1-1c0-.26,0-.92,1.1-1.1.15,0,.86-.12,1-.16a.35.35,0,0,0,.32-.39c0-.49-.49-.69-1-.69a1.89,1.89,0,0,0-1,.3Zm2.09,1.35c-.15.09-.23.1-.92.21s-1.13.17-1.13.82a.66.66,0,0,0,.76.7,1.42,1.42,0,0,0,1.29-.9Z"/><path class="cls-2" d="M192.15,194.56a2.35,2.35,0,0,1-1,.21,1.71,1.71,0,0,1-1.78-1.85,1.74,1.74,0,0,1,1.77-1.85,1.82,1.82,0,0,1,1,.27l-.11.34a1.34,1.34,0,0,0-.88-.27,1.51,1.51,0,0,0,0,3,2,2,0,0,0,1-.25Z"/><path class="cls-2" d="M195.54,194.56a2.35,2.35,0,0,1-1,.21,1.71,1.71,0,0,1-1.78-1.85,1.74,1.74,0,0,1,1.77-1.85,1.82,1.82,0,0,1,1,.27l-.11.34a1.34,1.34,0,0,0-.88-.27,1.51,1.51,0,0,0,0,3,2,2,0,0,0,1-.25Z"/><path class="cls-2" d="M197.83,191.07a1.86,1.86,0,1,1-1.7,1.85A1.72,1.72,0,0,1,197.83,191.07Zm0,3.36a1.52,1.52,0,1,0-1.34-1.51A1.34,1.34,0,0,0,197.84,194.43Z"/><path class="cls-2" d="M203.05,191.17v3.5h-.37v-.51a1.29,1.29,0,0,1-1.13.61,1.18,1.18,0,0,1-1.05-.54,2.2,2.2,0,0,1-.16-1.06v-2h.37v2.07c0,.68.12,1.19.88,1.19a1.07,1.07,0,0,0,.93-.5,1.55,1.55,0,0,0,.16-.8v-2Z"/><path class="cls-2" d="M204.06,194.67v-3.5h.37v.51a1.3,1.3,0,0,1,1.13-.61,1.15,1.15,0,0,1,1.05.54,2.07,2.07,0,0,1,.16,1.06v2h-.37v-2c0-.59,0-1.3-.87-1.3a1,1,0,0,0-.93.5,1.37,1.37,0,0,0-.17.8v2Z"/><path class="cls-2" d="M207.9,190.17h.37v1h1.12v.33h-1.12v2.22c0,.43,0,.71.63.71a3.94,3.94,0,0,0,.42,0v.33a3.79,3.79,0,0,1-.45,0c-.88,0-1-.45-1-1.06V191.5h-.45v-.33h.45Z"/><path class="cls-2" d="M210.07,190a4.23,4.23,0,0,1,1.08,2.75,4.17,4.17,0,0,1-1.08,2.74h-.35a4.25,4.25,0,0,0,1-2.74,4.33,4.33,0,0,0-1-2.75Z"/><path class="cls-2" d="M215.35,191.14h.4l-.33,1.53a1.57,1.57,0,0,0,0,.27.34.34,0,0,0,.35.36c.42,0,.72-.65.72-1.3a1.84,1.84,0,0,0-2-1.79,2,2,0,0,0-2,2.16,2.14,2.14,0,0,0,3.1,1.84l.14.35a2.81,2.81,0,0,1-1.12.21,2.32,2.32,0,0,1-2.5-2.43,2.36,2.36,0,0,1,2.44-2.46,2.14,2.14,0,0,1,2.34,2.11c0,1.13-.58,1.64-1.15,1.64a.56.56,0,0,1-.59-.46,1.11,1.11,0,0,1-.89.43,1,1,0,0,1-1-1.07,1.4,1.4,0,0,1,1.27-1.49.85.85,0,0,1,.78.41Zm-1.74,1.4c0,.49.28.73.64.73.89,0,.91-1.26.91-1.29a.57.57,0,0,0-.59-.61C213.88,191.37,213.61,192.08,213.61,192.54Z"/><path class="cls-2" d="M217.62,194.67v-4.92H218v1.93a1.31,1.31,0,0,1,1.13-.61,1.16,1.16,0,0,1,1,.54,2.12,2.12,0,0,1,.16,1.06v2H220v-2c0-.59,0-1.3-.88-1.3a1.07,1.07,0,0,0-.93.5,1.51,1.51,0,0,0-.16.8v2Z"/><path class="cls-2" d="M221.85,190.5h-.48V190h.48Zm0,4.17h-.38v-3.5h.38Z"/><path class="cls-2" d="M222.88,194.67v-3.5h.37v.51a1.21,1.21,0,0,1,1.17-.61v.34a1,1,0,0,0-.71.18,1.2,1.2,0,0,0-.46,1.12v2Z"/><path class="cls-2" d="M226.72,191.07a1.86,1.86,0,1,1-1.71,1.85A1.71,1.71,0,0,1,226.72,191.07Zm0,3.36a1.52,1.52,0,1,0-1.33-1.51A1.34,1.34,0,0,0,226.72,194.43Z"/><path class="cls-2" d="M231.06,191.59a1.5,1.5,0,0,0-.73-.18c-.47,0-.84.2-.84.62s.2.51.93.72c.52.16,1,.37,1,1s-.61,1-1.36,1a2.38,2.38,0,0,1-1.08-.25l.13-.33a2,2,0,0,0,1,.24c.52,0,1-.19,1-.68s-.34-.57-1-.76-.95-.32-.95-.94.54-1,1.22-1a1.88,1.88,0,0,1,.82.19Z"/><path class="cls-2" d="M232.23,194.67v-4.92h.37v1.93a1.3,1.3,0,0,1,1.12-.61,1.13,1.13,0,0,1,1.05.54,2,2,0,0,1,.17,1.06v2h-.38v-2c0-.59,0-1.3-.87-1.3a1.07,1.07,0,0,0-.93.5,1.51,1.51,0,0,0-.16.8v2Z"/><path class="cls-2" d="M236.46,190.5H236V190h.48Zm-.05,4.17H236v-3.5h.38Z"/><path class="cls-2" d="M239.63,194.67v-2c0-.51,0-1.25-.76-1.25-.46,0-1,.28-1,1.21v2h-.37v-3.5h.37v.51a1.13,1.13,0,0,1,1-.61,1,1,0,0,1,1,.65,1.24,1.24,0,0,1,1.11-.65,1,1,0,0,1,1,.67,2,2,0,0,1,.09.72v2.21h-.37v-2c0-.5,0-1.25-.77-1.25a.94.94,0,0,0-.91.6,1.4,1.4,0,0,0-.09.51v2.15Z"/><path class="cls-2" d="M243.3,191.35a2.12,2.12,0,0,1,1.07-.28,1.49,1.49,0,0,1,1.18.46,1.33,1.33,0,0,1,.21.85V194a1.38,1.38,0,0,0,.12.63h-.39a1.34,1.34,0,0,1-.1-.61,1.58,1.58,0,0,1-1.33.71,1,1,0,0,1-1.1-1c0-.26,0-.92,1.1-1.1.16,0,.86-.12,1-.16a.35.35,0,0,0,.32-.39c0-.49-.49-.69-1-.69a1.92,1.92,0,0,0-1,.3Zm2.08,1.35c-.15.09-.23.1-.92.21s-1.13.17-1.13.82a.67.67,0,0,0,.76.7,1.42,1.42,0,0,0,1.29-.9Z"/><path class="cls-2" d="M248,192.71v.41h-1.49v-.41Z"/><path class="cls-2" d="M251.38,191.17v3.5H251v-.51a1.29,1.29,0,0,1-1.12.61,1.15,1.15,0,0,1-1-.54,2.09,2.09,0,0,1-.16-1.06v-2H249v2.07c0,.68.12,1.19.87,1.19a1.07,1.07,0,0,0,.93-.5,1.55,1.55,0,0,0,.16-.8v-2Z"/><path class="cls-2" d="M253,194v.67h-.64V194Z"/><path class="cls-2" d="M254.05,191.35a2.13,2.13,0,0,1,1.08-.28,1.5,1.5,0,0,1,1.18.46,1.33,1.33,0,0,1,.21.85V194a1.38,1.38,0,0,0,.12.63h-.39a1.34,1.34,0,0,1-.1-.61,1.58,1.58,0,0,1-1.33.71,1,1,0,0,1-1.1-1c0-.26,0-.92,1.1-1.1.16,0,.86-.12,1-.16a.35.35,0,0,0,.32-.39c0-.49-.49-.69-1-.69a1.92,1.92,0,0,0-1,.3Zm2.09,1.35c-.15.09-.23.1-.92.21s-1.13.17-1.13.82a.66.66,0,0,0,.76.7,1.42,1.42,0,0,0,1.29-.9Z"/><path class="cls-2" d="M260.12,194.56a2.33,2.33,0,0,1-1,.21,1.71,1.71,0,0,1-1.79-1.85,1.74,1.74,0,0,1,1.77-1.85,1.79,1.79,0,0,1,1,.27l-.11.34a1.32,1.32,0,0,0-.88-.27,1.51,1.51,0,0,0,0,3,2,2,0,0,0,1-.25Z"/><path class="cls-2" d="M261.5,194v.67h-.63V194Z"/><path class="cls-2" d="M263.48,195.23c0,.3,0,1-.84,1a1.31,1.31,0,0,1-.55-.12l0-.34a1.28,1.28,0,0,0,.53.13c.43,0,.44-.37.44-.63v-4.13h.38Zm0-4.73h-.48V190h.48Z"/><path class="cls-2" d="M264.61,191.17H265v.59a1.43,1.43,0,0,1,1.25-.69,1.87,1.87,0,0,1,0,3.7,1.42,1.42,0,0,1-1.25-.69v2.18h-.38Zm1.58,3.26c.61,0,1.24-.41,1.24-1.51s-.59-1.51-1.24-1.51-1.21.43-1.21,1.51S265.57,194.43,266.19,194.43Z"/><path class="cls-2" d="M169.62,204.4v-.83h-3.68v-.36h3.68v-.83l1.71,1Z"/><path class="cls-2" d="M175.34,203.73,173.72,201h.44l1.37,2.36L176.9,201h.44l-1.61,2.75v1.94h-.39Z"/><path class="cls-2" d="M179.5,202.07a1.86,1.86,0,1,1-1.71,1.85A1.72,1.72,0,0,1,179.5,202.07Zm0,3.36a1.52,1.52,0,1,0-1.34-1.51A1.34,1.34,0,0,0,179.51,205.43Z"/><path class="cls-2" d="M184.72,202.17v3.5h-.37v-.51a1.29,1.29,0,0,1-1.13.61,1.15,1.15,0,0,1-1.05-.54,2.2,2.2,0,0,1-.16-1.06v-2h.37v2.07c0,.68.12,1.19.88,1.19a1.07,1.07,0,0,0,.93-.5,1.55,1.55,0,0,0,.16-.8v-2Z"/><path class="cls-2" d="M190.31,205.56a2.27,2.27,0,0,1-1,.21,1.72,1.72,0,0,1-1.79-1.85,1.74,1.74,0,0,1,1.77-1.85,1.86,1.86,0,0,1,1,.27l-.11.34a1.34,1.34,0,0,0-.88-.27,1.51,1.51,0,0,0,0,3,1.92,1.92,0,0,0,1-.25Z"/><path class="cls-2" d="M191.25,202.35a2.12,2.12,0,0,1,1.07-.28,1.49,1.49,0,0,1,1.18.46,1.27,1.27,0,0,1,.21.85V205a1.34,1.34,0,0,0,.13.63h-.4a1.34,1.34,0,0,1-.1-.61,1.55,1.55,0,0,1-1.32.71,1,1,0,0,1-1.11-1c0-.26,0-.92,1.11-1.1.15,0,.86-.12,1-.16a.35.35,0,0,0,.32-.39c0-.49-.5-.69-1-.69a1.89,1.89,0,0,0-1.05.3Zm2.09,1.35c-.15.09-.23.1-.92.21s-1.13.17-1.13.82a.66.66,0,0,0,.76.7,1.42,1.42,0,0,0,1.29-.9Z"/><path class="cls-2" d="M194.73,205.67v-3.5h.37v.51a1.3,1.3,0,0,1,1.13-.61,1.16,1.16,0,0,1,1.05.54,2.07,2.07,0,0,1,.16,1.06v2h-.37v-2c0-.59,0-1.3-.88-1.3a1.06,1.06,0,0,0-.93.5,1.44,1.44,0,0,0-.16.8v2Z"/><path class="cls-2" d="M203,205.56a2.3,2.3,0,0,1-1,.21,1.72,1.72,0,0,1-1.79-1.85,1.74,1.74,0,0,1,1.77-1.85,1.79,1.79,0,0,1,1,.27l-.1.34a1.49,1.49,0,1,0-.86,2.75,2,2,0,0,0,1-.25Z"/><path class="cls-2" d="M203.84,205.67v-4.92h.37v1.93a1.32,1.32,0,0,1,1.13-.61,1.16,1.16,0,0,1,1,.54,2.12,2.12,0,0,1,.16,1.06v2h-.37v-2c0-.59,0-1.3-.88-1.3a1.07,1.07,0,0,0-.93.5,1.51,1.51,0,0,0-.16.8v2Z"/><path class="cls-2" d="M207.69,202.35a2.12,2.12,0,0,1,1.07-.28,1.49,1.49,0,0,1,1.18.46,1.27,1.27,0,0,1,.21.85V205a1.53,1.53,0,0,0,.12.63h-.39a1.34,1.34,0,0,1-.1-.61,1.55,1.55,0,0,1-1.32.71,1,1,0,0,1-1.11-1c0-.26,0-.92,1.11-1.1.15,0,.85-.12,1-.16a.35.35,0,0,0,.32-.39c0-.49-.5-.69-1-.69a1.88,1.88,0,0,0-1,.3Zm2.09,1.35c-.15.09-.23.1-.92.21s-1.13.17-1.13.82a.66.66,0,0,0,.76.7,1.42,1.42,0,0,0,1.29-.9Z"/><path class="cls-2" d="M211.17,205.67v-3.5h.37v.51a1.3,1.3,0,0,1,1.13-.61,1.16,1.16,0,0,1,1.05.54,2.07,2.07,0,0,1,.16,1.06v2h-.37v-2c0-.59,0-1.3-.88-1.3a1.06,1.06,0,0,0-.93.5,1.44,1.44,0,0,0-.16.8v2Z"/><path class="cls-2" d="M217.71,202.43a.74.74,0,0,0-.57.15,1.15,1.15,0,0,1-1.1,1.77l-.28,0c-.34.12-.53.3-.53.46s.08.22.31.26.37,0,1,.08c.91.06,1.22.51,1.22,1,0,1.09-1.35,1.09-1.6,1.09-1,0-1.55-.42-1.55-1a1.08,1.08,0,0,1,.57-.94.46.46,0,0,1-.31-.43.84.84,0,0,1,.48-.65,1,1,0,0,1-.63-1,1.19,1.19,0,0,1,1.32-1.13,1.63,1.63,0,0,1,.87.25,1,1,0,0,1,.67-.25h.15Zm-1.81,3c-.75,0-.93.45-.93.77,0,.57.59.75,1.18.75.93,0,1.22-.39,1.22-.74C217.37,205.6,216.91,205.42,215.9,205.42Zm-.83-2.19c0,.49.42.78.94.78a.85.85,0,0,0,1-.8.83.83,0,0,0-.93-.81A.86.86,0,0,0,215.07,203.23Z"/><path class="cls-2" d="M218.62,204a1.28,1.28,0,0,0,1.4,1.39,2.08,2.08,0,0,0,1-.25v.38a2.53,2.53,0,0,1-1.05.21,1.86,1.86,0,0,1-.18-3.7,1.4,1.4,0,0,1,1.33.88,2.68,2.68,0,0,1,.2,1.09Zm2.36-.33c-.07-.88-.58-1.3-1.16-1.3a1.25,1.25,0,0,0-1.2,1.3Z"/><path class="cls-2" d="M224.68,201.5h-.48V201h.48Zm-.05,4.17h-.38v-3.5h.38Z"/><path class="cls-2" d="M225.84,201.17h.37v1h1.12v.33h-1.12v2.22c0,.43,0,.71.63.71a4,4,0,0,0,.42,0v.33a3.79,3.79,0,0,1-.45,0c-.88,0-1-.45-1-1.06V202.5h-.46v-.33h.46Z"/><path class="cls-2" d="M228.58,205v.67H228V205Z"/></g></svg>