<svg xmlns="http://www.w3.org/2000/svg" viewBox="0 0 306.28 148.45"><defs><style>.cls-1{fill:#231815;}.cls-2,.cls-4,.cls-7,.cls-8,.cls-9{fill:none;stroke-miterlimit:10;}.cls-2{stroke:#717071;}.cls-3{fill:#dbdcdc;}.cls-4,.cls-7{stroke:#fff;}.cls-5{fill:#b1def6;opacity:0.61;}.cls-6{fill:#fff;}.cls-7{stroke-width:1.65px;}.cls-8{stroke:#dbdcdc;}.cls-9{stroke:#231815;}</style></defs><title>win10-6</title><g id="レイヤー_1" data-name="レイヤー 1"><path class="cls-1" d="M68.62,19.81a9.1,9.1,0,0,1-2,1.33v.29h3.36v.4H66.58V23.6c0,.55-.32.55-.65.55H64.59l-.1-.48h1.33c.27,0,.32,0,.32-.24V21.83h-3.5v-.4h3.5v-.7h.36a7,7,0,0,0,1.44-.91h-4v-.39h4.73Zm1.14-1.61v1.66h-.47V18.57h-6v1.29h-.46V18.2h5.08a8.29,8.29,0,0,0,.7-1.32l.43.17a8.43,8.43,0,0,1-.64,1.15Zm-5.63-.11a5.2,5.2,0,0,0-.61-1l.37-.17a6.23,6.23,0,0,1,.64,1ZM66.24,18a9.76,9.76,0,0,0-.61-1l.4-.16a6.39,6.39,0,0,1,.61,1Z"/><path class="cls-1" d="M74.51,16.81V18h3.08v5.39c0,.58-.1.72-.64.72H75.62l-.09-.45,1.36,0c.2,0,.24,0,.24-.25v-5H74.54c.08.81.41,2,2.43,3.53l-.34.35a6.92,6.92,0,0,1-2.33-3,4.51,4.51,0,0,1-2.44,3l-.27-.38A4,4,0,0,0,74,18.43H71.43v5.72H71V18h3.07V16.81Z"/><path class="cls-1" d="M82,17h.48v1.19h2.28v.41a10.63,10.63,0,0,1-2.28,2.15v3.1H82V21.11a12.79,12.79,0,0,1-3,1.36L78.83,22a10.37,10.37,0,0,0,5.31-3.33H79.35v-.44H82Zm3.44,5.35A13.66,13.66,0,0,0,83.1,21l.27-.36A18.61,18.61,0,0,1,85.71,22Z"/><path class="cls-1" d="M88.45,21.22a6.47,6.47,0,0,0-.65-1.92l.43-.13a7.31,7.31,0,0,1,.67,1.93Zm0,2.28c1.52-.31,3.61-.93,4.06-4.5l.46.09c-.57,3.2-1.93,4.23-4.24,4.78Zm1.76-2.64A8.19,8.19,0,0,0,89.67,19l.41-.11a13.25,13.25,0,0,1,.58,1.87Z"/><path class="cls-1" d="M101.12,21.43a19.31,19.31,0,0,0-3.74-1.76v4.21h-.52V17h.52v2.13a23.88,23.88,0,0,1,4,1.76Z"/><path class="cls-1" d="M109.21,17.58V18c0,2.29-.48,3.36-1.18,4.1a6.55,6.55,0,0,1-3.55,1.64l-.18-.44c3.78-.79,4.37-2.33,4.39-5.29h-4.84v2.39h-.49V17.58Z"/><path class="cls-1" d="M117.73,20.21v.52h-6.89v-.52Z"/><path class="cls-1" d="M119.6,23.36a5.93,5.93,0,0,0,5-5.35H121.5a7.44,7.44,0,0,1-2.13,2.26l-.31-.39a6.54,6.54,0,0,0,2.11-2.32h4a6.45,6.45,0,0,1-5.33,6.27Z"/><path class="cls-1" d="M128.19,17.29a13.94,13.94,0,0,0-.38,3.6,10.45,10.45,0,0,0,.26,2.82l-.53.06a15.15,15.15,0,0,1-.22-2.83,15.27,15.27,0,0,1,.35-3.7Zm2,3.4a2.06,2.06,0,0,0-.41,1.15c0,.87,1,.93,1.9.93a16.08,16.08,0,0,0,1.72-.09v.52c-.23,0-.88.07-1.53.07-1,0-2.54-.07-2.54-1.42a2.57,2.57,0,0,1,.41-1.31Zm3-2.76v.47H129.6v-.47Z"/><path class="cls-1" d="M137.1,20.7a7.24,7.24,0,0,1-1,.43v2.49c0,.13,0,.53-.56.53h-.76l-.1-.45h.75c.15,0,.23,0,.23-.24V21.3c-.66.24-.8.28-1,.34l-.1-.44c.28-.07.52-.13,1.12-.33v-2.1h-1v-.41h1V16.81h.44v1.55h1v.41h-1v1.94c.42-.16.72-.3.94-.4Zm4.79.16v.38h-.84a5.46,5.46,0,0,1-.85,1.63,7.41,7.41,0,0,1,1.57.88l-.23.44a7.46,7.46,0,0,0-1.66-1,5.79,5.79,0,0,1-2.86.93l-.12-.45a5.41,5.41,0,0,0,2.5-.68,15.73,15.73,0,0,0-2-.63,10.29,10.29,0,0,0,.81-1.12H137v-.38h1.47a6.37,6.37,0,0,0,.44-.86l.43.13c-.09.16-.19.36-.41.73Zm-2.24-4.05v.8h2.07V18h-.8a11.93,11.93,0,0,1-.44,1.4h1.41v.4H137v-.4h1.41c-.06-.2-.29-1-.41-1.4h-.77v-.39h2v-.8Zm-1,4.43a9.25,9.25,0,0,1-.63.91,10,10,0,0,1,1.77.55,3.75,3.75,0,0,0,.83-1.46Zm1.41-1.84c.15-.35.4-1.28.44-1.4h-2.11c.13.43.28.92.41,1.4Z"/><path class="cls-1" d="M145.1,17.69a25.62,25.62,0,0,1-1.46,2.63l1.29-.08a5.76,5.76,0,0,0-.25-.57l.33-.14a8.57,8.57,0,0,1,.54,1.33l-.35.16a4,4,0,0,0-.16-.49c-.17,0-.58.07-.77.09v3.54h-.42v-3.5c-.6.05-.93.05-1.2.05l-.05-.38c.43,0,.51,0,.63,0,.28-.42.41-.64.51-.81a9.21,9.21,0,0,0-1.1-1l.23-.31.26.19a12.71,12.71,0,0,0,.68-1.57l.37.16a14.6,14.6,0,0,1-.78,1.65c.09.08.38.35.54.53.22-.4.55-1.08.81-1.63Zm-2.45,5.78a6.53,6.53,0,0,0,.4-2.1l.38,0a6.7,6.7,0,0,1-.43,2.26Zm2.3-.18a11.53,11.53,0,0,0-.29-2l.36,0a8.84,8.84,0,0,1,.34,2Zm2.22-2.45c0,1.86-.35,2.68-1.67,3.33l-.27-.39c1.33-.6,1.51-1.34,1.51-2.94Zm.71-4v.78H150V18h-2.07v.86h1.82v.39h-4v-.39h1.75V18h-2v-.38h2v-.78Zm1.88,4.29h-.45v-.84H146.1v.84h-.46V19.88h4.12Zm-1.33-.26v2.59c0,.19,0,.27.21.27h.49c.24,0,.36,0,.36-1.23l.44.18c0,1.14-.12,1.46-.62,1.46h-.7c-.61,0-.61-.42-.61-.59V20.84Z"/><path class="cls-1" d="M64.68,29.16c-.08,2.48-.09,3.08-.09,3.8,0,1.1,0,2.33,1.67,2.33,2.21,0,2.48-1.44,2.72-2.74l.46.11c-.19,1.12-.51,3.09-3.06,3.09-2.08,0-2.32-1.18-2.32-2.87,0-.59,0-3.19.06-3.71Z"/><path class="cls-1" d="M70.82,35.72a17.63,17.63,0,0,0,1.43-5H71v-.46H72.3c0-.18.11-1,.12-1.13l.54,0c0,.28,0,.36-.13,1.11h2.39v.46H72.77a21.3,21.3,0,0,1-1.45,5.24Zm3.53-2.12a1.37,1.37,0,0,0-.29.81c0,.85,1,.85,2,.85.52,0,1.06,0,1.61-.06v.5l-1.57,0c-1,0-2.51,0-2.51-1.34a1.87,1.87,0,0,1,.35-1Zm3.1-1.86a7.29,7.29,0,0,0-.76,0,6.48,6.48,0,0,0-2.27.35l-.13-.43a7.44,7.44,0,0,1,3.16-.39Z"/><path class="cls-1" d="M79,35.55A20.33,20.33,0,0,0,80.36,31H79v-.46h1.44c.1-.64.14-.91.21-1.48l.53,0c-.09.53-.1.6-.25,1.45h1c.76,0,1.75,0,1.75,1.91A7.3,7.3,0,0,1,83.26,35a1.24,1.24,0,0,1-1.32.78,8.39,8.39,0,0,1-1-.06v-.51a3.62,3.62,0,0,0,.88.1.91.91,0,0,0,1-.5,6,6,0,0,0,.37-2.23c0-1.53-.51-1.52-1.69-1.52h-.61a21.93,21.93,0,0,1-1.43,4.73Zm6.29-2.32A5,5,0,0,0,84,30.09l.38-.24a5.27,5.27,0,0,1,1.37,3.29Z"/><path class="cls-1" d="M90.28,35.27c.91-.12,2.94-.36,2.94-2.75a2.5,2.5,0,0,0-2.7-2.68,10,10,0,0,1-1.08,4.35c-.44.69-.89.92-1.25.92-.78,0-1.37-1-1.37-2.18a3.42,3.42,0,0,1,3.67-3.53,2.94,2.94,0,0,1,3.24,3.1c0,2.37-1.77,3.08-3.29,3.23Zm-1.73-4.9a3,3,0,0,0-1.27,2.56c0,.66.25,1.68.89,1.68.25,0,.54-.15.88-.69a9.42,9.42,0,0,0,1-4.06A2.83,2.83,0,0,0,88.55,30.37Z"/><path class="cls-1" d="M98.56,33a7.1,7.1,0,0,1,3,1.79l-.36.45a6.42,6.42,0,0,0-2.6-1.73v.68c0,.56,0,1.54-1.63,1.54-.24,0-1.84,0-1.84-1.37,0-1.17,1.25-1.52,2.24-1.52a3.74,3.74,0,0,1,.72.07l0-3.87h.5v1.41l2.82,0V31H98.55Zm-.46.39a4,4,0,0,0-.86-.09c-.75,0-1.66.3-1.66,1.06,0,.91,1.16.91,1.38.91,1.12,0,1.12-.6,1.13-1.05Z"/><path class="cls-1" d="M104.4,35.41c1.69,0,4-.19,4-2.37a1.38,1.38,0,0,0-1.56-1.57,28.44,28.44,0,0,0-3.19.4l0-.55c.55-.05,2.89-.31,3.37-.31a1.7,1.7,0,0,1,1.33.39,2.06,2.06,0,0,1,.62,1.6c0,2.78-2.83,2.88-4.38,2.9Zm3.75-5.33a12.07,12.07,0,0,0-3.68-.6l.06-.46a12.46,12.46,0,0,1,3.79.57Z"/><path class="cls-1" d="M112.19,29.29a13.94,13.94,0,0,0-.38,3.6,10.45,10.45,0,0,0,.26,2.82l-.53.06a15.15,15.15,0,0,1-.22-2.83,15.27,15.27,0,0,1,.35-3.7Zm2,3.4a2.06,2.06,0,0,0-.41,1.15c0,.87,1,.93,1.9.93a16.08,16.08,0,0,0,1.72-.09v.52c-.23,0-.88.07-1.53.07-1,0-2.54-.07-2.54-1.42a2.57,2.57,0,0,1,.41-1.31Zm3-2.76v.47H113.6v-.47Z"/><path class="cls-1" d="M120.89,31h1.53v.39h-1.5a7,7,0,0,0,1.38,1.86l-.25.4a7.84,7.84,0,0,1-1.16-1.58v4.09h-.42v-4a7.7,7.7,0,0,1-1.69,2.33l-.23-.49a6.93,6.93,0,0,0,1.87-2.63h-1.79V31h1.84V29.65c-.72.12-1.2.15-1.54.18l-.16-.42a11.82,11.82,0,0,0,3.36-.57l.25.33a7.17,7.17,0,0,1-1.49.41Zm2.6-1.57v5H123v-5Zm2.2-.59v6.73c0,.18,0,.57-.58.57H123.9l-.12-.48,1.1.06c.3,0,.35,0,.35-.27V28.82Z"/><path class="cls-1" d="M133.49,35.48c0,.43-.12.66-.56.66h-1.1l-.05-.44h1.07c.18,0,.18-.16.18-.24V33.6h-2.42v2.45h-.43V33.6h-2.4a4.84,4.84,0,0,1-.9,2.54l-.31-.31a4.66,4.66,0,0,0,.8-3.14V29.15h6.12Zm-3.31-4h-2.35v1.09c0,.37,0,.47,0,.62h2.37Zm0-2h-2.35v1.59h2.35Zm2.85,0h-2.42v1.59H133Zm0,2h-2.42v1.71H133Z"/><path class="cls-1" d="M141.53,30.1c-.42,0-.64-.05-.88-.05a1.73,1.73,0,0,0-.74.1c-1.27.45-2.85,1.71-2.85,3.16,0,.93.47,1.9,3.74,1.9l-.13.52c-1.74-.08-4.11-.31-4.11-2.36,0-1.77,1.77-2.87,2.62-3.33-.7,0-3.38.18-4.19.27l-.06-.52c.35,0,1.41-.06,2.27-.1,2.14-.1,2.69-.1,4.33-.1Zm-1.55,1a7.44,7.44,0,0,1,.86,1.49l-.43.26a7.63,7.63,0,0,0-.82-1.51Zm1.09-.44a7.61,7.61,0,0,1,.88,1.47l-.42.27a7.12,7.12,0,0,0-.84-1.5Z"/><path class="cls-1" d="M149.54,32a17.26,17.26,0,0,1-2.28.22,7.12,7.12,0,0,0,.93,1.52l-.41.32a8.27,8.27,0,0,1-1.06-1.82c-.42,0-1.09.05-1.56,0l-2.15,0v-.47l2.14,0c.45,0,.9,0,1.4,0a8.77,8.77,0,0,1-.33-1.1c-.44,0-.76,0-1.22,0h-1.69v-.47H145l1.17,0c-.08-.43-.11-.66-.16-1h.53a9.13,9.13,0,0,0,.14,1,22.09,22.09,0,0,0,2.29-.22l0,.49a20.63,20.63,0,0,1-2.23.19,8.67,8.67,0,0,0,.32,1.09,15.34,15.34,0,0,0,2.45-.26Zm-4.88,1.52a1.11,1.11,0,0,0-.45.78c0,1,1.6,1,2.9,1,.87,0,1.29,0,1.65-.07v.47a13.72,13.72,0,0,1-1.58.06,5.81,5.81,0,0,1-2.58-.32,1.31,1.31,0,0,1-.9-1.13,1.68,1.68,0,0,1,.61-1.17Z"/><path class="cls-1" d="M156,29.77l-.66.53-1.88,1.54a4.15,4.15,0,0,1,1.68-.35,1.84,1.84,0,0,1,2.11,1.93c0,1.57-1.39,2.33-2.76,2.33-1.15,0-2-.51-2-1.28a1.14,1.14,0,0,1,1.27-1,1.91,1.91,0,0,1,1.9,1.68,1.74,1.74,0,0,0,1.13-1.68A1.49,1.49,0,0,0,155,31.91a5.41,5.41,0,0,0-3.69,1.83l-.28-.4c.36-.28,2.32-1.85,4.22-3.56-1.11.09-1.83.13-3.45.15v-.45c1.57,0,2.5,0,4.16-.15Zm-1.1,4.68a1.47,1.47,0,0,0-1.2-.62c-.53,0-.8.32-.8.63,0,.54.76.9,1.62.9a2.7,2.7,0,0,0,.7-.09A1.79,1.79,0,0,0,154.9,34.45Z"/><path class="cls-1" d="M161.13,34.77A1.13,1.13,0,1,1,160,33.64,1.14,1.14,0,0,1,161.13,34.77Zm-1.91,0A.78.78,0,1,0,160,34,.78.78,0,0,0,159.22,34.77Z"/><path class="cls-1" d="M64.15,44v2c0,1.29,1,1.62,2.15,1.62H70L70,48H66.3c-1.69,0-2.15-.8-2.32-1.09a8.41,8.41,0,0,1-1.14,1.22l-.26-.42a4.84,4.84,0,0,0,1.13-1.13V44.41H62.63V44Zm0-1.59a7.54,7.54,0,0,0-1.4-1.2l.25-.31a6.43,6.43,0,0,1,1.43,1.19Zm5.52.31v3.88c0,.16,0,.55-.6.55h-.77l-.08-.45.76,0c.26,0,.27-.08.27-.24v-.92H67.58V47h-.4V45.55H65.45v1.59H65V42.71h2A6.87,6.87,0,0,0,65.93,42l.24-.33a6.3,6.3,0,0,1,1.11.69,9.51,9.51,0,0,0,1.57-.87H64.93V41.1h4.62v.37a7.16,7.16,0,0,1-2,1.12l.14.12Zm-2.54.36H65.45v.85h1.73Zm0,1.24H65.45v.86h1.73Zm2.12-1.24H67.58v.85H69.3Zm0,1.24H67.58v.86H69.3Z"/><path class="cls-1" d="M72,48.15h-.44V43.56a4.38,4.38,0,0,1-.7,1.07l-.28-.43A6.89,6.89,0,0,0,72,40.85l.42.08A13.91,13.91,0,0,1,72,42.56Zm6-5.63H72.48v-.39H78ZM77.58,48H73V45.5h4.63Zm-.13-6.57H73.06v-.39h4.39Zm0,2.15H73.06v-.38h4.39Zm0,1.14H73.06v-.38h4.39Zm-.32,1.15H73.39v1.74h3.74Z"/><path class="cls-1" d="M81.31,41.71a17.22,17.22,0,0,1-1.52,2.53c.47,0,.78,0,1.15-.05-.08-.23-.15-.39-.22-.56l.35-.15a4.93,4.93,0,0,1,.46,1.25l-.39.14c0-.15-.06-.22-.08-.32l-.68.05v3.55H80V44.61l-1.29,0-.05-.42h.68l.45-.62a7.2,7.2,0,0,0-1.15-1.11l.22-.3a2.45,2.45,0,0,1,.29.22,9.37,9.37,0,0,0,.86-1.6l.39.15a9.4,9.4,0,0,1-1,1.71c0,.06.4.39.57.6a16,16,0,0,0,1-1.72Zm-2.69,5.7a5.74,5.74,0,0,0,.46-2.06l.39,0A7,7,0,0,1,79,47.59ZM81.3,47a8.53,8.53,0,0,0-.43-1.53l.33-.17a6.57,6.57,0,0,1,.49,1.59Zm4.33-1.12H83.94v1.56h2v.4H81.42v-.4H83.5V45.83H81.86v-.41H83.5v-.94h.44v.94h1.69Zm.17-1a5.75,5.75,0,0,1-2.06-1,6.22,6.22,0,0,1-1.88,1l-.23-.39a6.15,6.15,0,0,0,1.79-.92,4.93,4.93,0,0,1-1.24-1.68l.38-.15a4.14,4.14,0,0,0,1.18,1.58A4.47,4.47,0,0,0,85,41.56H81.69v-.4h3.8v.37a4.9,4.9,0,0,1-1.42,2,5.4,5.4,0,0,0,1.94.88Z"/><path class="cls-1" d="M89.56,47.12c-1,.32-1.89.56-2.86.79l-.12-.44.4-.08v-3h.41v3l.62-.16V43.6H86.83V41.19h2.5V43.6h-.91v1.27h1v.41h-1v1.77c.53-.14.73-.2,1.14-.33Zm-.63-5.56H87.24v1.68h1.69Zm4.93,3.27a7.93,7.93,0,0,1-2.08-1.07,9.16,9.16,0,0,1-2.09,1.1l-.23-.39a7.78,7.78,0,0,0,2-1,7.1,7.1,0,0,1-1-1.06,3.28,3.28,0,0,1-.66.49l-.22-.34a3.72,3.72,0,0,0,1.55-1.75l.39.09a3.82,3.82,0,0,1-.32.61h2.35v.37a5.36,5.36,0,0,1-1.38,1.6,6.5,6.5,0,0,0,1.94.92ZM93.45,48H90.11V45.13h3.34ZM93,45.51H90.54v2.13H93ZM90.89,41.9c-.08.11-.19.22-.24.28a7.53,7.53,0,0,0,1.12,1.07A4.93,4.93,0,0,0,93,41.9Z"/><path class="cls-1" d="M99.88,42.3v.45H97.1l0,1.65H98.5a4.54,4.54,0,0,0,1.28-.15l0,.44a4.82,4.82,0,0,1-1.28.14H97.07v.25c0,1.83,0,2.21,1.82,2.21.78,0,2.11,0,2.11-1.72a4.45,4.45,0,0,0-.5-1.87l.44-.1a4.5,4.5,0,0,1,.53,2,2,2,0,0,1-1.17,2,4.51,4.51,0,0,1-1.42.18c-2.29,0-2.27-.86-2.27-2.67v-.25H95V44.4h1.59V42.75H95.16V42.3h1.48V41.11h.46V42.3Z"/><path class="cls-1" d="M105.14,41.15v6.21H103V41.15Zm-.42.38h-1.36V44h1.36Zm0,2.82h-1.36V47h1.36Zm5.23-.56H105.4v-.41h1a12.92,12.92,0,0,0-.3-1.35h-.55v-.39h1.86v-.82h.41v.82h1.94V42h-.67a9.06,9.06,0,0,1-.3,1.35H110ZM109.49,48h-3.6V44.53h3.6Zm-.4-3.1h-2.78v1.18h2.78Zm0,1.53h-2.78v1.22h2.78Zm-.64-3a7.18,7.18,0,0,0,.28-1.35h-2.19c.1.41.22,1,.29,1.35Z"/><path class="cls-1" d="M117.1,45.41c-.19,2-.41,2.35-.62,2.52a1.53,1.53,0,0,1-.85.21h-1l-.1-.47,1.14,0a.64.64,0,0,0,.58-.26,5.39,5.39,0,0,0,.37-1.64h-5.09a6.14,6.14,0,0,0,.75-1.36h-1.64V44h7.3v.4h-5.19a6.26,6.26,0,0,1-.48,1Zm0-2.22h-5.65V41.12h5.65Zm-.44-1.68h-4.76v1.27h4.76Z"/><path class="cls-1" d="M120.27,48.15h-.45V43.58a5.8,5.8,0,0,1-1,1.1l-.28-.41a7,7,0,0,0,2.15-3.42l.46.11a10,10,0,0,1-.87,1.91Zm5.46-5.44a7.38,7.38,0,0,1-3,1.48v2.92c0,.3,0,.41.4.41H125a.36.36,0,0,0,.41-.29,8.23,8.23,0,0,0,.1-1.21l.49.09c0,1.64-.3,1.84-.84,1.84H123c-.54,0-.72-.18-.72-.57V40.82h.45v3a7.15,7.15,0,0,0,2.71-1.41Z"/><path class="cls-1" d="M132.09,45.44a8.47,8.47,0,0,1-1.42-2.53h-3.62v-.48l2.09.05h1.38a11.33,11.33,0,0,1-.34-1.38l.52,0a8.5,8.5,0,0,0,.32,1.39,12.55,12.55,0,0,0,2.43-.29l.08.46a11.71,11.71,0,0,1-2.36.25,7,7,0,0,0,1.33,2.25Zm-3.32-.52a1.35,1.35,0,0,0-.86,1.08c0,1.28,1.87,1.28,2.67,1.28a16.93,16.93,0,0,0,2.12-.13l0,.47a17.28,17.28,0,0,1-2.14.12,4.31,4.31,0,0,1-2.31-.4,1.48,1.48,0,0,1-.84-1.31,1.65,1.65,0,0,1,1.06-1.48Z"/><path class="cls-1" d="M134.81,46a6.24,6.24,0,0,0,1.62-2.45c0-.15,0-.2,0-.68l-1.43,0v-.47h1.44c0-.07,0-1.18,0-1.31h.48c0,.57-.05,1.16-.05,2.1a4.06,4.06,0,0,1,2.73-1.61,1.07,1.07,0,0,1,1.08,1.21c0,.17,0,.38,0,.5l-.07,1.08c-.06,1-.06,1.13-.06,1.5,0,.71,0,1.13,1.25,1.11l-.17.46c-1.48,0-1.57-.65-1.57-1.43,0-.38,0-.51.08-1.69l.07-1.1c0-.45.07-1.2-.67-1.2-.51,0-1.41.31-2.66,1.78,0,1.25,0,2.94,0,3.38v.57h-.48c0-.46,0-2.71,0-3.23a7.5,7.5,0,0,1-1.25,1.87Z"/><path class="cls-1" d="M148,41.77l-.66.53-1.88,1.54a4.15,4.15,0,0,1,1.68-.35,1.84,1.84,0,0,1,2.11,1.93c0,1.57-1.39,2.33-2.76,2.33-1.15,0-2-.51-2-1.28a1.14,1.14,0,0,1,1.27-1,1.91,1.91,0,0,1,1.9,1.68,1.74,1.74,0,0,0,1.13-1.68A1.49,1.49,0,0,0,147,43.91a5.41,5.41,0,0,0-3.69,1.83l-.28-.4c.36-.28,2.32-1.85,4.22-3.56-1.11.09-1.83.13-3.45.15v-.45c1.57,0,2.5,0,4.16-.15Zm-1.1,4.68a1.47,1.47,0,0,0-1.2-.62c-.53,0-.8.32-.8.63,0,.54.76.9,1.62.9a2.7,2.7,0,0,0,.7-.09A1.79,1.79,0,0,0,146.9,46.45Z"/><path class="cls-1" d="M153.13,46.77A1.13,1.13,0,1,1,152,45.64,1.14,1.14,0,0,1,153.13,46.77Zm-1.91,0A.78.78,0,1,0,152,46,.78.78,0,0,0,151.22,46.77Z"/><path class="cls-2" d="M161.33,57.39H95.79L83,77.59V57.39H58.79a5.69,5.69,0,0,1-5.66-5.67V15.24a5.68,5.68,0,0,1,5.66-5.67H161.33A5.68,5.68,0,0,1,167,15.24V51.72A5.69,5.69,0,0,1,161.33,57.39Z"/><path class="cls-3" d="M78.64,100.51c-1.46,0-2.65-3.34-2.65-7.46s1.19-7.45,2.65-7.45H206.51c1.46,0,2.64,3.34,2.64,7.45s-1.18,7.46-2.64,7.46Z"/><ellipse class="cls-4" cx="78.64" cy="93.05" rx="2.64" ry="7.46"/><path class="cls-1" d="M27,123.44a9.1,9.1,0,0,1-2,1.33v.29h3.36v.4H24.93v1.77c0,.55-.32.55-.66.55H22.94l-.1-.49,1.33,0c.26,0,.32,0,.32-.24v-1.61H21v-.4h3.5v-.7h.35a6.7,6.7,0,0,0,1.44-.91h-4v-.39H27Zm1.13-1.61v1.66h-.46V122.2h-6v1.29h-.45v-1.66h5.08a8.29,8.29,0,0,0,.7-1.32l.43.17a8.43,8.43,0,0,1-.64,1.15Zm-5.62-.12a6,6,0,0,0-.61-1l.37-.17a7,7,0,0,1,.64,1Zm2.11-.12a11.81,11.81,0,0,0-.61-1l.4-.16a6.69,6.69,0,0,1,.61,1Z"/><path class="cls-1" d="M28.84,124a5.85,5.85,0,0,0,1.69-3.57l.44,0a6.81,6.81,0,0,1-.22,1.06h2.32a7.5,7.5,0,0,1-3.73,6.21l-.32-.36a6.45,6.45,0,0,0,2.45-2.23,9.65,9.65,0,0,0-1.58-1.75,5.77,5.77,0,0,1-.69.86ZM30.62,122a6.39,6.39,0,0,1-.51,1.13,11.88,11.88,0,0,1,1.61,1.7A7.26,7.26,0,0,0,32.6,122Zm5.54,3.67a8.32,8.32,0,0,1-1.29-.76v2.91H34.4V124.5A5.42,5.42,0,0,1,33,122.88l.34-.25a5.87,5.87,0,0,0,1,1.3v-3.49h.47v3.89a6.12,6.12,0,0,0,1.48.85Z"/><path class="cls-1" d="M40.63,126.9c.91-.12,2.94-.36,2.94-2.75a2.51,2.51,0,0,0-2.7-2.68,10,10,0,0,1-1.08,4.35c-.44.69-.89.92-1.26.92-.77,0-1.37-.95-1.37-2.18A3.42,3.42,0,0,1,40.83,121a2.93,2.93,0,0,1,3.24,3.1c0,2.37-1.76,3.08-3.28,3.23ZM38.89,122a3,3,0,0,0-1.26,2.56c0,.66.25,1.68.89,1.68.25,0,.54-.15.87-.69a9.48,9.48,0,0,0,1-4.06A2.86,2.86,0,0,0,38.89,122Z"/><path class="cls-1" d="M44.85,126.24A7.65,7.65,0,0,0,46,123.08l.43.14a8.47,8.47,0,0,1-1.1,3.28Zm6.54-5.4a12.44,12.44,0,0,1-3.8,5.31V127c0,.12,0,.24.28.24h1.72c.32,0,.39,0,.48-.19a7.4,7.4,0,0,0,.24-1.42l.48.13c-.23,1.4-.24,1.48-.36,1.65s-.41.26-.78.26H47.72c-.17,0-.6,0-.6-.51v-.67a7.92,7.92,0,0,1-2,1.09l-.26-.43a7.8,7.8,0,0,0,2.24-1.25v-3.62h.47v3.25A11.45,11.45,0,0,0,51,120.61Zm-1.92,1a8.49,8.49,0,0,0-2.45-1l.24-.42a12.38,12.38,0,0,1,2.44,1Zm2.27,4.8a10.61,10.61,0,0,0-.92-3.57l.44-.17a13.2,13.2,0,0,1,1,3.63Z"/><path class="cls-1" d="M55.35,124.34c-.5.24-.78.35-.93.41v2.42c0,.4-.14.61-.57.61h-.76l-.09-.47.63,0c.21,0,.36,0,.36-.3v-2.11c-.28.11-.55.2-1,.33l-.12-.43c.42-.12.74-.22,1.09-.35v-2H53V122h1v-1.55h.43V122h.87v.4h-.87v1.89c.38-.14.65-.27.85-.36Zm4.71,1.42c-.09,2-.39,2-1,2h-.78l-.14-.47.9,0c.27,0,.43,0,.49-1.21H58.24c.06-.18.14-.47.23-.87h-1.3a3.2,3.2,0,0,1-1.89,2.57l-.27-.4a2.52,2.52,0,0,0,1.71-2.17H55.4v-.38H59a7.7,7.7,0,0,1-.25.89Zm-5-2.93a6.85,6.85,0,0,0,1.44-2.46l.41.09c-.11.29-.2.49-.33.77h1.22a5.14,5.14,0,0,0,.38-.82l.41.09a5.17,5.17,0,0,1-.33.73h1.77v.35H58.31v.58h1.56v.33H58.31v.58h1.56v.33H58.31V124h2v.33H56v-1.93a4.24,4.24,0,0,1-.55.69Zm1.36-1.25a.5.5,0,0,0-.08.15v.43h1.52v-.58Zm1.44.91H56.39v.58h1.52Zm0,.91H56.39V124h1.52Z"/><path class="cls-1" d="M65.07,120.9A1.74,1.74,0,0,1,67,122.71c0,1.2-.8,1.8-2,1.8H63.82v2.64H63.3V120.9ZM64.76,124c.6,0,1.71,0,1.71-1.32s-1.08-1.35-1.71-1.35h-.94V124Z"/><path class="cls-1" d="M73.05,126.86a4.06,4.06,0,0,1-1.83.42,3.26,3.26,0,1,1,0-6.51,3.38,3.38,0,0,1,1.85.52l-.19.47a2.71,2.71,0,0,0-1.66-.52,2.79,2.79,0,1,0,.08,5.57,3,3,0,0,0,1.8-.53Z"/><path class="cls-1" d="M12.58,139.9a5.74,5.74,0,0,1,0-7.58h.47a6,6,0,0,0,0,7.58Z"/><path class="cls-1" d="M14,132.9l2.31,5.79,2.29-5.79h.56l-2.51,6.25H16l-2.52-6.25Z"/><path class="cls-1" d="M21.78,132.9a1.74,1.74,0,0,1,1.93,1.81c0,1.2-.8,1.8-2,1.8H20.52v2.64H20V132.9ZM21.47,136c.59,0,1.71,0,1.71-1.32s-1.08-1.35-1.71-1.35h-.95V136Z"/><path class="cls-1" d="M25.63,132.9l4,5.83V132.9h.52v6.25h-.82l-4-5.83v5.83H24.8V132.9Z"/><path class="cls-1" d="M35.15,135.81a9.27,9.27,0,0,0-1.39-2.19l.43-.23a9.19,9.19,0,0,1,1.45,2.16Zm-.71,3.09c3.71-.75,4.53-3.68,4.92-5.75l.53.07c-.41,2-1.18,5.16-5.14,6.11Z"/><path class="cls-1" d="M47.89,133.29a6.84,6.84,0,0,1-1.42,4.09,6.13,6.13,0,0,1-3.63,2l-.18-.45c3.62-.74,4.52-3,4.68-5.12H41.81v-.47Z"/><path class="cls-1" d="M55.65,137.06a19.31,19.31,0,0,0-3.74-1.76v4.21H51.4v-6.84h.51v2.13a23.88,23.88,0,0,1,4,1.76Z"/><path class="cls-1" d="M63.61,133.56V134H60a4.45,4.45,0,0,1-.6,1.35,2.41,2.41,0,0,1,1.47-.56,1,1,0,0,1,1.13,1l2.1-.82.17.49c-1.26.42-1.65.56-2.21.78a8.81,8.81,0,0,1,0,1.62h-.48a8.74,8.74,0,0,0,0-1.44c-.51.24-1.89.89-1.89,1.71s1,.79,1.91.79a18.33,18.33,0,0,0,2.17-.13l0,.48a19.23,19.23,0,0,1-2,.1c-.86,0-2.59,0-2.59-1.21s1.37-1.77,2.29-2.18c-.06-.36-.13-.82-.77-.82a2.66,2.66,0,0,0-1.6.81c-.09.1-1,1.36-1.27,1.59l-.34-.39a6.94,6.94,0,0,0,1.93-3.2H57.7v-.45h1.9a5.7,5.7,0,0,0,.19-1h.53c-.07.35-.11.56-.22,1Z"/><path class="cls-1" d="M68,133.83v.38H65.16v-.38Zm-.25-1.16v.38H65.44v-.38Zm0,2.26v.4H65.44v-.4Zm0,1.16v.39H65.44v-.39Zm0,1.12v2.44H65.44v-2.44Zm-.41.37H65.84v1.68h1.53Zm3.93-4.91v1.85c0,.18,0,.23.22.23h.23c.16,0,.26-.07.31-.95l.42.14c-.07.93-.18,1.23-.6,1.23h-.5c-.39,0-.49-.16-.49-.5v-1.6H69.35a2.63,2.63,0,0,1-.89,2.43l-.31-.33c.78-.59.78-1.25.78-2.36v-.14Zm1,7.11a7.41,7.41,0,0,1-2-1.07,5.82,5.82,0,0,1-1.89,1l-.19-.43a4.86,4.86,0,0,0,1.73-.87,4.88,4.88,0,0,1-1.12-1.75l.38-.18a4.45,4.45,0,0,0,1.07,1.64,5,5,0,0,0,1.17-1.88H68.29v-.42h3.59v.4a6.09,6.09,0,0,1-1.29,2.19,6.07,6.07,0,0,0,1.91.91Z"/><path class="cls-1" d="M76.59,135.08h-2.3v-.41h5v.41H77v1.68h2.7v.39H77v2a4.21,4.21,0,0,0,.79.07h2.71l-.07.41H77.9a3.4,3.4,0,0,1-3.3-1.83,6.69,6.69,0,0,1-1.19,2l-.33-.33a6.88,6.88,0,0,0,1.58-3.56l.44.07a8.43,8.43,0,0,1-.3,1.3A2.72,2.72,0,0,0,76.59,139Zm.46-2.63v.7h3.33v1.65h-.46v-1.25h-6.2v1.25h-.44v-1.65h3.31v-.7Z"/><path class="cls-1" d="M81,139.9a6.12,6.12,0,0,0,1.35-3.79A6.05,6.05,0,0,0,81,132.32h.46a6,6,0,0,1,1.44,3.79,5.94,5.94,0,0,1-1.44,3.79Z"/><path class="cls-1" d="M122.9,138.42h-.51v-4a13.2,13.2,0,0,1-3.4,1.82l-.22-.48a12,12,0,0,0,5.74-4.14l.48.29A14,14,0,0,1,122.9,134Z"/><path class="cls-1" d="M129.51,133.79a9.42,9.42,0,0,0-2.45-1.12l.27-.45a9.73,9.73,0,0,1,2.46,1.11Zm-2.27,3.79a5.87,5.87,0,0,0,3.69-1.34,7.33,7.33,0,0,0,2.21-3.57l.42.33a8,8,0,0,1-2.45,3.72,6.47,6.47,0,0,1-3.79,1.41Z"/><path class="cls-1" d="M134.9,134.54a5.45,5.45,0,0,0,2.17-2.43h4a6.76,6.76,0,0,1-5.33,6.27l-.21-.46a6.39,6.39,0,0,0,3.54-2.07,11.83,11.83,0,0,0-2.75-1.78,5.93,5.93,0,0,1-1.07.85Zm2.5-2a5.16,5.16,0,0,1-.79,1.18,13.7,13.7,0,0,1,2.73,1.73,6.15,6.15,0,0,0,1.15-2.91Z"/><path class="cls-1" d="M149.57,134.77v.52h-6.89v-.52Z"/><path class="cls-1" d="M153.86,131.6h.48v1.19h2.28v.41a10.87,10.87,0,0,1-2.28,2.15v3.1h-.48v-2.79a12,12,0,0,1-3,1.36l-.19-.46a10.37,10.37,0,0,0,5.31-3.33h-4.79v-.44h2.67ZM157.3,137a13,13,0,0,0-2.36-1.35l.27-.36a17.41,17.41,0,0,1,2.34,1.27Z"/><path class="cls-1" d="M160.29,135.78a6.47,6.47,0,0,0-.65-1.92l.43-.13a7.31,7.31,0,0,1,.67,1.93Zm0,2.27c1.52-.31,3.61-.92,4.06-4.49l.46.09c-.57,3.2-1.93,4.23-4.24,4.78Zm1.76-2.63a8,8,0,0,0-.51-1.87l.41-.12a14.12,14.12,0,0,1,.58,1.87Z"/><path class="cls-1" d="M173,136a20,20,0,0,0-3.74-1.75v4.21h-.52V131.6h.52v2.13a24.25,24.25,0,0,1,4,1.76Z"/><path class="cls-1" d="M229.78,134.37a9.33,9.33,0,0,1-2,1.33V136h3.36v.41h-3.36v1.77c0,.54-.32.54-.66.54h-1.33l-.11-.48,1.34,0c.26,0,.32,0,.32-.24v-1.61h-3.5V136h3.5v-.69h.35a6.7,6.7,0,0,0,1.44-.91h-4V134h4.73Zm1.13-1.62v1.67h-.46v-1.29h-6v1.29H224v-1.67h5.07a7.16,7.16,0,0,0,.71-1.31l.43.17a8.4,8.4,0,0,1-.64,1.14Zm-5.63-.11a5.38,5.38,0,0,0-.6-1l.37-.17a6.72,6.72,0,0,1,.63,1Zm2.12-.12c-.16-.31-.42-.76-.61-1.05l.4-.16a7.52,7.52,0,0,1,.61,1Z"/><path class="cls-1" d="M235.67,131.37v1.23h3.08V138c0,.58-.11.72-.64.72h-1.33l-.1-.45,1.37,0c.19,0,.23-.05.23-.25v-5H235.7c.08.8.41,2,2.42,3.53l-.33.34a6.89,6.89,0,0,1-2.33-3,4.47,4.47,0,0,1-2.45,3l-.26-.37a4,4,0,0,0,2.43-3.47h-2.59v5.72h-.46V132.6h3.07v-1.23Z"/><path class="cls-1" d="M243.18,131.6h.47v1.19h2.29v.41a10.71,10.71,0,0,1-2.29,2.15v3.1h-.47v-2.79a11.82,11.82,0,0,1-3,1.36l-.19-.46a10.36,10.36,0,0,0,5.32-3.33h-4.79v-.44h2.67Zm3.44,5.35a13,13,0,0,0-2.36-1.35l.26-.36a16.92,16.92,0,0,1,2.35,1.27Z"/><path class="cls-1" d="M249.6,135.78a6.22,6.22,0,0,0-.64-1.92l.43-.13a8.14,8.14,0,0,1,.67,1.93Zm0,2.27c1.52-.31,3.62-.92,4.06-4.49l.47.09c-.58,3.2-1.94,4.23-4.24,4.78Zm1.77-2.63a8,8,0,0,0-.51-1.87l.41-.12a12.77,12.77,0,0,1,.57,1.87Z"/><path class="cls-1" d="M262.27,136a19.86,19.86,0,0,0-3.73-1.75v4.21H258V131.6h.52v2.13a23.77,23.77,0,0,1,4,1.76Z"/><path class="cls-1" d="M270.37,132.14v.45c0,2.29-.49,3.36-1.18,4.1a6.63,6.63,0,0,1-3.55,1.64l-.19-.44c3.78-.79,4.38-2.34,4.4-5.3H265V135h-.49v-2.84Z"/><path class="cls-1" d="M278.89,134.77v.52H272v-.52Z"/><path class="cls-1" d="M280.76,137.92a6,6,0,0,0,5-5.36h-3.08a7.32,7.32,0,0,1-2.12,2.27l-.32-.39a6.32,6.32,0,0,0,2.11-2.33h4a6.45,6.45,0,0,1-5.33,6.27Z"/><circle class="cls-5" cx="144.91" cy="94.05" r="33.1"/><circle class="cls-6" cx="125.04" cy="77.59" r="5"/><circle class="cls-6" cx="121.46" cy="100.92" r="5"/><circle class="cls-6" cx="149.48" cy="120.76" r="5"/><circle class="cls-6" cx="157.63" cy="70.22" r="5"/><circle class="cls-6" cx="147.13" cy="94.05" r="5"/><circle class="cls-6" cx="170.8" cy="100.02" r="5"/><polygon class="cls-7" points="121.46 100.92 125.03 77.59 157.63 70.22 170.8 100.02 149.48 121.34 121.46 100.92"/><polyline class="cls-7" points="122.02 65.22 125.03 77.59 147.13 94.05 121.46 100.92 117.62 116.78"/><polyline class="cls-7" points="167 64.08 157.63 71 147.13 94.05 149.48 121.34 144.48 130.83"/><polyline class="cls-7" points="179.72 100.92 170.8 100.02 147.13 94.05"/><path class="cls-1" d="M62.36,97.59a.53.53,0,0,1-.52.49H38.42a.45.45,0,0,1-.45-.49l1.09-16.92a.52.52,0,0,1,.52-.48H63a.45.45,0,0,1,.46.48Z"/><path class="cls-1" d="M56.46,105.54a1.16,1.16,0,0,1-.79.38H32.25c-.27,0-.36-.17-.19-.38l5.57-7.08a1.14,1.14,0,0,1,.79-.38H61.84c.27,0,.35.17.19.38Z"/><path class="cls-3" d="M60.67,95.94a.54.54,0,0,1-.53.49H40.32a.45.45,0,0,1-.45-.49L41,82.07a.53.53,0,0,1,.52-.49H61.3a.45.45,0,0,1,.45.49Z"/><ellipse class="cls-8" cx="257.52" cy="100.92" rx="35.28" ry="12.38"/><path class="cls-1" d="M235.41,107.13V71.93a.49.49,0,0,1,.49-.49h15.24a.49.49,0,0,1,.49.49V83.31a.49.49,0,0,0,.49.49H275a.49.49,0,0,1,.49.49v22.84"/><circle class="cls-6" cx="243.34" cy="78.8" r="5"/><path class="cls-9" d="M243.34,74.13v4.18a.49.49,0,0,0,.49.49h2.7"/><line class="cls-9" x1="69.25" y1="93.05" x2="80.46" y2="93.05"/><polygon class="cls-1" points="72.56 97.14 73.25 96.41 69.63 93.05 73.25 89.7 72.56 88.96 68.17 93.05 72.56 97.14"/><line class="cls-9" x1="219.75" y1="93.05" x2="209.85" y2="93.05"/><polygon class="cls-1" points="216.43 88.96 215.75 89.69 219.36 93.05 215.75 96.41 216.43 97.14 220.83 93.05 216.43 88.96"/></g></svg>