<svg xmlns="http://www.w3.org/2000/svg" viewBox="0 0 311.811 212"><defs><style>.cls-1{fill:#dac6e0;}.cls-2{fill:#231815;}.cls-3{fill:#b1dff7;}.cls-4{fill:none;stroke:#b1dff7;stroke-miterlimit:10;}</style></defs><title>win10-4</title><g id="レイヤー_1" data-name="レイヤー 1"><rect class="cls-1" x="90.949" y="69.087" width="101.476" height="22.503" rx="5.669"/><path class="cls-2" d="M110.54,76.121V74.959h.571v1.162h4.25v.53h-7.868v3.232a7.068,7.068,0,0,1-1.142,4.362l-.469-.428a6.542,6.542,0,0,0,1.04-3.833V76.121Zm2.426,3.711a24.314,24.314,0,0,1,2.192,4.26l-.53.265c-.082-.224-.153-.4-.418-1-2.365.286-5.617.49-6.758.572l-.072-.562c.113-.01,1.02-.051,1.2-.06a46.988,46.988,0,0,0,1.906-6.1l.622.142a43.244,43.244,0,0,1-1.926,5.923c2.477-.164,2.6-.173,4.811-.4a26.514,26.514,0,0,0-1.529-2.773Z"/><path class="cls-2" d="M120.485,74.979h.623v2.63h4.454v.551H121.25a7.375,7.375,0,0,0,4.414,5.566l-.4.5a7.821,7.821,0,0,1-4.352-5.311,7.244,7.244,0,0,1-4.485,5.361l-.306-.519a6.671,6.671,0,0,0,4.332-5.6h-4.25v-.551h4.28Z"/><path class="cls-2" d="M129.748,75.918a16.879,16.879,0,0,1-2.66,7.6l-.582-.326a15.393,15.393,0,0,0,2.58-7.38Zm4.638,7.44a21.809,21.809,0,0,0-2.507-7.277l.57-.3a22.543,22.543,0,0,1,2.62,7.41Zm1.906-7.511a1.427,1.427,0,1,1-1.427-1.428A1.424,1.424,0,0,1,136.292,75.847Zm-2.324,0a.891.891,0,0,0,.9.9.9.9,0,1,0-.9-.9Z"/><path class="cls-2" d="M143.984,75.9a11.255,11.255,0,0,1-2.028,4.159,47.834,47.834,0,0,1,3.568,3.19l-.52.48a41.535,41.535,0,0,0-3.425-3.2,11.982,11.982,0,0,1-4.24,3.273l-.388-.489a11.566,11.566,0,0,0,6.228-6.829h-5.758V75.9Z"/><path class="cls-2" d="M155.184,75.948v.571c0,2.925-.622,4.292-1.509,5.229a8.4,8.4,0,0,1-4.525,2.09l-.235-.561c4.821-1.009,5.575-2.976,5.606-6.748h-6.177v3.048h-.622V75.948Z"/><path class="cls-2" d="M166.036,79.3v.662H157.25V79.3Z"/><path class="cls-2" d="M175.268,80.892a25.643,25.643,0,0,0-4.75-2.233v5.362h-.662V75.306h.662v2.732a28.667,28.667,0,0,1,5.066,2.222Zm-1.805-5.29a10.065,10.065,0,0,1,1.081,1.947l-.55.346a9.849,9.849,0,0,0-1.04-1.977Zm1.356-.653a9.285,9.285,0,0,1,1.111,1.927l-.54.356a9.387,9.387,0,0,0-1.08-1.966Z"/><rect class="cls-3" x="90.949" y="4.125" width="101.476" height="35.241"/><rect class="cls-3" x="14.098" y="87.132" width="101.476" height="35.241"/><rect class="cls-3" x="157.187" y="87.132" width="122.7" height="35.241"/><path class="cls-2" d="M126.3,14.348a14.938,14.938,0,0,1-3.249,2.115v.458h5.351v.65h-5.351v2.816c0,.866-.509.866-1.045.866h-2.128l-.165-.764,2.127.026c.421,0,.51-.013.51-.383V17.571h-5.58v-.65h5.58V15.813h.561a10.666,10.666,0,0,0,2.293-1.452H118.76v-.625H126.3Zm1.809-2.574v2.65h-.739V12.373h-9.556v2.051h-.726v-2.65h8.091a12.717,12.717,0,0,0,1.121-2.1l.688.28a15.223,15.223,0,0,1-1.019,1.822Zm-8.969-.178a9.354,9.354,0,0,0-.969-1.618l.586-.268a9.8,9.8,0,0,1,1.019,1.644Zm3.363-.2a16.685,16.685,0,0,0-.968-1.656l.637-.255a10.556,10.556,0,0,1,.968,1.644Z"/><path class="cls-2" d="M134.963,12.284v-2.7h.714v2.7h5.02v.65h-5.02v3.121h4.511v.675h-4.511v3.428h5.466v.662H129.5v-.662h5.465V16.73h-4.548v-.675h4.548V12.934h-3.35a11.537,11.537,0,0,1-1.67,2.586l-.535-.51a12.443,12.443,0,0,0,2.6-5.071l.7.191a11.517,11.517,0,0,1-.778,2.154Z"/><path class="cls-2" d="M152.619,21.024h-9.135V16.208c-.344.153-.548.242-1.121.446l-.293-.624A9.659,9.659,0,0,0,146.9,13.2h-4.676V12.59h2.535a7,7,0,0,0-.688-1.147l.65-.23a8.4,8.4,0,0,1,.815,1.377H147.7V10.87c-2.471.114-2.739.127-4.752.178l-.178-.611a41.827,41.827,0,0,0,9.887-.9l.344.637a31.784,31.784,0,0,1-4.638.663V12.59h2.077a8.239,8.239,0,0,0,.917-1.835l.7.165a12.947,12.947,0,0,1-.879,1.67h2.726V13.2h-4.765a10.72,10.72,0,0,0,4.88,2.778l-.319.649c-.5-.178-.7-.267-1.083-.42ZM147.7,16V13.227A9.933,9.933,0,0,1,143.956,16Zm-3.542.586V18.2H147.7V16.59Zm0,2.192v1.656H147.7V18.782ZM152.173,16a9.29,9.29,0,0,1-3.771-2.8h-.038V16Zm-3.809.586V18.2h3.58V16.59Zm0,2.192v1.656h3.58V18.782Z"/><path class="cls-2" d="M165.281,16.9c-.306,3.16-.65,3.746-.994,4.014a2.42,2.42,0,0,1-1.35.331h-1.606l-.165-.739,1.821.038a.957.957,0,0,0,.918-.408,8.519,8.519,0,0,0,.586-2.611h-8.1a10.891,10.891,0,0,0,1.2-2.179h-2.612v-.625h11.633v.625h-8.269a11.068,11.068,0,0,1-.777,1.554Zm.013-3.542h-9.008V10.067h9.008Zm-.7-2.675H157V12.7h7.594Z"/><path class="cls-2" d="M121.405,25.333c.744,0,2.65,0,2.65,1.936a1.908,1.908,0,0,1-1.223,1.855,1.951,1.951,0,0,1,1.508,1.988c0,2.191-2.15,2.191-2.874,2.191H119.01v-7.97Zm-1.733.6v2.925h1.774c.571,0,1.947-.041,1.947-1.508,0-1.417-1.193-1.417-2.07-1.417Zm0,3.506V32.7H121.4c.764,0,2.273,0,2.273-1.57,0-1.672-1.58-1.692-2.171-1.692Z"/><path class="cls-2" d="M128.171,25.333h.673V33.3h-.683V26.077l-1.621,1.1-.091-.662Z"/><path class="cls-2" d="M133.062,32.712a2.62,2.62,0,0,0,.927.153,2.738,2.738,0,0,0,2.395-1.274,5.3,5.3,0,0,0,.694-2.477,2.607,2.607,0,0,1-2.335,1.284,2.464,2.464,0,0,1-2.568-2.558,2.561,2.561,0,0,1,2.66-2.671c1.2,0,2.875.683,2.875,3.568,0,3.2-1.652,4.729-3.721,4.729a2.444,2.444,0,0,1-.927-.163Zm1.742-2.905a2.02,2.02,0,1,0,.052-4.036,1.943,1.943,0,0,0-2.009,2.038A1.867,1.867,0,0,0,134.8,29.807Z"/><path class="cls-2" d="M141.622,25.333h.673V33.3h-.683V26.077l-1.621,1.1-.092-.662Z"/><path class="cls-2" d="M151.059,32.7v.6h-5.443c.734-.723,2.008-1.988,3.068-3.251a4.14,4.14,0,0,0,1.335-2.64,1.574,1.574,0,0,0-1.62-1.641,2.363,2.363,0,0,0-2.07,1.284l-.275-.693a2.818,2.818,0,0,1,2.314-1.193,2.182,2.182,0,0,1,2.324,2.223,3.825,3.825,0,0,1-1.1,2.537c-.4.5-1.2,1.417-2.507,2.773Z"/><path class="cls-2" d="M152.6,32.284a4.07,4.07,0,0,0,2.171.581c1.764,0,2.375-1.019,2.375-1.835,0-.509-.265-1.681-2.415-1.681h-.541v-.581h.551a1.692,1.692,0,0,0,1.885-1.56,1.5,1.5,0,0,0-1.681-1.437,2.76,2.76,0,0,0-1.957.835l-.245-.591a3.406,3.406,0,0,1,2.212-.846,2.115,2.115,0,0,1,2.334,2.008A1.888,1.888,0,0,1,155.919,29a2.115,2.115,0,0,1,1.886,2.089c0,1.06-.785,2.375-3.038,2.375a5.018,5.018,0,0,1-2.365-.581Z"/><path class="cls-2" d="M162.9,33.3V31.448h-3.864v-.581l3.812-5.534h.714v5.534h1.131v.581h-1.131V33.3Zm-3.16-2.436h3.16v-4.6Z"/><path class="cls-2" d="M49.668,95.5V94.05h.713V95.5h5.313v.662H45.858V100.2c0,3.262-.981,4.842-1.427,5.453l-.586-.535a8.174,8.174,0,0,0,1.3-4.79V95.5ZM52.7,100.14a30.422,30.422,0,0,1,2.74,5.326l-.663.331c-.1-.28-.191-.5-.523-1.249-2.956.357-7.02.612-8.447.714l-.089-.7c.14-.013,1.274-.064,1.5-.077A58.519,58.519,0,0,0,49.6,96.865l.777.179a54.065,54.065,0,0,1-2.408,7.4c3.1-.2,3.249-.217,6.014-.5a32.991,32.991,0,0,0-1.911-3.466Z"/><path class="cls-2" d="M62.1,94.075h.777v3.287h5.568v.688h-5.39a9.22,9.22,0,0,0,5.517,6.957l-.5.624a9.776,9.776,0,0,1-5.44-6.638c-.752,3.351-2.536,5.249-5.606,6.7l-.382-.649a8.342,8.342,0,0,0,5.415-7H56.749v-.688H62.1Z"/><path class="cls-2" d="M74.365,94.788v9.964h-.879V94.788Z"/><path class="cls-2" d="M76.734,94.788h3.645a6.881,6.881,0,0,1,2.547.383c1.771.662,2.714,2.369,2.714,4.6a4.889,4.889,0,0,1-1.86,4.153,5.757,5.757,0,0,1-3.44.828H76.734ZM77.575,104h2.74a4.974,4.974,0,0,0,2.968-.7A4.194,4.194,0,0,0,84.8,99.783c0-4.243-3.376-4.243-4.459-4.243H77.575Z"/><path class="cls-2" d="M44.554,109.824c.744,0,2.651,0,2.651,1.937a1.908,1.908,0,0,1-1.223,1.855A1.951,1.951,0,0,1,47.49,115.6c0,2.191-2.151,2.191-2.874,2.191H42.159v-7.971Zm-1.732.6v2.925H44.6c.571,0,1.947-.04,1.947-1.509,0-1.416-1.193-1.416-2.069-1.416Zm0,3.506v3.261h1.722c.765,0,2.273,0,2.273-1.569,0-1.672-1.58-1.692-2.171-1.692Z"/><path class="cls-2" d="M51.32,109.824h.673V117.8H51.31v-7.227l-1.62,1.1-.092-.662Z"/><path class="cls-2" d="M56.211,117.2a2.622,2.622,0,0,0,.927.152,2.739,2.739,0,0,0,2.4-1.274,5.3,5.3,0,0,0,.693-2.477,2.607,2.607,0,0,1-2.334,1.285,2.464,2.464,0,0,1-2.569-2.558,2.561,2.561,0,0,1,2.66-2.671c1.2,0,2.875.683,2.875,3.568,0,3.2-1.651,4.729-3.721,4.729a2.463,2.463,0,0,1-.927-.163Zm1.743-2.9a2.02,2.02,0,1,0,.051-4.036A1.942,1.942,0,0,0,56,112.3,1.867,1.867,0,0,0,57.954,114.3Z"/><path class="cls-2" d="M64.771,109.824h.673V117.8h-.683v-7.227l-1.621,1.1-.092-.662Z"/><path class="cls-2" d="M74.208,117.193v.6H68.765c.734-.724,2.008-1.987,3.068-3.252a4.138,4.138,0,0,0,1.336-2.64,1.573,1.573,0,0,0-1.621-1.64,2.36,2.36,0,0,0-2.069,1.284l-.275-.693a2.817,2.817,0,0,1,2.313-1.193,2.181,2.181,0,0,1,2.324,2.222,3.82,3.82,0,0,1-1.1,2.538c-.4.5-1.2,1.417-2.507,2.772Z"/><path class="cls-2" d="M75.746,116.775a4.047,4.047,0,0,0,2.171.581c1.763,0,2.375-1.019,2.375-1.835,0-.508-.266-1.681-2.416-1.681h-.54v-.581h.55a1.693,1.693,0,0,0,1.886-1.56,1.5,1.5,0,0,0-1.682-1.436,2.756,2.756,0,0,0-1.957.836l-.245-.592a3.408,3.408,0,0,1,2.212-.846,2.115,2.115,0,0,1,2.334,2.008,1.884,1.884,0,0,1-1.366,1.824,2.116,2.116,0,0,1,1.886,2.09c0,1.061-.784,2.375-3.037,2.375a5.014,5.014,0,0,1-2.365-.581Z"/><path class="cls-2" d="M86.049,117.8v-1.856H82.186v-.581L86,109.824h.714v5.534h1.131v.581H86.712V117.8Zm-3.16-2.437h3.16v-4.6Z"/><path class="cls-2" d="M169.683,94.788v9.964H168.8V94.788Z"/><path class="cls-2" d="M174.141,94.788l3.109,9.416,3.122-9.416h1.376l1.44,9.964h-.829l-1.35-9.429-3.134,9.429h-1.237L173.5,95.323l-1.351,9.429h-.828l1.44-9.964Z"/><path class="cls-2" d="M192.421,104.28a6.308,6.308,0,0,1-2.917.676,5.187,5.187,0,1,1-.077-10.371,5.36,5.36,0,0,1,2.943.828l-.305.751a4.449,4.449,0,1,0-2.51,8.04,4.774,4.774,0,0,0,2.866-.841Z"/><path class="cls-2" d="M204.739,95.107a6.188,6.188,0,0,1-4.1,5.045l-.446-.687c2.828-1.07,3.351-2.7,3.58-3.619h-9.4v-.739Zm-10.052,9.339c3.631-1.669,3.949-4.294,3.962-7.1h.8c-.026,2.254-.076,5.708-4.23,7.758Z"/><path class="cls-2" d="M206.991,104.548c2.2-1.389,3.542-3.249,4.013-6.88h-3.63v-.739h3.72c.089-1.2.089-1.707.089-2.434l.828.026c-.051,1.185-.076,1.668-.152,2.408h5.058V99.1a21.023,21.023,0,0,1-.472,5c-.408.993-1.542.993-2.039.993a9.632,9.632,0,0,1-2.038-.19v-.79a11.516,11.516,0,0,0,2.128.228c.993,0,1.172-.471,1.274-.776a24.7,24.7,0,0,0,.344-4.473V97.668h-4.332c-.573,4.408-2.357,6.332-4.307,7.478Z"/><path class="cls-2" d="M229.654,96.432V97.3c0,2.777-.764,7.223-7.733,7.784l-.23-.739c6.816-.688,7.135-4.548,7.135-6.931v-.28h-7.67v3.312h-.777V96.432h4.192V94.343h.815v2.089Z"/><path class="cls-2" d="M236.786,97.923a14.914,14.914,0,0,0-3.912-1.784l.433-.726a15.928,15.928,0,0,1,3.924,1.771Zm-3.618,6.039a9.452,9.452,0,0,0,5.873-2.141,11.766,11.766,0,0,0,3.529-5.682l.664.522a12.7,12.7,0,0,1-3.9,5.925,10.364,10.364,0,0,1-6.039,2.255Z"/><path class="cls-2" d="M255.015,101.414a31.626,31.626,0,0,0-5.95-2.8v6.715h-.829V94.432h.829V97.82a37.476,37.476,0,0,1,6.332,2.8Z"/><path class="cls-2" d="M257.775,97.923a9.078,9.078,0,0,0,4.753-3.912l.663.242a5.353,5.353,0,0,1-.574.88h4.741v.624a11.38,11.38,0,0,1-4.524,4.663h5.645v5.1h-7.607v-4.052a17.233,17.233,0,0,1-3.249,1.184l-.318-.7a17.551,17.551,0,0,0,5.428-2.243,16.365,16.365,0,0,0-2.562-2.255,8.578,8.578,0,0,1-2,1.1Zm4.307-2.166a10.672,10.672,0,0,1-1.376,1.287,19.076,19.076,0,0,1,2.625,2.255,9.993,9.993,0,0,0,3.249-3.542Zm-.356,5.287a.82.82,0,0,1-.154.077v3.758h6.18v-3.835Z"/><path class="cls-2" d="M196.471,117.8h-.642v-8.358h.642v3.415a2.406,2.406,0,0,1,2.12-1.172c1.438,0,2.671,1.08,2.671,3.138,0,2.08-1.254,3.14-2.671,3.14a2.389,2.389,0,0,1-2.12-1.172Zm2.039-.408c1.1,0,2.11-.764,2.11-2.569,0-1.854-1.05-2.568-2.11-2.568s-2.059.724-2.059,2.568C196.451,116.644,197.43,117.387,198.51,117.387Z"/><path class="cls-2" d="M205.072,109.824h.673V117.8h-.683v-7.227l-1.62,1.1-.092-.662Z"/><path class="cls-2" d="M209.963,117.2a2.622,2.622,0,0,0,.927.152,2.739,2.739,0,0,0,2.4-1.274,5.3,5.3,0,0,0,.693-2.477,2.608,2.608,0,0,1-2.334,1.285,2.464,2.464,0,0,1-2.569-2.558,2.561,2.561,0,0,1,2.66-2.671c1.2,0,2.875.683,2.875,3.568,0,3.2-1.651,4.729-3.721,4.729a2.463,2.463,0,0,1-.927-.163Zm1.743-2.9a2.02,2.02,0,1,0,.051-4.036,1.942,1.942,0,0,0-2.008,2.038A1.867,1.867,0,0,0,211.706,114.3Z"/><path class="cls-2" d="M218.523,109.824h.673V117.8h-.683v-7.227l-1.621,1.1-.092-.662Z"/><path class="cls-2" d="M227.96,117.193v.6h-5.443c.734-.724,2.008-1.987,3.068-3.252a4.138,4.138,0,0,0,1.336-2.64,1.573,1.573,0,0,0-1.621-1.64,2.36,2.36,0,0,0-2.069,1.284l-.275-.693a2.817,2.817,0,0,1,2.313-1.193,2.181,2.181,0,0,1,2.324,2.222,3.82,3.82,0,0,1-1.1,2.538c-.4.5-1.2,1.417-2.507,2.772Z"/><path class="cls-2" d="M229.5,116.775a4.047,4.047,0,0,0,2.171.581c1.763,0,2.375-1.019,2.375-1.835,0-.508-.265-1.681-2.416-1.681h-.54v-.581h.55a1.693,1.693,0,0,0,1.886-1.56,1.5,1.5,0,0,0-1.683-1.436,2.753,2.753,0,0,0-1.956.836l-.245-.592a3.408,3.408,0,0,1,2.212-.846,2.115,2.115,0,0,1,2.334,2.008,1.884,1.884,0,0,1-1.366,1.824,2.116,2.116,0,0,1,1.886,2.09c0,1.061-.785,2.375-3.037,2.375a5.011,5.011,0,0,1-2.365-.581Z"/><path class="cls-2" d="M239.8,117.8v-1.856h-3.862v-.581l3.812-5.534h.713v5.534h1.131v.581h-1.131V117.8Zm-3.159-2.437H239.8v-4.6Z"/><polyline class="cls-4" points="63.138 82.896 63.138 59.746 218.537 59.746 218.537 82.896"/><polygon class="cls-3" points="63.138 87.132 65.578 81.163 63.138 82.579 60.7 81.163 63.138 87.132"/><polygon class="cls-3" points="218.537 87.132 216.098 81.163 218.537 82.579 220.976 81.163 218.537 87.132"/><line class="cls-4" x1="141.687" y1="39.366" x2="141.687" y2="59.746"/><path class="cls-2" d="M18.121,130.561v.571H14.573l-.02,2.1h1.814A6.123,6.123,0,0,0,18,133.048l.051.56a6.352,6.352,0,0,1-1.641.174H14.543v.326c0,2.324-.031,2.813,2.314,2.813,1,0,2.69,0,2.69-2.192a5.612,5.612,0,0,0-.631-2.384l.56-.133a5.764,5.764,0,0,1,.673,2.568,2.544,2.544,0,0,1-1.5,2.5,5.825,5.825,0,0,1-1.8.224c-2.925,0-2.894-1.091-2.894-3.394v-.326H11.933v-.551h2.029l.02-2.1H12.107v-.571h1.885L14,129.042h.591l-.01,1.519Z"/><path class="cls-2" d="M25.946,137.166c2.079-.561,2.538-1.957,2.874-3.425A9.055,9.055,0,0,0,26,133.059c-.642,2.66-1,3.9-2.477,3.9A1.547,1.547,0,0,1,21.9,135.28a2.665,2.665,0,0,1,1.682-2.426,5.737,5.737,0,0,1,1.957-.346,24.923,24.923,0,0,0,.387-2.681l-3.333.03v-.59h4.026c-.132,1.09-.316,2.161-.53,3.271a10.716,10.716,0,0,1,2.834.643,17.789,17.789,0,0,0,.245-2.274l.652.041c-.143,1.315-.193,1.774-.316,2.447a9.567,9.567,0,0,1,1.294.581l-.213.6a6.354,6.354,0,0,0-1.2-.6,4.414,4.414,0,0,1-3.067,3.689ZM23.7,133.344a2.137,2.137,0,0,0-1.253,1.926c0,.367.142,1.182.988,1.182,1.132,0,1.376-.907,1.988-3.425A3.621,3.621,0,0,0,23.7,133.344Z"/><path class="cls-2" d="M34.423,129.1c-.1,3.159-.122,3.934-.122,4.851,0,1.4.031,2.966,2.141,2.966,2.812,0,3.159-1.834,3.465-3.5l.581.142c-.234,1.428-.652,3.935-3.9,3.935-2.65,0-2.956-1.5-2.956-3.648,0-.755.072-4.068.082-4.741Zm2.874.672a9.617,9.617,0,0,1,1.234,1.855l-.52.388a9.136,9.136,0,0,0-1.2-1.886Zm1.356-.826a9.152,9.152,0,0,1,1.3,1.815l-.5.4a9.46,9.46,0,0,0-1.274-1.845Z"/><path class="cls-2" d="M43.869,137.706a12.817,12.817,0,0,0-1.57-1.936l.561-.449a12.263,12.263,0,0,1,1.651,1.906Z"/><path class="cls-2" d="M55,129.246c.744,0,2.65,0,2.65,1.937a1.908,1.908,0,0,1-1.223,1.855,1.95,1.95,0,0,1,1.508,1.987c0,2.192-2.15,2.192-2.874,2.192H52.6v-7.971Zm-1.733.6v2.924h1.774c.571,0,1.946-.04,1.946-1.508,0-1.416-1.192-1.416-2.069-1.416Zm0,3.506v3.261h1.722c.765,0,2.273,0,2.273-1.569,0-1.672-1.579-1.692-2.171-1.692Z"/><path class="cls-2" d="M59.959,137.217h-.642v-8.359h.642v3.415a2.406,2.406,0,0,1,2.12-1.171c1.437,0,2.671,1.08,2.671,3.138,0,2.08-1.254,3.14-2.671,3.14a2.388,2.388,0,0,1-2.12-1.172ZM62,136.809c1.1,0,2.11-.764,2.11-2.569,0-1.854-1.051-2.568-2.11-2.568s-2.059.724-2.059,2.568C59.939,136.065,60.917,136.809,62,136.809Z"/><path class="cls-2" d="M66.725,136.626a2.628,2.628,0,0,0,.928.152,2.737,2.737,0,0,0,2.395-1.274,5.3,5.3,0,0,0,.693-2.477,2.608,2.608,0,0,1-2.334,1.285,2.465,2.465,0,0,1-2.569-2.558,2.561,2.561,0,0,1,2.661-2.671c1.2,0,2.874.683,2.874,3.567,0,3.2-1.651,4.73-3.72,4.73a2.465,2.465,0,0,1-.928-.163Zm1.743-2.905a2.02,2.02,0,1,0,.051-4.036,1.942,1.942,0,0,0-2.008,2.038A1.867,1.867,0,0,0,68.468,133.721Z"/><path class="cls-2" d="M79.351,129.471v.5H77.608c.275.723.306.795.387,1.07l-.621.163a7.582,7.582,0,0,0-.368-1.233h-.723a5.427,5.427,0,0,1-1.1,1.151l-.336-.448a5.059,5.059,0,0,0,1.559-2.079l.561.142a6.081,6.081,0,0,1-.367.735Zm4.332,2.629H79.871v1.131h4.413v.5H82.266v1.091h1.947v.51H82.266v1.876c0,.58-.031.805-.9.805H79.912L79.8,137.4l1.53.051c.3.01.346-.051.346-.316v-1.8H75.029v-.51h6.646V133.73H74.948v-.5H79.3V132.1H75.519v-.5H79.3v-.632h.571v.632h3.812Zm-5.433,5.341a9.033,9.033,0,0,0-1.437-1.57l.408-.356a8.383,8.383,0,0,1,1.488,1.529Zm6.014-7.97v.5h-2.3c.264.611.356.815.448,1.08l-.571.153a9.084,9.084,0,0,0-.459-1.233h-.988a5.292,5.292,0,0,1-.877.948l-.448-.347a5.3,5.3,0,0,0,1.427-1.967l.56.142a5.017,5.017,0,0,1-.346.725Z"/><path class="cls-2" d="M93.944,130.306c-.54-.04-.825-.061-1.131-.061a2.285,2.285,0,0,0-.938.122c-1.621.571-3.628,2.182-3.628,4.036,0,1.183.591,2.416,4.759,2.416l-.163.662c-2.221-.1-5.239-.4-5.239-3.006,0-2.252,2.253-3.66,3.334-4.241-.888.021-4.3.225-5.342.337l-.071-.663c.448,0,1.794-.071,2.895-.122,2.721-.133,3.424-.133,5.524-.133Zm-1.977,1.3a9.507,9.507,0,0,1,1.091,1.9l-.541.336a9.689,9.689,0,0,0-1.05-1.927Zm1.386-.57a9.563,9.563,0,0,1,1.121,1.875l-.53.347a9.146,9.146,0,0,0-1.08-1.907Z"/><path class="cls-2" d="M97.02,138.012h-.561v-5.851a7.023,7.023,0,0,1-.907,1.366l-.347-.571a9.61,9.61,0,0,0,1.967-4.3l.551.133a12.6,12.6,0,0,1-.7,2.212Zm4.566-6.646h2.64v2.874h-2.711a4.6,4.6,0,0,1-.571,1.906,9.277,9.277,0,0,0,3.741,1.275l-.265.56a9.55,9.55,0,0,1-3.782-1.417,4.711,4.711,0,0,1-2.884,1.417l-.2-.54a4.7,4.7,0,0,0,2.6-1.223,5.528,5.528,0,0,1-1.315-1.346l.428-.306a5.631,5.631,0,0,0,1.2,1.245,3.8,3.8,0,0,0,.469-1.571h-2.6v-2.874h2.68v-1.1H97.906v-.521h3.109v-1.08h.571v1.08h3.048v.521h-3.048Zm-.571.479H98.9v1.906h2.089c.011-.163.031-.347.031-.652Zm.571,1.2c0,.163-.02.54-.031.7h2.111v-1.906h-2.08Z"/><path class="cls-2" d="M114.263,137.166c0,.55-.143.836-.7.836h-1.407l-.071-.561,1.376.02c.224,0,.224-.214.224-.306v-2.384h-3.089v3.119h-.55v-3.119h-3.058A6.147,6.147,0,0,1,105.844,138l-.4-.388c.479-.682,1.019-1.559,1.019-4.006v-4.515h7.8Zm-4.22-5.056h-3v1.4c0,.469-.01.591-.02.784h3.017Zm0-2.507h-3v2.028h3Zm3.639,0h-3.089v2.028h3.089Zm0,2.507h-3.089v2.181h3.089Z"/><path class="cls-2" d="M158.961,129.246v7.971h-.7v-7.971Z"/><path class="cls-2" d="M167.155,136.84a5.052,5.052,0,0,1-2.334.54,4.15,4.15,0,1,1-.061-8.3,4.294,4.294,0,0,1,2.354.662l-.244.6a3.558,3.558,0,1,0-2.008,6.431,3.814,3.814,0,0,0,2.293-.673Z"/><path class="cls-2" d="M172.84,132.783v.6h-3.669v3.23h4.169v.6h-4.831v-7.971h4.678v.6h-4.016v2.935Z"/><path class="cls-2" d="M180.034,135.494v.5c-.581.2-2.405.724-3.139.876l-.112-.55a13.644,13.644,0,0,0,1.743-.408c.265-1.091.57-3.567.652-4.413l.53.081c-.072.754-.449,3.415-.6,4.169Zm-1.365-6.819v1.713h1.294v.519h-3.079v-.519h1.224v-1.713Zm-1.356,6.483a26.686,26.686,0,0,0-.326-3.507l.519-.05a24.567,24.567,0,0,1,.368,3.516Zm8.878-3.068v.51h-2.742c-.122.468-.163.6-.3,1h2.681v3.771c0,.295-.031.621-.734.621h-.581l-.153-.591.673.021c.275.01.275-.133.275-.266v-3.088h-1.2v3.843h-.5v-3.843h-1.1v3.843h-.5v-3.843H180.9v3.924h-.53V133.6h2.2c.1-.266.234-.786.286-1h-2.824v-.51Zm-5.179-3.17v1.8h1.826v-2.049h.549v2.049h1.835v-1.8h.561V131.2h-5.32V128.92Z"/><path class="cls-2" d="M191.407,130.225v-1.56H192v1.56h4.392v.53H192v1.957h3.964v.529h-3.75a9.61,9.61,0,0,0,4.27,3.68l-.367.52A10.062,10.062,0,0,1,192,133.792v4.22h-.592v-4.169a10.707,10.707,0,0,1-4.067,3.608l-.326-.469a10.907,10.907,0,0,0,4.2-3.741h-3.741v-.529h3.935v-1.957h-4.353v-.53Z"/><path class="cls-2" d="M199.121,137.706a12.879,12.879,0,0,0-1.571-1.936l.562-.449a12.2,12.2,0,0,1,1.65,1.906Z"/><path class="cls-2" d="M212.95,132.671v-3.425h.673v7.971h-.673v-3.945h-4.434v3.945h-.673v-7.971h.673v3.425Z"/><path class="cls-2" d="M216.23,129.246v7.971h-.7v-7.971Z"/><path class="cls-2" d="M219.166,129.246l5.127,7.431v-7.431h.662v7.971h-1.05l-5.127-7.431v7.431h-.663v-7.971Z"/><path class="cls-2" d="M230.956,132.783v.6h-3.669v3.23h4.169v.6h-4.832v-7.971H231.3v.6h-4.015v2.935Z"/><path class="cls-2" d="M235.642,137.217h-.673v-7.369h-2.782v-.6h6.238v.6h-2.783Z"/><path class="cls-2" d="M245.985,129.471v.5h-1.742c.275.723.306.795.387,1.07l-.621.163a7.823,7.823,0,0,0-.367-1.233h-.724a5.452,5.452,0,0,1-1.1,1.151l-.336-.448a5.059,5.059,0,0,0,1.559-2.079l.561.142a6.392,6.392,0,0,1-.367.735Zm4.332,2.629h-3.811v1.131h4.413v.5H248.9v1.091h1.947v.51H248.9v1.876c0,.58-.031.805-.9.805h-1.458l-.111-.612,1.528.051c.3.01.347-.051.347-.316v-1.8h-6.645v-.51h6.645V133.73h-6.727v-.5h4.352V132.1h-3.782v-.5h3.782v-.632h.571v.632h3.811Zm-5.432,5.341a9.036,9.036,0,0,0-1.438-1.57l.409-.356a8.383,8.383,0,0,1,1.488,1.529Zm6.014-7.97v.5h-2.3c.265.611.357.815.449,1.08l-.571.153a9.084,9.084,0,0,0-.459-1.233h-.989a5.279,5.279,0,0,1-.876.948l-.449-.347a5.282,5.282,0,0,0,1.427-1.967l.561.142a5.017,5.017,0,0,1-.346.725Z"/><path class="cls-2" d="M260.578,130.306c-.54-.04-.825-.061-1.131-.061a2.279,2.279,0,0,0-.937.122c-1.621.571-3.629,2.182-3.629,4.036,0,1.183.591,2.416,4.76,2.416l-.163.662c-2.222-.1-5.24-.4-5.24-3.006,0-2.252,2.253-3.66,3.333-4.241-.886.021-4.3.225-5.34.337l-.072-.663c.449,0,1.794-.071,2.9-.122,2.721-.133,3.425-.133,5.524-.133Zm-1.977,1.3a9.507,9.507,0,0,1,1.091,1.9l-.541.336a9.727,9.727,0,0,0-1.049-1.927Zm1.386-.57a9.576,9.576,0,0,1,1.122,1.875l-.531.347a9.146,9.146,0,0,0-1.08-1.907Z"/><path class="cls-2" d="M263.654,138.012h-.56v-5.851a7.023,7.023,0,0,1-.907,1.366l-.347-.571a9.635,9.635,0,0,0,1.968-4.3l.55.133a12.55,12.55,0,0,1-.7,2.212Zm4.567-6.646h2.639v2.874h-2.71a4.577,4.577,0,0,1-.572,1.906,9.287,9.287,0,0,0,3.741,1.275l-.264.56a9.55,9.55,0,0,1-3.782-1.417,4.712,4.712,0,0,1-2.885,1.417l-.2-.54a4.683,4.683,0,0,0,2.6-1.223,5.536,5.536,0,0,1-1.314-1.346l.428-.306a5.607,5.607,0,0,0,1.2,1.245,3.807,3.807,0,0,0,.468-1.571h-2.6v-2.874h2.681v-1.1h-3.109v-.521h3.109v-1.08h.571v1.08h3.048v.521h-3.048Zm-.571.479h-2.12v1.906h2.089c.011-.163.031-.347.031-.652Zm.571,1.2c0,.163-.021.54-.03.7H270.3v-1.906h-2.079Z"/><path class="cls-2" d="M280.9,137.166c0,.55-.143.836-.7.836h-1.407l-.071-.561,1.376.02c.224,0,.224-.214.224-.306v-2.384h-3.088v3.119h-.55v-3.119H273.62A6.147,6.147,0,0,1,272.479,138l-.4-.388c.48-.682,1.02-1.559,1.02-4.006v-4.515h7.8Zm-4.22-5.056h-3v1.4c0,.469-.01.591-.021.784h3.018Zm0-2.507h-3v2.028h3Zm3.638,0h-3.088v2.028h3.088Zm0,2.507h-3.088v2.181h3.088Z"/><path class="cls-2" d="M161.815,144.368a4.149,4.149,0,1,1-4.139,4.149A4.035,4.035,0,0,1,161.815,144.368Zm0,7.695a3.547,3.547,0,1,0-3.476-3.546A3.455,3.455,0,0,0,161.815,152.063Z"/><path class="cls-2" d="M170.058,145.724c0-.52,0-1.58,1.4-1.58a1.684,1.684,0,0,1,.366.041l-.061.55c-.1-.01-.194-.02-.265-.02-.805,0-.805.5-.805,1.019v.815h1.142v.571H170.69V152.5h-.632V147.12h-1.916V152.5h-.632V147.12h-.816v-.571h.816v-.825c0-.52,0-1.58,1.4-1.58a1.782,1.782,0,0,1,.367.041l-.061.55c-.1-.01-.194-.02-.265-.02-.805,0-.805.5-.805,1.019v.815h1.916Zm3.282-.694h-.826v-.886h.826Zm-.082,7.472h-.652v-5.953h.652Z"/><path class="cls-2" d="M179.494,152.309a3.939,3.939,0,0,1-1.7.356,2.91,2.91,0,0,1-3.038-3.14,2.945,2.945,0,0,1,3.007-3.138,3.043,3.043,0,0,1,1.7.458l-.183.581a2.245,2.245,0,0,0-1.5-.469,2.573,2.573,0,0,0,.051,5.137,3.279,3.279,0,0,0,1.661-.428Z"/><path class="cls-2" d="M181.153,149.739a2.19,2.19,0,0,0,2.386,2.355,3.577,3.577,0,0,0,1.763-.417v.641a4.527,4.527,0,0,1-1.784.347,2.838,2.838,0,0,1-3-3.1c0-1.732.989-3.179,2.681-3.179a2.392,2.392,0,0,1,2.273,1.5,4.585,4.585,0,0,1,.326,1.854Zm4.006-.57c-.122-1.5-.979-2.212-1.967-2.212a2.134,2.134,0,0,0-2.039,2.212Z"/><path class="cls-2" d="M187.155,151.482a4.047,4.047,0,0,0,2.171.581c1.763,0,2.375-1.019,2.375-1.834,0-.509-.265-1.682-2.416-1.682h-.54v-.581h.551a1.692,1.692,0,0,0,1.885-1.56,1.5,1.5,0,0,0-1.681-1.436,2.751,2.751,0,0,0-1.957.836l-.246-.592a3.408,3.408,0,0,1,2.212-.846,2.115,2.115,0,0,1,2.334,2.008,1.885,1.885,0,0,1-1.365,1.824,2.116,2.116,0,0,1,1.885,2.09c0,1.061-.784,2.375-3.037,2.375a5.01,5.01,0,0,1-2.364-.581Z"/><path class="cls-2" d="M197.784,144.99c-1.579-.163-3.281,1-3.506,3.731a2.58,2.58,0,0,1,2.313-1.284,2.472,2.472,0,0,1,2.589,2.547,2.6,2.6,0,0,1-2.68,2.681c-1.376,0-2.865-.928-2.865-3.517,0-2.66,1.56-4.78,3.823-4.78a3.243,3.243,0,0,1,.326.021Zm-1.234,3.047a2.007,2.007,0,0,0-2.139,1.927,2.033,2.033,0,0,0,2.079,2.1,1.926,1.926,0,0,0,2.017-2.028A1.864,1.864,0,0,0,196.55,148.037Z"/><path class="cls-2" d="M205.1,145.133h-3.537v2.844a2.961,2.961,0,0,1,1.478-.368,2.508,2.508,0,0,1,2.732,2.488c0,1.426-1.1,2.568-3.007,2.568a4.909,4.909,0,0,1-2.335-.6l.2-.59a3.931,3.931,0,0,0,2.1.59c1.631,0,2.385-.927,2.385-1.977a1.9,1.9,0,0,0-2.1-1.886,2.305,2.305,0,0,0-1.447.47h-.611v-4.139H205.1Z"/><path class="cls-2" d="M219.124,145.591c-.54-.04-.826-.061-1.131-.061a2.282,2.282,0,0,0-.938.122c-1.621.571-3.629,2.182-3.629,4.036,0,1.183.591,2.416,4.76,2.416l-.163.663c-2.222-.1-5.239-.4-5.239-3.007,0-2.252,2.253-3.659,3.333-4.24-.887.02-4.3.224-5.341.336l-.071-.663c.448,0,1.794-.071,2.894-.122,2.722-.133,3.425-.133,5.525-.133Zm-1.978,1.3a9.4,9.4,0,0,1,1.091,1.9l-.54.336a9.742,9.742,0,0,0-1.05-1.927Zm1.387-.571a9.563,9.563,0,0,1,1.121,1.875l-.53.347a9.16,9.16,0,0,0-1.08-1.906Z"/><path class="cls-2" d="M222.2,153.3h-.561v-5.851a6.976,6.976,0,0,1-.907,1.366l-.347-.571a9.624,9.624,0,0,0,1.968-4.3l.55.133a12.421,12.421,0,0,1-.7,2.212Zm4.566-6.646h2.64v2.874H226.7a4.613,4.613,0,0,1-.571,1.907,9.3,9.3,0,0,0,3.741,1.274l-.265.561a9.58,9.58,0,0,1-3.782-1.417,4.719,4.719,0,0,1-2.885,1.417l-.2-.54a4.7,4.7,0,0,0,2.6-1.224,5.53,5.53,0,0,1-1.315-1.346l.428-.305a5.634,5.634,0,0,0,1.2,1.244,3.818,3.818,0,0,0,.469-1.571h-2.6v-2.874H226.2v-1.1h-3.108v-.521H226.2v-1.08h.571v1.08h3.048v.521h-3.048Zm-.571.479h-2.119v1.906h2.089c.01-.163.03-.347.03-.652Zm.571,1.2c0,.163-.02.54-.03.7h2.109V147.13h-2.079Z"/><path class="cls-2" d="M239.444,152.451c0,.55-.143.836-.7.836h-1.407l-.072-.56,1.376.019c.225,0,.225-.214.225-.306v-2.384h-3.089v3.119h-.55v-3.119h-3.058a6.149,6.149,0,0,1-1.142,3.231l-.4-.388c.479-.682,1.019-1.559,1.019-4v-4.516h7.8Zm-4.22-5.055h-3v1.4c0,.469-.01.591-.02.784h3.017Zm0-2.508h-3v2.028h3Zm3.639,0h-3.089v2.028h3.089Zm0,2.508h-3.089v2.18h3.089Z"/><path class="cls-2" d="M158.231,159.41v4.69h-.414v-4.69Z"/><path class="cls-2" d="M160.33,159.41l1.464,4.432,1.469-4.432h.647l.678,4.69h-.39l-.635-4.438-1.475,4.438h-.583l-1.475-4.438L159.4,164.1h-.39l.678-4.69Z"/><path class="cls-2" d="M168.939,163.878a2.977,2.977,0,0,1-1.374.317,2.441,2.441,0,1,1-.036-4.881,2.525,2.525,0,0,1,1.386.39l-.144.354a2.094,2.094,0,1,0-1.182,3.784,2.253,2.253,0,0,0,1.35-.4Z"/><path class="cls-2" d="M176.18,159.561a2.914,2.914,0,0,1-1.931,2.374l-.21-.324a2.323,2.323,0,0,0,1.685-1.7H171.3v-.347Zm-4.731,4.395c1.709-.786,1.858-2.021,1.864-3.341h.378a3.56,3.56,0,0,1-1.99,3.653Z"/><path class="cls-2" d="M177.245,164a3.986,3.986,0,0,0,1.888-3.238h-1.709v-.348h1.751c.042-.564.042-.8.042-1.146l.39.012c-.023.558-.036.786-.071,1.134h2.38v1.02a9.9,9.9,0,0,1-.222,2.35c-.191.468-.726.468-.959.468a4.581,4.581,0,0,1-.96-.09v-.372a5.4,5.4,0,0,0,1,.107c.468,0,.552-.221.6-.365a11.623,11.623,0,0,0,.162-2.1v-.665H179.5a4.266,4.266,0,0,1-2.028,3.519Z"/><path class="cls-2" d="M187.916,160.184v.408c0,1.306-.36,3.4-3.64,3.664l-.108-.348c3.209-.324,3.358-2.141,3.358-3.262v-.132h-3.609v1.558h-.367v-1.888h1.973V159.2h.384v.984Z"/><path class="cls-2" d="M191.277,160.886a6.981,6.981,0,0,0-1.841-.84l.2-.342a7.522,7.522,0,0,1,1.847.833Zm-1.7,2.842a4.449,4.449,0,0,0,2.763-1.007A5.543,5.543,0,0,0,194,160.046l.312.246a5.978,5.978,0,0,1-1.835,2.788,4.876,4.876,0,0,1-2.843,1.062Z"/><path class="cls-2" d="M199.862,162.528a14.874,14.874,0,0,0-2.8-1.319v3.16h-.39v-5.127h.39v1.6a17.685,17.685,0,0,1,2.981,1.318Z"/><path class="cls-2" d="M201.167,160.886a4.274,4.274,0,0,0,2.236-1.842l.312.114a2.454,2.454,0,0,1-.27.414h2.231v.294a5.359,5.359,0,0,1-2.129,2.195H206.2v2.4h-3.58v-1.906a8.17,8.17,0,0,1-1.53.557l-.149-.33a8.282,8.282,0,0,0,2.555-1.055,7.755,7.755,0,0,0-1.206-1.062,4.078,4.078,0,0,1-.942.517Zm2.027-1.02a5.2,5.2,0,0,1-.648.606,8.839,8.839,0,0,1,1.235,1.061,4.709,4.709,0,0,0,1.529-1.667Zm-.168,2.488a.352.352,0,0,1-.072.037v1.768h2.908v-1.8Z"/><path class="cls-2" d="M211.815,160.567h.4l-.331,1.536a2.218,2.218,0,0,0-.029.27.331.331,0,0,0,.348.354c.426,0,.725-.648.725-1.3a1.833,1.833,0,0,0-1.979-1.786,2.014,2.014,0,0,0-2.057,2.158,1.975,1.975,0,0,0,2.106,2.063,2.1,2.1,0,0,0,1-.222l.137.347a2.951,2.951,0,0,1-1.121.2,2.316,2.316,0,0,1-2.5-2.428,2.35,2.35,0,0,1,2.436-2.453,2.14,2.14,0,0,1,2.344,2.105c0,1.128-.582,1.643-1.151,1.643a.565.565,0,0,1-.594-.467,1.1,1.1,0,0,1-.893.437.963.963,0,0,1-.954-1.073,1.4,1.4,0,0,1,1.265-1.493.832.832,0,0,1,.78.413Zm-1.739,1.4c0,.5.275.731.641.731.888,0,.906-1.253.906-1.289a.564.564,0,0,0-.587-.605C210.345,160.8,210.076,161.509,210.076,161.965Z"/><path class="cls-2" d="M214.079,164.1v-4.917h.372v1.924a1.3,1.3,0,0,1,1.127-.6,1.148,1.148,0,0,1,1.05.539,2.065,2.065,0,0,1,.161,1.056v2h-.371v-1.961c0-.588,0-1.3-.876-1.3a1.078,1.078,0,0,0-.93.5,1.53,1.53,0,0,0-.161.8V164.1Z"/><path class="cls-2" d="M218.314,159.932h-.485v-.522h.485Zm-.048,4.168h-.384v-3.5h.384Z"/><path class="cls-2" d="M219.34,164.1v-3.5h.377v.509a1.2,1.2,0,0,1,1.164-.6v.342a1.006,1.006,0,0,0-.708.179,1.175,1.175,0,0,0-.456,1.116V164.1Z"/><path class="cls-2" d="M223.179,160.5a1.852,1.852,0,1,1-1.709,1.847A1.713,1.713,0,0,1,223.179,160.5Zm.006,3.357a1.522,1.522,0,1,0-1.337-1.51A1.345,1.345,0,0,0,223.185,163.859Z"/><path class="cls-2" d="M227.523,161.018a1.554,1.554,0,0,0-.731-.18c-.474,0-.84.2-.84.623,0,.395.2.5.929.72.522.156.984.372.984.995,0,.678-.611,1.019-1.361,1.019a2.4,2.4,0,0,1-1.08-.246l.126-.329a2.024,2.024,0,0,0,.959.239c.528,0,.978-.191.978-.683,0-.455-.342-.564-.953-.755-.5-.156-.954-.324-.954-.942s.54-.977,1.217-.977a1.837,1.837,0,0,1,.822.186Z"/><path class="cls-2" d="M228.688,164.1v-4.917h.372v1.924a1.3,1.3,0,0,1,1.127-.6,1.148,1.148,0,0,1,1.05.539,2.065,2.065,0,0,1,.161,1.056v2h-.371v-1.961c0-.588,0-1.3-.876-1.3a1.08,1.08,0,0,0-.93.5,1.53,1.53,0,0,0-.161.8V164.1Z"/><path class="cls-2" d="M232.923,159.932h-.485v-.522h.485Zm-.047,4.168h-.384v-3.5h.384Z"/><path class="cls-2" d="M236.09,164.1v-2.015c0-.5,0-1.247-.761-1.247-.456,0-1,.281-1,1.211V164.1h-.372v-3.5h.372v.509a1.134,1.134,0,0,1,1.031-.6,1.016,1.016,0,0,1,1.013.647,1.252,1.252,0,0,1,1.11-.647,1.015,1.015,0,0,1,1.037.665,2.063,2.063,0,0,1,.09.726V164.1h-.372v-2.009c0-.5,0-1.253-.774-1.253a.941.941,0,0,0-.911.605,1.534,1.534,0,0,0-.09.5V164.1Z"/><path class="cls-2" d="M239.757,160.777a2.168,2.168,0,0,1,1.074-.275,1.5,1.5,0,0,1,1.181.461,1.285,1.285,0,0,1,.21.846v1.661a1.394,1.394,0,0,0,.12.63h-.391a1.323,1.323,0,0,1-.1-.606,1.574,1.574,0,0,1-1.325.7,1,1,0,0,1-1.1-1.019c0-.252.025-.911,1.1-1.1.156-.03.857-.12,1-.156a.352.352,0,0,0,.318-.39c0-.492-.492-.695-1-.695a1.832,1.832,0,0,0-1.048.306Zm2.087,1.35c-.151.1-.227.107-.918.21-.611.1-1.132.174-1.132.827a.663.663,0,0,0,.761.7,1.422,1.422,0,0,0,1.289-.9Z"/><path class="cls-2" d="M244.425,162.139v.414h-1.493v-.414Z"/><path class="cls-2" d="M247.837,160.6v3.5h-.371v-.51a1.291,1.291,0,0,1-1.128.6,1.15,1.15,0,0,1-1.049-.539,2.126,2.126,0,0,1-.162-1.055v-2h.372v2.075c0,.677.119,1.186.875,1.186a1.066,1.066,0,0,0,.93-.5,1.545,1.545,0,0,0,.162-.8V160.6Z"/><path class="cls-2" d="M249.428,163.434v.666h-.635v-.666Z"/><path class="cls-2" d="M250.515,160.777a2.163,2.163,0,0,1,1.073-.275,1.5,1.5,0,0,1,1.182.461,1.291,1.291,0,0,1,.21.846v1.661a1.394,1.394,0,0,0,.12.63h-.391a1.323,1.323,0,0,1-.1-.606,1.577,1.577,0,0,1-1.326.7,1,1,0,0,1-1.1-1.019c0-.252.024-.911,1.1-1.1.157-.03.858-.12,1-.156a.353.353,0,0,0,.319-.39c0-.492-.493-.695-1-.695a1.836,1.836,0,0,0-1.049.306Zm2.087,1.35c-.151.1-.228.107-.918.21-.612.1-1.133.174-1.133.827a.664.664,0,0,0,.762.7,1.424,1.424,0,0,0,1.289-.9Z"/><path class="cls-2" d="M256.579,163.985a2.291,2.291,0,0,1-1,.21,1.711,1.711,0,0,1-1.787-1.846,1.733,1.733,0,0,1,1.77-1.847,1.8,1.8,0,0,1,1,.269l-.109.342a1.319,1.319,0,0,0-.881-.275,1.513,1.513,0,0,0,.031,3.021,1.916,1.916,0,0,0,.976-.252Z"/><path class="cls-2" d="M257.966,163.434v.666h-.635v-.666Z"/><path class="cls-2" d="M259.946,164.663c0,.294-.005,1.031-.845,1.031a1.276,1.276,0,0,1-.552-.126l.042-.335a1.3,1.3,0,0,0,.527.126c.439,0,.445-.372.445-.63V160.6h.383Zm.048-4.731h-.485v-.522h.485Z"/><path class="cls-2" d="M261.074,160.6h.378v.593a1.416,1.416,0,0,1,1.247-.689,1.87,1.87,0,0,1,0,3.693,1.417,1.417,0,0,1-1.247-.689v2.188h-.378Zm1.577,3.261c.612,0,1.242-.407,1.242-1.51,0-1.062-.588-1.511-1.242-1.511-.629,0-1.21.432-1.21,1.511S262.033,163.859,262.651,163.859Z"/><path class="cls-2" d="M269.059,163.908c.683-.084,2.207-.27,2.207-2.057a1.882,1.882,0,0,0-2.028-2.015,7.449,7.449,0,0,1-.809,3.263c-.329.521-.665.7-.942.7-.581,0-1.025-.714-1.025-1.638a2.568,2.568,0,0,1,2.753-2.65,2.2,2.2,0,0,1,2.429,2.327,2.373,2.373,0,0,1-2.465,2.423Zm-1.3-3.671a2.248,2.248,0,0,0-.948,1.919c0,.492.186,1.26.666,1.26.192,0,.408-.114.66-.516a7.151,7.151,0,0,0,.731-3.046A2.136,2.136,0,0,0,267.758,160.237Z"/><path class="cls-2" d="M273.386,161.533v.162a4.329,4.329,0,0,1-.827,2.777l-.288-.241a2.687,2.687,0,0,0,.557-1.025,5.266,5.266,0,0,0,.228-1.5v-.174h-.738v-.312h.738v-1.643h-.636v-.306h3v.306h-.552v1.643h.629v.312h-.629v3.029h-.336v-3.029Zm1.145-1.955h-1.145v1.643h1.145Zm.576,4.623a4.411,4.411,0,0,0,2.464-1.828l.258.2a5.075,5.075,0,0,1-2.542,1.944Zm.036-1.936a5.378,5.378,0,0,0,2.207-1.577l.258.191a5.94,5.94,0,0,1-2.3,1.685Zm.126-1.883a4.538,4.538,0,0,0,1.93-1.361l.258.2a5.569,5.569,0,0,1-1.99,1.444Z"/><path class="cls-2" d="M162.13,175.672V174.51h.571v1.162h4.251v.53h-7.869v3.232a7.077,7.077,0,0,1-1.141,4.362l-.47-.428a6.537,6.537,0,0,0,1.04-3.833v-3.863Zm2.427,3.711a24.368,24.368,0,0,1,2.191,4.26l-.53.265c-.082-.224-.153-.4-.418-1-2.365.285-5.616.489-6.758.571l-.071-.561c.112-.01,1.019-.051,1.2-.061a46.982,46.982,0,0,0,1.907-6.095l.621.142a43.092,43.092,0,0,1-1.926,5.923c2.477-.164,2.6-.174,4.811-.4a26.332,26.332,0,0,0-1.529-2.773Z"/><path class="cls-2" d="M172.076,174.53h.622v2.63h4.454v.551H172.84a7.375,7.375,0,0,0,4.414,5.565l-.4.5a7.816,7.816,0,0,1-4.352-5.31,7.24,7.24,0,0,1-4.485,5.361l-.306-.519a6.675,6.675,0,0,0,4.333-5.6H167.8v-.551h4.281Z"/><path class="cls-2" d="M180.309,176.559a24.3,24.3,0,0,1,3.109,2.08,16.336,16.336,0,0,0,1.722-3.711l.643.215a17.865,17.865,0,0,1-1.876,3.882,21.3,21.3,0,0,1,2.375,2.152l-.469.5a23.134,23.134,0,0,0-2.253-2.13,11.656,11.656,0,0,1-4.75,3.751l-.336-.551a10.371,10.371,0,0,0,4.608-3.6,24.58,24.58,0,0,0-3.11-2.12Z"/><path class="cls-2" d="M197.247,178.853v.662h-8.786v-.662Z"/><path class="cls-2" d="M200.853,177.844c0,2.517-.51,4.087-2.028,5.595l-.439-.438a6.319,6.319,0,0,0,1.866-5.117v-2.619h.6Zm2.619,4.688c2.579-.489,3.2-2.313,3.528-4.189l.57.234c-.418,2.049-1.2,4.322-4.72,4.7v-8.317h.622Z"/><path class="cls-2" d="M213.224,182.746c1.162-.142,3.751-.459,3.751-3.5a3.2,3.2,0,0,0-3.445-3.425,12.668,12.668,0,0,1-1.376,5.545c-.561.887-1.131,1.183-1.6,1.183-.989,0-1.743-1.213-1.743-2.783a4.365,4.365,0,0,1,4.679-4.505c3.425,0,4.128,2.476,4.128,3.955,0,3.016-2.253,3.924-4.19,4.117Zm-2.212-6.238a3.821,3.821,0,0,0-1.61,3.262c0,.835.316,2.14,1.132,2.14.326,0,.693-.193,1.121-.877a12.139,12.139,0,0,0,1.243-5.178A3.631,3.631,0,0,0,211.012,176.508Z"/><path class="cls-2" d="M222.181,180.9a8.977,8.977,0,0,1-1.294-1.335v4.3h-.56v-4.179a6.722,6.722,0,0,1-1.448,1.1l-.214-.581a7.7,7.7,0,0,0,3.119-3.476h-3.037v-.509h1.58V174.51h.56v1.713h1.478v.509a8.228,8.228,0,0,1-1.325,2.182,7.815,7.815,0,0,0,1.467,1.569Zm2.733,2.966-.133-.611,1.305.03c.55.011.693-.173.774-.418a41.571,41.571,0,0,0,.438-7.2h-2.181c0,4.373-.653,6.595-2.833,8.114l-.347-.47a5.723,5.723,0,0,0,2.222-3.363,19.357,19.357,0,0,0,.377-4.281h-1.845v-.529h5.188a57.284,57.284,0,0,1-.387,7.685c-.2.815-.561,1.039-1.447,1.039Zm-2.936-4.668a10.73,10.73,0,0,0,.856-1.091l.428.276a7.909,7.909,0,0,1-.9,1.131Z"/><path class="cls-2" d="M228.815,183.429a7.212,7.212,0,0,0,1.569-2.089l.469.274a7.5,7.5,0,0,1-1.651,2.223Zm1.569-8.9v1.244h2.375V174.53h.54v1.244h.755v.49H233.3V180.6h.755v.489h-5.117V180.6h.907v-4.332h-.755v-.49h.755V174.53Zm2.375,1.734h-2.375v1.1h2.375Zm0,1.559h-2.375v1.131h2.375Zm0,1.579h-2.375V180.6h2.375Zm.317,3.588a7.636,7.636,0,0,0-1.04-1.294l.4-.316a8,8,0,0,1,1.04,1.254Zm1.976-2.466a5.447,5.447,0,0,1-1.324,3.242l-.4-.368c.337-.387,1.2-1.366,1.2-3.923v-4.6h3.353v8.338c0,.428-.122.652-.733.652h-1.091l-.142-.57,1.162.06c.193.011.254-.009.254-.295v-2.538Zm2.284-2.629h-2.243v1.457c0,.214,0,.4-.009.683h2.252Zm0-2.518h-2.243v2.028h2.243Z"/><path class="cls-2" d="M242.8,176.284v.489h-3.659v-.489Zm-.315-1.478v.489H239.5v-.489Zm0,2.884v.51H239.5v-.51Zm0,1.478v.5H239.5v-.5Zm0,1.428V183.7H239.5V180.6Zm-.52.478h-1.947v2.141h1.947Zm5.015-6.268v2.365c0,.224.06.285.275.285h.295c.2,0,.326-.082.388-1.2l.54.174c-.092,1.192-.235,1.569-.765,1.569h-.642c-.489,0-.622-.2-.622-.642v-2.028h-1.957c-.009,1.467-.163,2.293-1.141,3.1l-.388-.428c.989-.754.989-1.59.989-3.007v-.183Zm1.213,9.061a9.308,9.308,0,0,1-2.549-1.355,7.293,7.293,0,0,1-2.406,1.284l-.244-.54a6.314,6.314,0,0,0,2.212-1.121,6.091,6.091,0,0,1-1.427-2.223l.479-.234a5.483,5.483,0,0,0,1.366,2.09,6.422,6.422,0,0,0,1.489-2.4h-3.976v-.53h4.576v.51a7.552,7.552,0,0,1-1.651,2.783,7.774,7.774,0,0,0,2.436,1.162Z"/><path class="cls-2" d="M253.71,177.884h-2.935v-.52h6.442v.52h-2.936v2.14h3.446v.5h-3.446v2.518a5.2,5.2,0,0,0,1.009.092h3.456l-.092.529h-3.282a4.346,4.346,0,0,1-4.21-2.334,8.6,8.6,0,0,1-1.509,2.5l-.427-.418a8.811,8.811,0,0,0,2.018-4.546l.561.092a10.681,10.681,0,0,1-.388,1.651,3.5,3.5,0,0,0,2.293,2.284Zm.581-3.354v.887h4.251v2.11h-.592v-1.6h-7.9v1.6h-.57v-2.11H253.7v-.887Z"/><path class="cls-2" d="M268.324,176.161c-.54-.04-.825-.06-1.131-.06a2.261,2.261,0,0,0-.937.122c-1.621.57-3.629,2.181-3.629,4.036,0,1.182.591,2.416,4.76,2.416l-.163.662c-2.222-.1-5.24-.4-5.24-3.007,0-2.252,2.253-3.659,3.333-4.24-.886.02-4.3.224-5.34.337l-.072-.663c.449,0,1.794-.072,2.9-.122,2.722-.133,3.425-.133,5.524-.133Zm-1.977,1.305a9.526,9.526,0,0,1,1.091,1.9l-.54.336a9.77,9.77,0,0,0-1.05-1.927Zm1.387-.57a9.555,9.555,0,0,1,1.121,1.875l-.531.346a9.14,9.14,0,0,0-1.08-1.906Z"/><path class="cls-2" d="M271.4,183.867h-.56v-5.85a7.056,7.056,0,0,1-.907,1.366l-.347-.571a9.644,9.644,0,0,0,1.968-4.3l.55.133a12.576,12.576,0,0,1-.7,2.211Zm4.567-6.645h2.64V180.1H275.9a4.583,4.583,0,0,1-.572,1.906,9.285,9.285,0,0,0,3.742,1.274l-.265.561a9.55,9.55,0,0,1-3.782-1.417,4.722,4.722,0,0,1-2.885,1.417l-.2-.54a4.681,4.681,0,0,0,2.6-1.224,5.539,5.539,0,0,1-1.314-1.345l.428-.306a5.612,5.612,0,0,0,1.2,1.244,3.812,3.812,0,0,0,.469-1.57h-2.6v-2.874H275.4v-1.1h-3.109v-.52H275.4v-1.08h.571v1.08h3.048v.52h-3.048Zm-.571.478h-2.12v1.906h2.089c.011-.163.031-.346.031-.652Zm.571,1.2c0,.163-.021.54-.03.7h2.109V177.7h-2.079Z"/><path class="cls-2" d="M288.645,183.021c0,.55-.143.836-.7.836h-1.408l-.071-.56,1.376.019c.225,0,.225-.213.225-.305v-2.385h-3.089v3.119h-.55v-3.119h-3.059a6.144,6.144,0,0,1-1.141,3.231l-.4-.387c.48-.683,1.02-1.56,1.02-4.006v-4.516h7.8Zm-4.22-5.055h-3v1.4c0,.469-.01.591-.021.784h3.018Zm0-2.508h-3v2.028h3Zm3.639,0h-3.089v2.028h3.089Zm0,2.508h-3.089v2.18h3.089Z"/><path class="cls-2" d="M158.231,189.98v4.69h-.414v-4.69Z"/><path class="cls-2" d="M160.33,189.98l1.464,4.432,1.469-4.432h.647l.678,4.69h-.39l-.635-4.438-1.475,4.438h-.583l-1.475-4.438-.635,4.438h-.39l.678-4.69Z"/><path class="cls-2" d="M168.939,194.448a2.974,2.974,0,0,1-1.374.318,2.441,2.441,0,1,1-.036-4.881,2.527,2.527,0,0,1,1.386.389l-.144.354a2.094,2.094,0,1,0-1.182,3.784,2.262,2.262,0,0,0,1.35-.4Z"/><path class="cls-2" d="M176.18,190.131a2.912,2.912,0,0,1-1.931,2.374l-.21-.323a2.325,2.325,0,0,0,1.685-1.7H171.3v-.348Zm-4.731,4.4c1.709-.786,1.858-2.021,1.864-3.34h.378a3.559,3.559,0,0,1-1.99,3.652Z"/><path class="cls-2" d="M177.245,194.574a3.986,3.986,0,0,0,1.888-3.238h-1.709v-.348h1.751c.042-.564.042-.8.042-1.145l.39.011c-.023.558-.036.787-.071,1.134h2.38v1.02a9.9,9.9,0,0,1-.222,2.35c-.191.468-.726.468-.959.468a4.581,4.581,0,0,1-.96-.09v-.372a5.394,5.394,0,0,0,1,.108c.468,0,.552-.222.6-.366a11.616,11.616,0,0,0,.162-2.1v-.665H179.5a4.266,4.266,0,0,1-2.028,3.519Z"/><path class="cls-2" d="M187.916,190.754v.408c0,1.307-.36,3.4-3.64,3.664l-.108-.347c3.209-.325,3.358-2.142,3.358-3.263v-.132h-3.609v1.559h-.367v-1.889h1.973v-.983h.384v.983Z"/><path class="cls-2" d="M191.277,191.456a7.013,7.013,0,0,0-1.841-.84l.2-.342a7.56,7.56,0,0,1,1.847.833Zm-1.7,2.842a4.449,4.449,0,0,0,2.763-1.007A5.543,5.543,0,0,0,194,190.616l.312.246a5.973,5.973,0,0,1-1.835,2.788,4.876,4.876,0,0,1-2.843,1.062Z"/><path class="cls-2" d="M199.862,193.1a14.929,14.929,0,0,0-2.8-1.32v3.16h-.39v-5.127h.39v1.6a17.688,17.688,0,0,1,2.981,1.319Z"/><path class="cls-2" d="M201.167,191.456a4.27,4.27,0,0,0,2.236-1.842l.312.115a2.537,2.537,0,0,1-.27.414h2.231v.294a5.357,5.357,0,0,1-2.129,2.194H206.2v2.4h-3.58v-1.906a8.224,8.224,0,0,1-1.53.558l-.149-.33A8.278,8.278,0,0,0,203.5,192.3a7.809,7.809,0,0,0-1.206-1.062,4.04,4.04,0,0,1-.942.517Zm2.027-1.019a5.221,5.221,0,0,1-.648.6,8.871,8.871,0,0,1,1.235,1.062,4.718,4.718,0,0,0,1.529-1.667Zm-.168,2.488a.4.4,0,0,1-.072.036v1.768h2.908v-1.8Z"/><path class="cls-2" d="M211.815,191.138h.4l-.331,1.535a2.242,2.242,0,0,0-.029.27.331.331,0,0,0,.348.354c.426,0,.725-.648.725-1.3a1.834,1.834,0,0,0-1.979-1.786,2.014,2.014,0,0,0-2.057,2.158,1.976,1.976,0,0,0,2.106,2.064,2.1,2.1,0,0,0,1-.223l.137.348a2.951,2.951,0,0,1-1.121.2,2.316,2.316,0,0,1-2.5-2.429,2.35,2.35,0,0,1,2.436-2.452,2.139,2.139,0,0,1,2.344,2.1c0,1.128-.582,1.644-1.151,1.644a.565.565,0,0,1-.594-.468,1.1,1.1,0,0,1-.893.438.963.963,0,0,1-.954-1.074,1.4,1.4,0,0,1,1.265-1.493.832.832,0,0,1,.78.413Zm-1.739,1.4c0,.5.275.732.641.732.888,0,.906-1.253.906-1.289a.564.564,0,0,0-.587-.606C210.345,191.372,210.076,192.079,210.076,192.535Z"/><path class="cls-2" d="M214.079,194.67v-4.917h.372v1.925a1.3,1.3,0,0,1,1.127-.606,1.148,1.148,0,0,1,1.05.539,2.065,2.065,0,0,1,.161,1.056v2h-.371v-1.961c0-.588,0-1.3-.876-1.3a1.078,1.078,0,0,0-.93.5,1.53,1.53,0,0,0-.161.8v1.961Z"/><path class="cls-2" d="M218.314,190.5h-.485v-.522h.485Zm-.048,4.168h-.384v-3.5h.384Z"/><path class="cls-2" d="M219.34,194.67v-3.5h.377v.51a1.2,1.2,0,0,1,1.164-.606v.342a1.007,1.007,0,0,0-.708.18,1.172,1.172,0,0,0-.456,1.115v1.961Z"/><path class="cls-2" d="M223.179,191.072a1.852,1.852,0,1,1-1.709,1.847A1.713,1.713,0,0,1,223.179,191.072Zm.006,3.358a1.523,1.523,0,1,0-1.337-1.511A1.345,1.345,0,0,0,223.185,194.43Z"/><path class="cls-2" d="M227.523,191.588a1.554,1.554,0,0,0-.731-.18c-.474,0-.84.2-.84.623,0,.4.2.5.929.72.522.156.984.372.984,1,0,.678-.611,1.02-1.361,1.02a2.4,2.4,0,0,1-1.08-.246l.126-.33a2.024,2.024,0,0,0,.959.24c.528,0,.978-.192.978-.684,0-.455-.342-.563-.953-.755-.5-.156-.954-.324-.954-.941s.54-.978,1.217-.978a1.851,1.851,0,0,1,.822.186Z"/><path class="cls-2" d="M228.688,194.67v-4.917h.372v1.925a1.3,1.3,0,0,1,1.127-.606,1.148,1.148,0,0,1,1.05.539,2.065,2.065,0,0,1,.161,1.056v2h-.371v-1.961c0-.588,0-1.3-.876-1.3a1.08,1.08,0,0,0-.93.5,1.53,1.53,0,0,0-.161.8v1.961Z"/><path class="cls-2" d="M232.923,190.5h-.485v-.522h.485Zm-.047,4.168h-.384v-3.5h.384Z"/><path class="cls-2" d="M236.09,194.67v-2.015c0-.5,0-1.247-.761-1.247-.456,0-1,.281-1,1.211v2.051h-.372v-3.5h.372v.51a1.133,1.133,0,0,1,1.031-.606,1.017,1.017,0,0,1,1.013.648,1.251,1.251,0,0,1,1.11-.648,1.015,1.015,0,0,1,1.037.665,2.063,2.063,0,0,1,.09.726v2.207h-.372v-2.009c0-.5,0-1.253-.774-1.253a.94.94,0,0,0-.911.606,1.529,1.529,0,0,0-.09.5v2.152Z"/><path class="cls-2" d="M239.757,191.348a2.162,2.162,0,0,1,1.074-.276,1.5,1.5,0,0,1,1.181.461,1.287,1.287,0,0,1,.21.846v1.661a1.387,1.387,0,0,0,.12.63h-.391a1.32,1.32,0,0,1-.1-.606,1.576,1.576,0,0,1-1.325.7,1,1,0,0,1-1.1-1.02c0-.252.025-.911,1.1-1.1.156-.03.857-.12,1-.156a.352.352,0,0,0,.318-.389c0-.493-.492-.7-1-.7a1.832,1.832,0,0,0-1.048.306Zm2.087,1.349c-.151.1-.227.108-.918.21-.611.1-1.132.174-1.132.827a.664.664,0,0,0,.761.7,1.423,1.423,0,0,0,1.289-.9Z"/><path class="cls-2" d="M244.425,192.709v.414h-1.493v-.414Z"/><path class="cls-2" d="M247.837,191.168v3.5h-.371v-.51a1.292,1.292,0,0,1-1.128.606,1.15,1.15,0,0,1-1.049-.539,2.13,2.13,0,0,1-.162-1.056v-2h.372v2.075c0,.677.119,1.187.875,1.187a1.069,1.069,0,0,0,.93-.5,1.546,1.546,0,0,0,.162-.8v-1.961Z"/><path class="cls-2" d="M249.428,194v.666h-.635V194Z"/><path class="cls-2" d="M250.515,191.348a2.157,2.157,0,0,1,1.073-.276,1.5,1.5,0,0,1,1.182.461,1.293,1.293,0,0,1,.21.846v1.661a1.387,1.387,0,0,0,.12.63h-.391a1.32,1.32,0,0,1-.1-.606,1.579,1.579,0,0,1-1.326.7,1,1,0,0,1-1.1-1.02c0-.252.024-.911,1.1-1.1.157-.03.858-.12,1-.156a.352.352,0,0,0,.319-.389c0-.493-.493-.7-1-.7a1.836,1.836,0,0,0-1.049.306ZM252.6,192.7c-.151.1-.228.108-.918.21-.612.1-1.133.174-1.133.827a.664.664,0,0,0,.762.7,1.425,1.425,0,0,0,1.289-.9Z"/><path class="cls-2" d="M256.579,194.556a2.305,2.305,0,0,1-1,.21,1.712,1.712,0,0,1-1.787-1.847,1.733,1.733,0,0,1,1.77-1.847,1.789,1.789,0,0,1,1,.27l-.109.342a1.319,1.319,0,0,0-.881-.276,1.514,1.514,0,0,0,.031,3.022,1.916,1.916,0,0,0,.976-.252Z"/><path class="cls-2" d="M257.966,194v.666h-.635V194Z"/><path class="cls-2" d="M259.946,195.233c0,.294-.005,1.032-.845,1.032a1.291,1.291,0,0,1-.552-.126l.042-.335a1.3,1.3,0,0,0,.527.126c.439,0,.445-.372.445-.63v-4.132h.383Zm.048-4.731h-.485v-.522h.485Z"/><path class="cls-2" d="M261.074,191.168h.378v.594a1.415,1.415,0,0,1,1.247-.69,1.871,1.871,0,0,1,0,3.694,1.418,1.418,0,0,1-1.247-.69v2.189h-.378Zm1.577,3.262c.612,0,1.242-.408,1.242-1.511,0-1.062-.588-1.511-1.242-1.511-.629,0-1.21.432-1.21,1.511S262.033,194.43,262.651,194.43Z"/><path class="cls-2" d="M269.059,194.479c.683-.084,2.207-.271,2.207-2.058a1.882,1.882,0,0,0-2.028-2.015,7.449,7.449,0,0,1-.809,3.263c-.329.521-.665.695-.942.695-.581,0-1.025-.714-1.025-1.637a2.568,2.568,0,0,1,2.753-2.651,2.2,2.2,0,0,1,2.429,2.327,2.372,2.372,0,0,1-2.465,2.423Zm-1.3-3.671a2.246,2.246,0,0,0-.948,1.919c0,.492.186,1.259.666,1.259.192,0,.408-.114.66-.515a7.155,7.155,0,0,0,.731-3.047A2.129,2.129,0,0,0,267.758,190.808Z"/><path class="cls-2" d="M273.386,192.1v.162a4.328,4.328,0,0,1-.827,2.776l-.288-.24a2.685,2.685,0,0,0,.557-1.026,5.256,5.256,0,0,0,.228-1.5V192.1h-.738v-.313h.738v-1.643h-.636v-.305h3v.305h-.552v1.643h.629v.313h-.629v3.028h-.336V192.1Zm1.145-1.956h-1.145v1.643h1.145Zm.576,4.623a4.406,4.406,0,0,0,2.464-1.828l.258.2a5.078,5.078,0,0,1-2.542,1.943Zm.036-1.936a5.378,5.378,0,0,0,2.207-1.577l.258.191a5.943,5.943,0,0,1-2.3,1.686Zm.126-1.883a4.53,4.53,0,0,0,1.93-1.361l.258.2a5.557,5.557,0,0,1-1.99,1.444Z"/><path class="cls-2" d="M174.575,204.4v-.827h-3.688v-.36h3.688v-.827l1.7,1.008Z"/><path class="cls-2" d="M181.6,203.476a7.9,7.9,0,0,1-.3,2.374.609.609,0,0,1-.612.282h-.51l-.089-.348.653.012c.264.006.468.006.521-2.027h-1.421a3.992,3.992,0,0,1-.905,2.344l-.276-.239a4.619,4.619,0,0,0,.924-3.059h-.624v-1.984H181.7v1.984h-1.787c-.012.354-.031.516-.042.661Zm-.21-2.352h-2.11v1.4h2.11Zm1.266-.144V204.8h-.324V200.98Zm1.386-.347v5.007c0,.18,0,.492-.492.492h-.684l-.048-.348.69.012c.192.006.192-.067.192-.228v-4.935Z"/><path class="cls-2" d="M187.505,205.479c.684-.084,2.208-.271,2.208-2.058a1.882,1.882,0,0,0-2.028-2.015,7.463,7.463,0,0,1-.809,3.263c-.33.521-.665.695-.942.695-.581,0-1.025-.714-1.025-1.637a2.568,2.568,0,0,1,2.753-2.651,2.2,2.2,0,0,1,2.428,2.327,2.371,2.371,0,0,1-2.464,2.423Zm-1.3-3.671a2.245,2.245,0,0,0-.949,1.919c0,.492.187,1.259.666,1.259.193,0,.409-.114.661-.515a7.17,7.17,0,0,0,.731-3.047A2.123,2.123,0,0,0,186.205,201.808Z"/><path class="cls-2" d="M194.705,201.754v.336h-2.087l-.012,1.235h1.067a3.609,3.609,0,0,0,.96-.108l.03.33a3.759,3.759,0,0,1-.965.1h-1.1v.192c0,1.367-.017,1.655,1.362,1.655.587,0,1.583,0,1.583-1.289a3.28,3.28,0,0,0-.373-1.4l.331-.078a3.4,3.4,0,0,1,.4,1.51,1.5,1.5,0,0,1-.881,1.47,3.424,3.424,0,0,1-1.061.132c-1.722,0-1.7-.642-1.7-2v-.192h-1.188v-.324h1.193l.012-1.235h-1.1v-.336h1.109l.006-.894h.348l0,.894Z"/><path class="cls-2" d="M199.505,205.479c.684-.084,2.208-.271,2.208-2.058a1.882,1.882,0,0,0-2.028-2.015,7.463,7.463,0,0,1-.809,3.263c-.33.521-.665.695-.942.695-.581,0-1.025-.714-1.025-1.637a2.568,2.568,0,0,1,2.753-2.651,2.2,2.2,0,0,1,2.428,2.327,2.371,2.371,0,0,1-2.464,2.423Zm-1.3-3.671a2.245,2.245,0,0,0-.949,1.919c0,.492.187,1.259.666,1.259.193,0,.409-.114.661-.515a7.17,7.17,0,0,0,.731-3.047A2.123,2.123,0,0,0,198.205,201.808Z"/><path class="cls-2" d="M203.94,201a10.308,10.308,0,0,0-.287,2.7,8.007,8.007,0,0,0,.191,2.116l-.395.042a11.449,11.449,0,0,1-.162-2.122,11.3,11.3,0,0,1,.263-2.777Zm1.518,2.549a1.586,1.586,0,0,0-.306.863c0,.649.743.7,1.427.7a11.729,11.729,0,0,0,1.29-.066v.39c-.174.012-.66.049-1.146.049-.738,0-1.907-.049-1.907-1.062a1.926,1.926,0,0,1,.306-.983Zm2.278-2.068v.347H205v-.347Z"/><path class="cls-2" d="M208.712,205.826a8.243,8.243,0,0,0,2.463-.66,5.545,5.545,0,0,1-1.043-.833,5.354,5.354,0,0,1-1.157.611l-.186-.294a4.6,4.6,0,0,0,2.063-1.367l.294.12a2.529,2.529,0,0,1-.306.354h2.405v.216a4.567,4.567,0,0,1-1.4,1.187,7.4,7.4,0,0,0,2.405.672l-.168.342a7.069,7.069,0,0,1-2.584-.821,8.959,8.959,0,0,1-2.633.8Zm2.967-4.6h2.579v.3h-1.919V203c0,.234-.078.318-.318.318h-.6l-.073-.324.523.006c.149,0,.155-.071.155-.149v-1.331h-.995a2.306,2.306,0,0,1-1.014,1.984l-.246-.222a1.978,1.978,0,0,0,.936-1.762h-1.925v-.3h2.566v-.571h.336Zm-2.89,1.7a2.721,2.721,0,0,0,1.08-1.1l.305.132a3.468,3.468,0,0,1-1.139,1.217Zm1.739,1.122c-.078.06-.107.09-.162.126a5.141,5.141,0,0,0,1.151.827,4.464,4.464,0,0,0,1.242-.953Zm2.459-2.177a4.529,4.529,0,0,0,1.175,1.116l-.2.263a5.1,5.1,0,0,1-1.218-1.187Z"/><path class="cls-2" d="M219.8,201.814v2.273h-2.243a2.727,2.727,0,0,1-.557,1.121,7.366,7.366,0,0,0,3.257.6l-.1.355a7.571,7.571,0,0,1-3.388-.738,4.4,4.4,0,0,1-1.907.714l-.126-.306a4.09,4.09,0,0,0,1.745-.569,3.181,3.181,0,0,1-.917-.81l.275-.156a3.069,3.069,0,0,0,.882.75,2.126,2.126,0,0,0,.5-.966h-2v-2.273h2.141V201.2h-2.591v-.3h5.482v.3h-2.561v.612Zm-2.434.965v-.672h-1.823v.672Zm-.066,1a4.255,4.255,0,0,0,.066-.714h-1.823v.714Zm.389-.714a3.976,3.976,0,0,1-.065.714h1.846v-.714Zm.007-.96v.672h1.774v-.672Z"/><path class="cls-2" d="M225.443,205.622a.449.449,0,0,1-.516.516h-1.086l-.053-.354,1.1.012c.15,0,.216,0,.216-.24v-4.341h-4.336V200.9h5.488v.319h-.81Zm-1.422-.863H221.4v-2.681h2.62Zm-.317-2.369h-1.986v2.062H223.7Z"/><path class="cls-2" d="M228.708,200.944a10.11,10.11,0,0,1,.893,1.26l-.269.186a4.048,4.048,0,0,0-.241-.414c-.281.042-.485.06-2.272.234l-.042-.33c.072.006.324-.012.414-.012.156-.3.359-.8.522-1.2l.33.084c-.09.174-.451.947-.535,1.1.966-.06,1.075-.066,1.428-.108-.246-.353-.348-.486-.468-.636Zm.534,1.7v3.065c0,.306-.132.42-.438.42h-.618l-.065-.342.647.023c.156.007.156-.084.156-.155v-.887h-1.547v1.361h-.318v-3.485Zm-.318.306h-1.547v.606h1.547Zm0,.882h-1.547v.653h1.547Zm1.295-3.2v1.013a5.765,5.765,0,0,0,1.673-.719l.222.257a6.289,6.289,0,0,1-1.9.738v.792c0,.12,0,.221.222.221h1.151c.222,0,.3,0,.342-.869l.312.108c-.048.786-.09,1.049-.551,1.049h-1.314c-.377,0-.486-.162-.486-.444v-2.146Zm0,2.788v.971a4.357,4.357,0,0,0,1.65-.713l.227.258a5.7,5.7,0,0,1-1.877.744v.767c0,.186.018.258.288.258h1.085c.168,0,.2-.03.241-.132a3.71,3.71,0,0,0,.095-.809l.325.083c-.084.959-.1,1.164-.642,1.164h-1.176c-.156,0-.54,0-.54-.456v-2.135Z"/></g></svg>